<?xml version="1.0" encoding="utf-8" standalone="no"?>
<!DOCTYPE svg PUBLIC "-//W3C//DTD SVG 1.1//EN"
  "http://www.w3.org/Graphics/SVG/1.1/DTD/svg11.dtd">
<svg xmlns:xlink="http://www.w3.org/1999/xlink" width="360pt" height="360pt" viewBox="0 0 360 360" xmlns="http://www.w3.org/2000/svg" version="1.1">
 <metadata>
  <rdf:RDF xmlns:dc="http://purl.org/dc/elements/1.1/" xmlns:cc="http://creativecommons.org/ns#" xmlns:rdf="http://www.w3.org/1999/02/22-rdf-syntax-ns#">
   <cc:Work>
    <dc:type rdf:resource="http://purl.org/dc/dcmitype/StillImage"/>
    <dc:date>2025-11-24T12:36:57.046708</dc:date>
    <dc:format>image/svg+xml</dc:format>
    <dc:creator>
     <cc:Agent>
      <dc:title>Matplotlib v3.9.1, https://matplotlib.org/</dc:title>
     </cc:Agent>
    </dc:creator>
   </cc:Work>
  </rdf:RDF>
 </metadata>
 <defs>
  <style type="text/css">*{stroke-linejoin: round; stroke-linecap: butt}</style>
 </defs>
 <g id="figure_1">
  <g id="patch_1">
   <path d="M 0 360 
L 360 360 
L 360 0 
L 0 0 
z
" style="fill: #ffffff"/>
  </g>
  <g id="axes_1">
   <g id="patch_2">
    <path d="M 45 320.4 
L 324 320.4 
L 324 43.2 
L 45 43.2 
z
" style="fill: #ffffff"/>
   </g>
   <g id="PathCollection_1">
    <defs>
     <path id="mb4292275cc" d="M 0 3 
C 0.795609 3 1.55874 2.683901 2.12132 2.12132 
C 2.683901 1.55874 3 0.795609 3 0 
C 3 -0.795609 2.683901 -1.55874 2.12132 -2.12132 
C 1.55874 -2.683901 0.795609 -3 0 -3 
C -0.795609 -3 -1.55874 -2.683901 -2.12132 -2.12132 
C -2.683901 -1.55874 -3 -0.795609 -3 0 
C -3 0.795609 -2.683901 1.55874 -2.12132 2.12132 
C -1.55874 2.683901 -0.795609 3 0 3 
z
" style="stroke: #808080"/>
    </defs>
    <g clip-path="url(#pb657a72c64)">
     <use xlink:href="#mb4292275cc" x="154.976636" y="156.485344" style="fill: #808080; stroke: #808080"/>
     <use xlink:href="#mb4292275cc" x="186.795266" y="196.361823" style="fill: #808080; stroke: #808080"/>
     <use xlink:href="#mb4292275cc" x="161.719615" y="162.078796" style="fill: #808080; stroke: #808080"/>
     <use xlink:href="#mb4292275cc" x="181.469906" y="209.181186" style="fill: #808080; stroke: #808080"/>
     <use xlink:href="#mb4292275cc" x="232.209917" y="212.462906" style="fill: #808080; stroke: #808080"/>
     <use xlink:href="#mb4292275cc" x="207.840906" y="167.909557" style="fill: #808080; stroke: #808080"/>
     <use xlink:href="#mb4292275cc" x="161.443927" y="183.447838" style="fill: #808080; stroke: #808080"/>
     <use xlink:href="#mb4292275cc" x="210.110583" y="189.852159" style="fill: #808080; stroke: #808080"/>
     <use xlink:href="#mb4292275cc" x="161.772612" y="122.985759" style="fill: #808080; stroke: #808080"/>
     <use xlink:href="#mb4292275cc" x="221.909324" y="239.969775" style="fill: #808080; stroke: #808080"/>
     <use xlink:href="#mb4292275cc" x="190.06996" y="181.690126" style="fill: #808080; stroke: #808080"/>
     <use xlink:href="#mb4292275cc" x="268.96005" y="227.824512" style="fill: #808080; stroke: #808080"/>
     <use xlink:href="#mb4292275cc" x="285.111534" y="270.430255" style="fill: #808080; stroke: #808080"/>
     <use xlink:href="#mb4292275cc" x="158.453071" y="178.260819" style="fill: #808080; stroke: #808080"/>
     <use xlink:href="#mb4292275cc" x="244.773471" y="198.140877" style="fill: #808080; stroke: #808080"/>
     <use xlink:href="#mb4292275cc" x="137.09204" y="152.704101" style="fill: #808080; stroke: #808080"/>
     <use xlink:href="#mb4292275cc" x="231.97874" y="234.115133" style="fill: #808080; stroke: #808080"/>
     <use xlink:href="#mb4292275cc" x="258.198587" y="245.303262" style="fill: #808080; stroke: #808080"/>
     <use xlink:href="#mb4292275cc" x="148.178138" y="185.386385" style="fill: #808080; stroke: #808080"/>
     <use xlink:href="#mb4292275cc" x="244.163952" y="225.03306" style="fill: #808080; stroke: #808080"/>
     <use xlink:href="#mb4292275cc" x="231.404424" y="235.417736" style="fill: #808080; stroke: #808080"/>
     <use xlink:href="#mb4292275cc" x="105.962219" y="115.715146" style="fill: #808080; stroke: #808080"/>
     <use xlink:href="#mb4292275cc" x="126.764028" y="132.577867" style="fill: #808080; stroke: #808080"/>
     <use xlink:href="#mb4292275cc" x="256.083879" y="250.556462" style="fill: #808080; stroke: #808080"/>
     <use xlink:href="#mb4292275cc" x="242.255039" y="253.088442" style="fill: #808080; stroke: #808080"/>
     <use xlink:href="#mb4292275cc" x="222.035531" y="255.408347" style="fill: #808080; stroke: #808080"/>
     <use xlink:href="#mb4292275cc" x="262.314889" y="280.402098" style="fill: #808080; stroke: #808080"/>
     <use xlink:href="#mb4292275cc" x="211.578865" y="246.011145" style="fill: #808080; stroke: #808080"/>
     <use xlink:href="#mb4292275cc" x="221.608052" y="242.315855" style="fill: #808080; stroke: #808080"/>
     <use xlink:href="#mb4292275cc" x="250.468738" y="226.818057" style="fill: #808080; stroke: #808080"/>
     <use xlink:href="#mb4292275cc" x="224.082837" y="239.953582" style="fill: #808080; stroke: #808080"/>
     <use xlink:href="#mb4292275cc" x="259.966443" y="242.057254" style="fill: #808080; stroke: #808080"/>
     <use xlink:href="#mb4292275cc" x="244.298326" y="246.994657" style="fill: #808080; stroke: #808080"/>
     <use xlink:href="#mb4292275cc" x="241.95991" y="257.229153" style="fill: #808080; stroke: #808080"/>
     <use xlink:href="#mb4292275cc" x="146.165497" y="89.709008" style="fill: #808080; stroke: #808080"/>
     <use xlink:href="#mb4292275cc" x="258.723288" y="235.252752" style="fill: #808080; stroke: #808080"/>
     <use xlink:href="#mb4292275cc" x="255.361563" y="222.181111" style="fill: #808080; stroke: #808080"/>
     <use xlink:href="#mb4292275cc" x="108.873747" y="111.842063" style="fill: #808080; stroke: #808080"/>
     <use xlink:href="#mb4292275cc" x="176.261546" y="130.08734" style="fill: #808080; stroke: #808080"/>
     <use xlink:href="#mb4292275cc" x="272.156376" y="258.461991" style="fill: #808080; stroke: #808080"/>
     <use xlink:href="#mb4292275cc" x="261.132502" y="255.152442" style="fill: #808080; stroke: #808080"/>
     <use xlink:href="#mb4292275cc" x="232.685014" y="248.177344" style="fill: #808080; stroke: #808080"/>
     <use xlink:href="#mb4292275cc" x="236.285818" y="220.935829" style="fill: #808080; stroke: #808080"/>
     <use xlink:href="#mb4292275cc" x="232.115625" y="220.1127" style="fill: #808080; stroke: #808080"/>
     <use xlink:href="#mb4292275cc" x="131.807961" y="161.51315" style="fill: #808080; stroke: #808080"/>
     <use xlink:href="#mb4292275cc" x="195.837673" y="146.675583" style="fill: #808080; stroke: #808080"/>
     <use xlink:href="#mb4292275cc" x="266.653537" y="282.423622" style="fill: #808080; stroke: #808080"/>
     <use xlink:href="#mb4292275cc" x="239.856597" y="231.070576" style="fill: #808080; stroke: #808080"/>
     <use xlink:href="#mb4292275cc" x="247.273866" y="242.002709" style="fill: #808080; stroke: #808080"/>
     <use xlink:href="#mb4292275cc" x="191.427937" y="224.597844" style="fill: #808080; stroke: #808080"/>
     <use xlink:href="#mb4292275cc" x="114.605955" y="162.453755" style="fill: #808080; stroke: #808080"/>
     <use xlink:href="#mb4292275cc" x="254.993709" y="218.856977" style="fill: #808080; stroke: #808080"/>
     <use xlink:href="#mb4292275cc" x="183.506518" y="192.305687" style="fill: #808080; stroke: #808080"/>
     <use xlink:href="#mb4292275cc" x="238.255752" y="263.645468" style="fill: #808080; stroke: #808080"/>
     <use xlink:href="#mb4292275cc" x="278.12509" y="227.556272" style="fill: #808080; stroke: #808080"/>
     <use xlink:href="#mb4292275cc" x="221.276895" y="202.469311" style="fill: #808080; stroke: #808080"/>
     <use xlink:href="#mb4292275cc" x="245.832349" y="223.825467" style="fill: #808080; stroke: #808080"/>
     <use xlink:href="#mb4292275cc" x="253.743238" y="250.578612" style="fill: #808080; stroke: #808080"/>
     <use xlink:href="#mb4292275cc" x="245.894726" y="199.257556" style="fill: #808080; stroke: #808080"/>
     <use xlink:href="#mb4292275cc" x="273.63557" y="237.874347" style="fill: #808080; stroke: #808080"/>
     <use xlink:href="#mb4292275cc" x="256.946325" y="258.639499" style="fill: #808080; stroke: #808080"/>
     <use xlink:href="#mb4292275cc" x="252.030216" y="220.2606" style="fill: #808080; stroke: #808080"/>
     <use xlink:href="#mb4292275cc" x="235.969568" y="212.602911" style="fill: #808080; stroke: #808080"/>
     <use xlink:href="#mb4292275cc" x="241.366859" y="217.763143" style="fill: #808080; stroke: #808080"/>
     <use xlink:href="#mb4292275cc" x="242.187689" y="222.652802" style="fill: #808080; stroke: #808080"/>
     <use xlink:href="#mb4292275cc" x="138.404303" y="158.437769" style="fill: #808080; stroke: #808080"/>
     <use xlink:href="#mb4292275cc" x="267.522991" y="308.121033" style="fill: #808080; stroke: #808080"/>
     <use xlink:href="#mb4292275cc" x="262.07369" y="236.085339" style="fill: #808080; stroke: #808080"/>
     <use xlink:href="#mb4292275cc" x="226.655118" y="234.08189" style="fill: #808080; stroke: #808080"/>
     <use xlink:href="#mb4292275cc" x="269.613102" y="265.262362" style="fill: #808080; stroke: #808080"/>
     <use xlink:href="#mb4292275cc" x="239.836858" y="223.273493" style="fill: #808080; stroke: #808080"/>
     <use xlink:href="#mb4292275cc" x="236.369757" y="223.396771" style="fill: #808080; stroke: #808080"/>
     <use xlink:href="#mb4292275cc" x="124.655568" y="163.11008" style="fill: #808080; stroke: #808080"/>
     <use xlink:href="#mb4292275cc" x="172.127261" y="204.44652" style="fill: #808080; stroke: #808080"/>
     <use xlink:href="#mb4292275cc" x="257.22797" y="252.886224" style="fill: #808080; stroke: #808080"/>
     <use xlink:href="#mb4292275cc" x="135.303094" y="150.134541" style="fill: #808080; stroke: #808080"/>
     <use xlink:href="#mb4292275cc" x="193.261125" y="182.629563" style="fill: #808080; stroke: #808080"/>
     <use xlink:href="#mb4292275cc" x="247.000947" y="241.778966" style="fill: #808080; stroke: #808080"/>
     <use xlink:href="#mb4292275cc" x="239.068823" y="226.586543" style="fill: #808080; stroke: #808080"/>
     <use xlink:href="#mb4292275cc" x="126.221508" y="157.244631" style="fill: #808080; stroke: #808080"/>
     <use xlink:href="#mb4292275cc" x="262.615031" y="261.082886" style="fill: #808080; stroke: #808080"/>
     <use xlink:href="#mb4292275cc" x="229.320101" y="268.918209" style="fill: #808080; stroke: #808080"/>
     <use xlink:href="#mb4292275cc" x="206.505413" y="162.605557" style="fill: #808080; stroke: #808080"/>
     <use xlink:href="#mb4292275cc" x="290.715135" y="230.31489" style="fill: #808080; stroke: #808080"/>
     <use xlink:href="#mb4292275cc" x="148.076794" y="145.456256" style="fill: #808080; stroke: #808080"/>
     <use xlink:href="#mb4292275cc" x="246.754307" y="217.620432" style="fill: #808080; stroke: #808080"/>
     <use xlink:href="#mb4292275cc" x="232.888793" y="196.842008" style="fill: #808080; stroke: #808080"/>
     <use xlink:href="#mb4292275cc" x="264.374563" y="240.00141" style="fill: #808080; stroke: #808080"/>
     <use xlink:href="#mb4292275cc" x="185.102564" y="186.673406" style="fill: #808080; stroke: #808080"/>
     <use xlink:href="#mb4292275cc" x="171.463136" y="178.658987" style="fill: #808080; stroke: #808080"/>
     <use xlink:href="#mb4292275cc" x="257.883511" y="259.393232" style="fill: #808080; stroke: #808080"/>
     <use xlink:href="#mb4292275cc" x="253.316263" y="232.353267" style="fill: #808080; stroke: #808080"/>
     <use xlink:href="#mb4292275cc" x="214.1203" y="225.279908" style="fill: #808080; stroke: #808080"/>
     <use xlink:href="#mb4292275cc" x="231.215853" y="256.041186" style="fill: #808080; stroke: #808080"/>
     <use xlink:href="#mb4292275cc" x="226.574525" y="158.450735" style="fill: #808080; stroke: #808080"/>
     <use xlink:href="#mb4292275cc" x="236.418588" y="210.259287" style="fill: #808080; stroke: #808080"/>
     <use xlink:href="#mb4292275cc" x="266.301752" y="217.373884" style="fill: #808080; stroke: #808080"/>
     <use xlink:href="#mb4292275cc" x="169.989553" y="256.316505" style="fill: #808080; stroke: #808080"/>
     <use xlink:href="#mb4292275cc" x="254.488693" y="161.698533" style="fill: #808080; stroke: #808080"/>
     <use xlink:href="#mb4292275cc" x="246.026323" y="250.028451" style="fill: #808080; stroke: #808080"/>
     <use xlink:href="#mb4292275cc" x="273.372679" y="242.769568" style="fill: #808080; stroke: #808080"/>
     <use xlink:href="#mb4292275cc" x="203.194036" y="164.692593" style="fill: #808080; stroke: #808080"/>
     <use xlink:href="#mb4292275cc" x="274.99537" y="275.771901" style="fill: #808080; stroke: #808080"/>
     <use xlink:href="#mb4292275cc" x="279.750024" y="257.336237" style="fill: #808080; stroke: #808080"/>
     <use xlink:href="#mb4292275cc" x="253.374034" y="246.230788" style="fill: #808080; stroke: #808080"/>
     <use xlink:href="#mb4292275cc" x="201.695943" y="203.650044" style="fill: #808080; stroke: #808080"/>
     <use xlink:href="#mb4292275cc" x="288.714601" y="219.481014" style="fill: #808080; stroke: #808080"/>
     <use xlink:href="#mb4292275cc" x="273.062585" y="268.681589" style="fill: #808080; stroke: #808080"/>
     <use xlink:href="#mb4292275cc" x="243.606552" y="242.367585" style="fill: #808080; stroke: #808080"/>
     <use xlink:href="#mb4292275cc" x="223.511632" y="181.928749" style="fill: #808080; stroke: #808080"/>
     <use xlink:href="#mb4292275cc" x="247.68981" y="251.643206" style="fill: #808080; stroke: #808080"/>
     <use xlink:href="#mb4292275cc" x="267.991965" y="241.563274" style="fill: #808080; stroke: #808080"/>
     <use xlink:href="#mb4292275cc" x="240.904323" y="248.327488" style="fill: #808080; stroke: #808080"/>
     <use xlink:href="#mb4292275cc" x="264.932938" y="280.50176" style="fill: #808080; stroke: #808080"/>
     <use xlink:href="#mb4292275cc" x="238.449032" y="222.004079" style="fill: #808080; stroke: #808080"/>
     <use xlink:href="#mb4292275cc" x="158.304256" y="191.519165" style="fill: #808080; stroke: #808080"/>
     <use xlink:href="#mb4292275cc" x="263.831385" y="233.395916" style="fill: #808080; stroke: #808080"/>
     <use xlink:href="#mb4292275cc" x="146.765879" y="145.132429" style="fill: #808080; stroke: #808080"/>
     <use xlink:href="#mb4292275cc" x="236.981029" y="249.92837" style="fill: #808080; stroke: #808080"/>
     <use xlink:href="#mb4292275cc" x="234.410421" y="219.05152" style="fill: #808080; stroke: #808080"/>
     <use xlink:href="#mb4292275cc" x="217.392241" y="207.428922" style="fill: #808080; stroke: #808080"/>
     <use xlink:href="#mb4292275cc" x="254.646712" y="200.074928" style="fill: #808080; stroke: #808080"/>
     <use xlink:href="#mb4292275cc" x="103.987602" y="100.891271" style="fill: #808080; stroke: #808080"/>
    </g>
   </g>
   <g id="PathCollection_2">
    <defs>
     <path id="me7186d8153" d="M 0 3 
C 0.795609 3 1.55874 2.683901 2.12132 2.12132 
C 2.683901 1.55874 3 0.795609 3 0 
C 3 -0.795609 2.683901 -1.55874 2.12132 -2.12132 
C 1.55874 -2.683901 0.795609 -3 0 -3 
C -0.795609 -3 -1.55874 -2.683901 -2.12132 -2.12132 
C -2.683901 -1.55874 -3 -0.795609 -3 0 
C -3 0.795609 -2.683901 1.55874 -2.12132 2.12132 
C -1.55874 2.683901 -0.795609 3 0 3 
z
" style="stroke: #ff0000"/>
    </defs>
    <g clip-path="url(#pb657a72c64)">
     <use xlink:href="#me7186d8153" x="267.522991" y="308.121033" style="fill: #ff0000; stroke: #ff0000"/>
    </g>
   </g>
   <g id="PathCollection_3">
    <defs>
     <path id="m462a7e79e1" d="M 0 3 
C 0.795609 3 1.55874 2.683901 2.12132 2.12132 
C 2.683901 1.55874 3 0.795609 3 0 
C 3 -0.795609 2.683901 -1.55874 2.12132 -2.12132 
C 1.55874 -2.683901 0.795609 -3 0 -3 
C -0.795609 -3 -1.55874 -2.683901 -2.12132 -2.12132 
C -2.683901 -1.55874 -3 -0.795609 -3 0 
C -3 0.795609 -2.683901 1.55874 -2.12132 2.12132 
C -1.55874 2.683901 -0.795609 3 0 3 
z
" style="stroke: #0000ff"/>
    </defs>
    <g clip-path="url(#pb657a72c64)">
     <use xlink:href="#m462a7e79e1" x="103.987602" y="100.891271" style="fill: #0000ff; stroke: #0000ff"/>
    </g>
   </g>
   <g id="matplotlib.axis_1">
    <g id="xtick_1">
     <g id="line2d_1">
      <defs>
       <path id="m5739f5b4e7" d="M 0 0 
L 0 3.5 
" style="stroke: #000000; stroke-width: 0.8"/>
      </defs>
      <g>
       <use xlink:href="#m5739f5b4e7" x="68.25" y="320.4" style="stroke: #000000; stroke-width: 0.8"/>
      </g>
     </g>
     <g id="text_1">
      <!-- −1.0 -->
      <g transform="translate(56.108594 334.998438) scale(0.1 -0.1)">
       <defs>
        <path id="DejaVuSans-2212" d="M 678 2272 
L 4684 2272 
L 4684 1741 
L 678 1741 
L 678 2272 
z
" transform="scale(0.015625)"/>
        <path id="DejaVuSans-31" d="M 794 531 
L 1825 531 
L 1825 4091 
L 703 3866 
L 703 4441 
L 1819 4666 
L 2450 4666 
L 2450 531 
L 3481 531 
L 3481 0 
L 794 0 
L 794 531 
z
" transform="scale(0.015625)"/>
        <path id="DejaVuSans-2e" d="M 684 794 
L 1344 794 
L 1344 0 
L 684 0 
L 684 794 
z
" transform="scale(0.015625)"/>
        <path id="DejaVuSans-30" d="M 2034 4250 
Q 1547 4250 1301 3770 
Q 1056 3291 1056 2328 
Q 1056 1369 1301 889 
Q 1547 409 2034 409 
Q 2525 409 2770 889 
Q 3016 1369 3016 2328 
Q 3016 3291 2770 3770 
Q 2525 4250 2034 4250 
z
M 2034 4750 
Q 2819 4750 3233 4129 
Q 3647 3509 3647 2328 
Q 3647 1150 3233 529 
Q 2819 -91 2034 -91 
Q 1250 -91 836 529 
Q 422 1150 422 2328 
Q 422 3509 836 4129 
Q 1250 4750 2034 4750 
z
" transform="scale(0.015625)"/>
       </defs>
       <use xlink:href="#DejaVuSans-2212"/>
       <use xlink:href="#DejaVuSans-31" x="83.789062"/>
       <use xlink:href="#DejaVuSans-2e" x="147.412109"/>
       <use xlink:href="#DejaVuSans-30" x="179.199219"/>
      </g>
     </g>
    </g>
    <g id="xtick_2">
     <g id="line2d_2">
      <g>
       <use xlink:href="#m5739f5b4e7" x="126.375" y="320.4" style="stroke: #000000; stroke-width: 0.8"/>
      </g>
     </g>
     <g id="text_2">
      <!-- −0.5 -->
      <g transform="translate(114.233594 334.998438) scale(0.1 -0.1)">
       <defs>
        <path id="DejaVuSans-35" d="M 691 4666 
L 3169 4666 
L 3169 4134 
L 1269 4134 
L 1269 2991 
Q 1406 3038 1543 3061 
Q 1681 3084 1819 3084 
Q 2600 3084 3056 2656 
Q 3513 2228 3513 1497 
Q 3513 744 3044 326 
Q 2575 -91 1722 -91 
Q 1428 -91 1123 -41 
Q 819 9 494 109 
L 494 744 
Q 775 591 1075 516 
Q 1375 441 1709 441 
Q 2250 441 2565 725 
Q 2881 1009 2881 1497 
Q 2881 1984 2565 2268 
Q 2250 2553 1709 2553 
Q 1456 2553 1204 2497 
Q 953 2441 691 2322 
L 691 4666 
z
" transform="scale(0.015625)"/>
       </defs>
       <use xlink:href="#DejaVuSans-2212"/>
       <use xlink:href="#DejaVuSans-30" x="83.789062"/>
       <use xlink:href="#DejaVuSans-2e" x="147.412109"/>
       <use xlink:href="#DejaVuSans-35" x="179.199219"/>
      </g>
     </g>
    </g>
    <g id="xtick_3">
     <g id="line2d_3">
      <g>
       <use xlink:href="#m5739f5b4e7" x="184.5" y="320.4" style="stroke: #000000; stroke-width: 0.8"/>
      </g>
     </g>
     <g id="text_3">
      <!-- 0.0 -->
      <g transform="translate(176.548438 334.998438) scale(0.1 -0.1)">
       <use xlink:href="#DejaVuSans-30"/>
       <use xlink:href="#DejaVuSans-2e" x="63.623047"/>
       <use xlink:href="#DejaVuSans-30" x="95.410156"/>
      </g>
     </g>
    </g>
    <g id="xtick_4">
     <g id="line2d_4">
      <g>
       <use xlink:href="#m5739f5b4e7" x="242.625" y="320.4" style="stroke: #000000; stroke-width: 0.8"/>
      </g>
     </g>
     <g id="text_4">
      <!-- 0.5 -->
      <g transform="translate(234.673438 334.998438) scale(0.1 -0.1)">
       <use xlink:href="#DejaVuSans-30"/>
       <use xlink:href="#DejaVuSans-2e" x="63.623047"/>
       <use xlink:href="#DejaVuSans-35" x="95.410156"/>
      </g>
     </g>
    </g>
    <g id="xtick_5">
     <g id="line2d_5">
      <g>
       <use xlink:href="#m5739f5b4e7" x="300.75" y="320.4" style="stroke: #000000; stroke-width: 0.8"/>
      </g>
     </g>
     <g id="text_5">
      <!-- 1.0 -->
      <g transform="translate(292.798437 334.998438) scale(0.1 -0.1)">
       <use xlink:href="#DejaVuSans-31"/>
       <use xlink:href="#DejaVuSans-2e" x="63.623047"/>
       <use xlink:href="#DejaVuSans-30" x="95.410156"/>
      </g>
     </g>
    </g>
    <g id="text_6">
     <!-- Locomotion (median z-score compound) -->
     <g transform="translate(83.729687 348.676562) scale(0.1 -0.1)">
      <defs>
       <path id="DejaVuSans-4c" d="M 628 4666 
L 1259 4666 
L 1259 531 
L 3531 531 
L 3531 0 
L 628 0 
L 628 4666 
z
" transform="scale(0.015625)"/>
       <path id="DejaVuSans-6f" d="M 1959 3097 
Q 1497 3097 1228 2736 
Q 959 2375 959 1747 
Q 959 1119 1226 758 
Q 1494 397 1959 397 
Q 2419 397 2687 759 
Q 2956 1122 2956 1747 
Q 2956 2369 2687 2733 
Q 2419 3097 1959 3097 
z
M 1959 3584 
Q 2709 3584 3137 3096 
Q 3566 2609 3566 1747 
Q 3566 888 3137 398 
Q 2709 -91 1959 -91 
Q 1206 -91 779 398 
Q 353 888 353 1747 
Q 353 2609 779 3096 
Q 1206 3584 1959 3584 
z
" transform="scale(0.015625)"/>
       <path id="DejaVuSans-63" d="M 3122 3366 
L 3122 2828 
Q 2878 2963 2633 3030 
Q 2388 3097 2138 3097 
Q 1578 3097 1268 2742 
Q 959 2388 959 1747 
Q 959 1106 1268 751 
Q 1578 397 2138 397 
Q 2388 397 2633 464 
Q 2878 531 3122 666 
L 3122 134 
Q 2881 22 2623 -34 
Q 2366 -91 2075 -91 
Q 1284 -91 818 406 
Q 353 903 353 1747 
Q 353 2603 823 3093 
Q 1294 3584 2113 3584 
Q 2378 3584 2631 3529 
Q 2884 3475 3122 3366 
z
" transform="scale(0.015625)"/>
       <path id="DejaVuSans-6d" d="M 3328 2828 
Q 3544 3216 3844 3400 
Q 4144 3584 4550 3584 
Q 5097 3584 5394 3201 
Q 5691 2819 5691 2113 
L 5691 0 
L 5113 0 
L 5113 2094 
Q 5113 2597 4934 2840 
Q 4756 3084 4391 3084 
Q 3944 3084 3684 2787 
Q 3425 2491 3425 1978 
L 3425 0 
L 2847 0 
L 2847 2094 
Q 2847 2600 2669 2842 
Q 2491 3084 2119 3084 
Q 1678 3084 1418 2786 
Q 1159 2488 1159 1978 
L 1159 0 
L 581 0 
L 581 3500 
L 1159 3500 
L 1159 2956 
Q 1356 3278 1631 3431 
Q 1906 3584 2284 3584 
Q 2666 3584 2933 3390 
Q 3200 3197 3328 2828 
z
" transform="scale(0.015625)"/>
       <path id="DejaVuSans-74" d="M 1172 4494 
L 1172 3500 
L 2356 3500 
L 2356 3053 
L 1172 3053 
L 1172 1153 
Q 1172 725 1289 603 
Q 1406 481 1766 481 
L 2356 481 
L 2356 0 
L 1766 0 
Q 1100 0 847 248 
Q 594 497 594 1153 
L 594 3053 
L 172 3053 
L 172 3500 
L 594 3500 
L 594 4494 
L 1172 4494 
z
" transform="scale(0.015625)"/>
       <path id="DejaVuSans-69" d="M 603 3500 
L 1178 3500 
L 1178 0 
L 603 0 
L 603 3500 
z
M 603 4863 
L 1178 4863 
L 1178 4134 
L 603 4134 
L 603 4863 
z
" transform="scale(0.015625)"/>
       <path id="DejaVuSans-6e" d="M 3513 2113 
L 3513 0 
L 2938 0 
L 2938 2094 
Q 2938 2591 2744 2837 
Q 2550 3084 2163 3084 
Q 1697 3084 1428 2787 
Q 1159 2491 1159 1978 
L 1159 0 
L 581 0 
L 581 3500 
L 1159 3500 
L 1159 2956 
Q 1366 3272 1645 3428 
Q 1925 3584 2291 3584 
Q 2894 3584 3203 3211 
Q 3513 2838 3513 2113 
z
" transform="scale(0.015625)"/>
       <path id="DejaVuSans-20" transform="scale(0.015625)"/>
       <path id="DejaVuSans-28" d="M 1984 4856 
Q 1566 4138 1362 3434 
Q 1159 2731 1159 2009 
Q 1159 1288 1364 580 
Q 1569 -128 1984 -844 
L 1484 -844 
Q 1016 -109 783 600 
Q 550 1309 550 2009 
Q 550 2706 781 3412 
Q 1013 4119 1484 4856 
L 1984 4856 
z
" transform="scale(0.015625)"/>
       <path id="DejaVuSans-65" d="M 3597 1894 
L 3597 1613 
L 953 1613 
Q 991 1019 1311 708 
Q 1631 397 2203 397 
Q 2534 397 2845 478 
Q 3156 559 3463 722 
L 3463 178 
Q 3153 47 2828 -22 
Q 2503 -91 2169 -91 
Q 1331 -91 842 396 
Q 353 884 353 1716 
Q 353 2575 817 3079 
Q 1281 3584 2069 3584 
Q 2775 3584 3186 3129 
Q 3597 2675 3597 1894 
z
M 3022 2063 
Q 3016 2534 2758 2815 
Q 2500 3097 2075 3097 
Q 1594 3097 1305 2825 
Q 1016 2553 972 2059 
L 3022 2063 
z
" transform="scale(0.015625)"/>
       <path id="DejaVuSans-64" d="M 2906 2969 
L 2906 4863 
L 3481 4863 
L 3481 0 
L 2906 0 
L 2906 525 
Q 2725 213 2448 61 
Q 2172 -91 1784 -91 
Q 1150 -91 751 415 
Q 353 922 353 1747 
Q 353 2572 751 3078 
Q 1150 3584 1784 3584 
Q 2172 3584 2448 3432 
Q 2725 3281 2906 2969 
z
M 947 1747 
Q 947 1113 1208 752 
Q 1469 391 1925 391 
Q 2381 391 2643 752 
Q 2906 1113 2906 1747 
Q 2906 2381 2643 2742 
Q 2381 3103 1925 3103 
Q 1469 3103 1208 2742 
Q 947 2381 947 1747 
z
" transform="scale(0.015625)"/>
       <path id="DejaVuSans-61" d="M 2194 1759 
Q 1497 1759 1228 1600 
Q 959 1441 959 1056 
Q 959 750 1161 570 
Q 1363 391 1709 391 
Q 2188 391 2477 730 
Q 2766 1069 2766 1631 
L 2766 1759 
L 2194 1759 
z
M 3341 1997 
L 3341 0 
L 2766 0 
L 2766 531 
Q 2569 213 2275 61 
Q 1981 -91 1556 -91 
Q 1019 -91 701 211 
Q 384 513 384 1019 
Q 384 1609 779 1909 
Q 1175 2209 1959 2209 
L 2766 2209 
L 2766 2266 
Q 2766 2663 2505 2880 
Q 2244 3097 1772 3097 
Q 1472 3097 1187 3025 
Q 903 2953 641 2809 
L 641 3341 
Q 956 3463 1253 3523 
Q 1550 3584 1831 3584 
Q 2591 3584 2966 3190 
Q 3341 2797 3341 1997 
z
" transform="scale(0.015625)"/>
       <path id="DejaVuSans-7a" d="M 353 3500 
L 3084 3500 
L 3084 2975 
L 922 459 
L 3084 459 
L 3084 0 
L 275 0 
L 275 525 
L 2438 3041 
L 353 3041 
L 353 3500 
z
" transform="scale(0.015625)"/>
       <path id="DejaVuSans-2d" d="M 313 2009 
L 1997 2009 
L 1997 1497 
L 313 1497 
L 313 2009 
z
" transform="scale(0.015625)"/>
       <path id="DejaVuSans-73" d="M 2834 3397 
L 2834 2853 
Q 2591 2978 2328 3040 
Q 2066 3103 1784 3103 
Q 1356 3103 1142 2972 
Q 928 2841 928 2578 
Q 928 2378 1081 2264 
Q 1234 2150 1697 2047 
L 1894 2003 
Q 2506 1872 2764 1633 
Q 3022 1394 3022 966 
Q 3022 478 2636 193 
Q 2250 -91 1575 -91 
Q 1294 -91 989 -36 
Q 684 19 347 128 
L 347 722 
Q 666 556 975 473 
Q 1284 391 1588 391 
Q 1994 391 2212 530 
Q 2431 669 2431 922 
Q 2431 1156 2273 1281 
Q 2116 1406 1581 1522 
L 1381 1569 
Q 847 1681 609 1914 
Q 372 2147 372 2553 
Q 372 3047 722 3315 
Q 1072 3584 1716 3584 
Q 2034 3584 2315 3537 
Q 2597 3491 2834 3397 
z
" transform="scale(0.015625)"/>
       <path id="DejaVuSans-72" d="M 2631 2963 
Q 2534 3019 2420 3045 
Q 2306 3072 2169 3072 
Q 1681 3072 1420 2755 
Q 1159 2438 1159 1844 
L 1159 0 
L 581 0 
L 581 3500 
L 1159 3500 
L 1159 2956 
Q 1341 3275 1631 3429 
Q 1922 3584 2338 3584 
Q 2397 3584 2469 3576 
Q 2541 3569 2628 3553 
L 2631 2963 
z
" transform="scale(0.015625)"/>
       <path id="DejaVuSans-70" d="M 1159 525 
L 1159 -1331 
L 581 -1331 
L 581 3500 
L 1159 3500 
L 1159 2969 
Q 1341 3281 1617 3432 
Q 1894 3584 2278 3584 
Q 2916 3584 3314 3078 
Q 3713 2572 3713 1747 
Q 3713 922 3314 415 
Q 2916 -91 2278 -91 
Q 1894 -91 1617 61 
Q 1341 213 1159 525 
z
M 3116 1747 
Q 3116 2381 2855 2742 
Q 2594 3103 2138 3103 
Q 1681 3103 1420 2742 
Q 1159 2381 1159 1747 
Q 1159 1113 1420 752 
Q 1681 391 2138 391 
Q 2594 391 2855 752 
Q 3116 1113 3116 1747 
z
" transform="scale(0.015625)"/>
       <path id="DejaVuSans-75" d="M 544 1381 
L 544 3500 
L 1119 3500 
L 1119 1403 
Q 1119 906 1312 657 
Q 1506 409 1894 409 
Q 2359 409 2629 706 
Q 2900 1003 2900 1516 
L 2900 3500 
L 3475 3500 
L 3475 0 
L 2900 0 
L 2900 538 
Q 2691 219 2414 64 
Q 2138 -91 1772 -91 
Q 1169 -91 856 284 
Q 544 659 544 1381 
z
M 1991 3584 
L 1991 3584 
z
" transform="scale(0.015625)"/>
       <path id="DejaVuSans-29" d="M 513 4856 
L 1013 4856 
Q 1481 4119 1714 3412 
Q 1947 2706 1947 2009 
Q 1947 1309 1714 600 
Q 1481 -109 1013 -844 
L 513 -844 
Q 928 -128 1133 580 
Q 1338 1288 1338 2009 
Q 1338 2731 1133 3434 
Q 928 4138 513 4856 
z
" transform="scale(0.015625)"/>
      </defs>
      <use xlink:href="#DejaVuSans-4c"/>
      <use xlink:href="#DejaVuSans-6f" x="53.962891"/>
      <use xlink:href="#DejaVuSans-63" x="115.144531"/>
      <use xlink:href="#DejaVuSans-6f" x="170.125"/>
      <use xlink:href="#DejaVuSans-6d" x="231.306641"/>
      <use xlink:href="#DejaVuSans-6f" x="328.71875"/>
      <use xlink:href="#DejaVuSans-74" x="389.900391"/>
      <use xlink:href="#DejaVuSans-69" x="429.109375"/>
      <use xlink:href="#DejaVuSans-6f" x="456.892578"/>
      <use xlink:href="#DejaVuSans-6e" x="518.074219"/>
      <use xlink:href="#DejaVuSans-20" x="581.453125"/>
      <use xlink:href="#DejaVuSans-28" x="613.240234"/>
      <use xlink:href="#DejaVuSans-6d" x="652.253906"/>
      <use xlink:href="#DejaVuSans-65" x="749.666016"/>
      <use xlink:href="#DejaVuSans-64" x="811.189453"/>
      <use xlink:href="#DejaVuSans-69" x="874.666016"/>
      <use xlink:href="#DejaVuSans-61" x="902.449219"/>
      <use xlink:href="#DejaVuSans-6e" x="963.728516"/>
      <use xlink:href="#DejaVuSans-20" x="1027.107422"/>
      <use xlink:href="#DejaVuSans-7a" x="1058.894531"/>
      <use xlink:href="#DejaVuSans-2d" x="1111.384766"/>
      <use xlink:href="#DejaVuSans-73" x="1147.46875"/>
      <use xlink:href="#DejaVuSans-63" x="1199.568359"/>
      <use xlink:href="#DejaVuSans-6f" x="1254.548828"/>
      <use xlink:href="#DejaVuSans-72" x="1315.730469"/>
      <use xlink:href="#DejaVuSans-65" x="1354.59375"/>
      <use xlink:href="#DejaVuSans-20" x="1416.117188"/>
      <use xlink:href="#DejaVuSans-63" x="1447.904297"/>
      <use xlink:href="#DejaVuSans-6f" x="1502.884766"/>
      <use xlink:href="#DejaVuSans-6d" x="1564.066406"/>
      <use xlink:href="#DejaVuSans-70" x="1661.478516"/>
      <use xlink:href="#DejaVuSans-6f" x="1724.955078"/>
      <use xlink:href="#DejaVuSans-75" x="1786.136719"/>
      <use xlink:href="#DejaVuSans-6e" x="1849.515625"/>
      <use xlink:href="#DejaVuSans-64" x="1912.894531"/>
      <use xlink:href="#DejaVuSans-29" x="1976.371094"/>
     </g>
    </g>
   </g>
   <g id="matplotlib.axis_2">
    <g id="ytick_1">
     <g id="line2d_6">
      <defs>
       <path id="mbbf5fde230" d="M 0 0 
L -3.5 0 
" style="stroke: #000000; stroke-width: 0.8"/>
      </defs>
      <g>
       <use xlink:href="#mbbf5fde230" x="45" y="297.3" style="stroke: #000000; stroke-width: 0.8"/>
      </g>
     </g>
     <g id="text_7">
      <!-- −1.0 -->
      <g transform="translate(13.717187 301.099219) scale(0.1 -0.1)">
       <use xlink:href="#DejaVuSans-2212"/>
       <use xlink:href="#DejaVuSans-31" x="83.789062"/>
       <use xlink:href="#DejaVuSans-2e" x="147.412109"/>
       <use xlink:href="#DejaVuSans-30" x="179.199219"/>
      </g>
     </g>
    </g>
    <g id="ytick_2">
     <g id="line2d_7">
      <g>
       <use xlink:href="#mbbf5fde230" x="45" y="239.55" style="stroke: #000000; stroke-width: 0.8"/>
      </g>
     </g>
     <g id="text_8">
      <!-- −0.5 -->
      <g transform="translate(13.717187 243.349219) scale(0.1 -0.1)">
       <use xlink:href="#DejaVuSans-2212"/>
       <use xlink:href="#DejaVuSans-30" x="83.789062"/>
       <use xlink:href="#DejaVuSans-2e" x="147.412109"/>
       <use xlink:href="#DejaVuSans-35" x="179.199219"/>
      </g>
     </g>
    </g>
    <g id="ytick_3">
     <g id="line2d_8">
      <g>
       <use xlink:href="#mbbf5fde230" x="45" y="181.8" style="stroke: #000000; stroke-width: 0.8"/>
      </g>
     </g>
     <g id="text_9">
      <!-- 0.0 -->
      <g transform="translate(22.096875 185.599219) scale(0.1 -0.1)">
       <use xlink:href="#DejaVuSans-30"/>
       <use xlink:href="#DejaVuSans-2e" x="63.623047"/>
       <use xlink:href="#DejaVuSans-30" x="95.410156"/>
      </g>
     </g>
    </g>
    <g id="ytick_4">
     <g id="line2d_9">
      <g>
       <use xlink:href="#mbbf5fde230" x="45" y="124.05" style="stroke: #000000; stroke-width: 0.8"/>
      </g>
     </g>
     <g id="text_10">
      <!-- 0.5 -->
      <g transform="translate(22.096875 127.849219) scale(0.1 -0.1)">
       <use xlink:href="#DejaVuSans-30"/>
       <use xlink:href="#DejaVuSans-2e" x="63.623047"/>
       <use xlink:href="#DejaVuSans-35" x="95.410156"/>
      </g>
     </g>
    </g>
    <g id="ytick_5">
     <g id="line2d_10">
      <g>
       <use xlink:href="#mbbf5fde230" x="45" y="66.3" style="stroke: #000000; stroke-width: 0.8"/>
      </g>
     </g>
     <g id="text_11">
      <!-- 1.0 -->
      <g transform="translate(22.096875 70.099219) scale(0.1 -0.1)">
       <use xlink:href="#DejaVuSans-31"/>
       <use xlink:href="#DejaVuSans-2e" x="63.623047"/>
       <use xlink:href="#DejaVuSans-30" x="95.410156"/>
      </g>
     </g>
    </g>
    <g id="text_12">
     <!-- Immobility (median z-score compound) -->
     <g transform="translate(7.6375 280.032812) rotate(-90) scale(0.1 -0.1)">
      <defs>
       <path id="DejaVuSans-49" d="M 628 4666 
L 1259 4666 
L 1259 0 
L 628 0 
L 628 4666 
z
" transform="scale(0.015625)"/>
       <path id="DejaVuSans-62" d="M 3116 1747 
Q 3116 2381 2855 2742 
Q 2594 3103 2138 3103 
Q 1681 3103 1420 2742 
Q 1159 2381 1159 1747 
Q 1159 1113 1420 752 
Q 1681 391 2138 391 
Q 2594 391 2855 752 
Q 3116 1113 3116 1747 
z
M 1159 2969 
Q 1341 3281 1617 3432 
Q 1894 3584 2278 3584 
Q 2916 3584 3314 3078 
Q 3713 2572 3713 1747 
Q 3713 922 3314 415 
Q 2916 -91 2278 -91 
Q 1894 -91 1617 61 
Q 1341 213 1159 525 
L 1159 0 
L 581 0 
L 581 4863 
L 1159 4863 
L 1159 2969 
z
" transform="scale(0.015625)"/>
       <path id="DejaVuSans-6c" d="M 603 4863 
L 1178 4863 
L 1178 0 
L 603 0 
L 603 4863 
z
" transform="scale(0.015625)"/>
       <path id="DejaVuSans-79" d="M 2059 -325 
Q 1816 -950 1584 -1140 
Q 1353 -1331 966 -1331 
L 506 -1331 
L 506 -850 
L 844 -850 
Q 1081 -850 1212 -737 
Q 1344 -625 1503 -206 
L 1606 56 
L 191 3500 
L 800 3500 
L 1894 763 
L 2988 3500 
L 3597 3500 
L 2059 -325 
z
" transform="scale(0.015625)"/>
      </defs>
      <use xlink:href="#DejaVuSans-49"/>
      <use xlink:href="#DejaVuSans-6d" x="29.492188"/>
      <use xlink:href="#DejaVuSans-6d" x="126.904297"/>
      <use xlink:href="#DejaVuSans-6f" x="224.316406"/>
      <use xlink:href="#DejaVuSans-62" x="285.498047"/>
      <use xlink:href="#DejaVuSans-69" x="348.974609"/>
      <use xlink:href="#DejaVuSans-6c" x="376.757812"/>
      <use xlink:href="#DejaVuSans-69" x="404.541016"/>
      <use xlink:href="#DejaVuSans-74" x="432.324219"/>
      <use xlink:href="#DejaVuSans-79" x="471.533203"/>
      <use xlink:href="#DejaVuSans-20" x="530.712891"/>
      <use xlink:href="#DejaVuSans-28" x="562.5"/>
      <use xlink:href="#DejaVuSans-6d" x="601.513672"/>
      <use xlink:href="#DejaVuSans-65" x="698.925781"/>
      <use xlink:href="#DejaVuSans-64" x="760.449219"/>
      <use xlink:href="#DejaVuSans-69" x="823.925781"/>
      <use xlink:href="#DejaVuSans-61" x="851.708984"/>
      <use xlink:href="#DejaVuSans-6e" x="912.988281"/>
      <use xlink:href="#DejaVuSans-20" x="976.367188"/>
      <use xlink:href="#DejaVuSans-7a" x="1008.154297"/>
      <use xlink:href="#DejaVuSans-2d" x="1060.644531"/>
      <use xlink:href="#DejaVuSans-73" x="1096.728516"/>
      <use xlink:href="#DejaVuSans-63" x="1148.828125"/>
      <use xlink:href="#DejaVuSans-6f" x="1203.808594"/>
      <use xlink:href="#DejaVuSans-72" x="1264.990234"/>
      <use xlink:href="#DejaVuSans-65" x="1303.853516"/>
      <use xlink:href="#DejaVuSans-20" x="1365.376953"/>
      <use xlink:href="#DejaVuSans-63" x="1397.164062"/>
      <use xlink:href="#DejaVuSans-6f" x="1452.144531"/>
      <use xlink:href="#DejaVuSans-6d" x="1513.326172"/>
      <use xlink:href="#DejaVuSans-70" x="1610.738281"/>
      <use xlink:href="#DejaVuSans-6f" x="1674.214844"/>
      <use xlink:href="#DejaVuSans-75" x="1735.396484"/>
      <use xlink:href="#DejaVuSans-6e" x="1798.775391"/>
      <use xlink:href="#DejaVuSans-64" x="1862.154297"/>
      <use xlink:href="#DejaVuSans-29" x="1925.630859"/>
     </g>
    </g>
   </g>
   <g id="patch_3">
    <path d="M 45 320.4 
L 45 43.2 
" style="fill: none; stroke: #000000; stroke-width: 0.8; stroke-linejoin: miter; stroke-linecap: square"/>
   </g>
   <g id="patch_4">
    <path d="M 324 320.4 
L 324 43.2 
" style="fill: none; stroke: #000000; stroke-width: 0.8; stroke-linejoin: miter; stroke-linecap: square"/>
   </g>
   <g id="patch_5">
    <path d="M 45 320.4 
L 324 320.4 
" style="fill: none; stroke: #000000; stroke-width: 0.8; stroke-linejoin: miter; stroke-linecap: square"/>
   </g>
   <g id="patch_6">
    <path d="M 45 43.2 
L 324 43.2 
" style="fill: none; stroke: #000000; stroke-width: 0.8; stroke-linejoin: miter; stroke-linecap: square"/>
   </g>
   <g id="legend_1">
    <g id="patch_7">
     <path d="M 135.370312 80.55625 
L 317 80.55625 
Q 319 80.55625 319 78.55625 
L 319 50.2 
Q 319 48.2 317 48.2 
L 135.370312 48.2 
Q 133.370312 48.2 133.370312 50.2 
L 133.370312 78.55625 
Q 133.370312 80.55625 135.370312 80.55625 
z
" style="fill: #ffffff; opacity: 0.8; stroke: #cccccc; stroke-linejoin: miter"/>
    </g>
    <g id="PathCollection_4">
     <g>
      <use xlink:href="#me7186d8153" x="147.370312" y="57.173437" style="fill: #ff0000; stroke: #ff0000"/>
     </g>
    </g>
    <g id="text_13">
     <!-- Histamine -->
     <g transform="translate(165.370312 59.798437) scale(0.1 -0.1)">
      <defs>
       <path id="DejaVuSans-48" d="M 628 4666 
L 1259 4666 
L 1259 2753 
L 3553 2753 
L 3553 4666 
L 4184 4666 
L 4184 0 
L 3553 0 
L 3553 2222 
L 1259 2222 
L 1259 0 
L 628 0 
L 628 4666 
z
" transform="scale(0.015625)"/>
      </defs>
      <use xlink:href="#DejaVuSans-48"/>
      <use xlink:href="#DejaVuSans-69" x="75.195312"/>
      <use xlink:href="#DejaVuSans-73" x="102.978516"/>
      <use xlink:href="#DejaVuSans-74" x="155.078125"/>
      <use xlink:href="#DejaVuSans-61" x="194.287109"/>
      <use xlink:href="#DejaVuSans-6d" x="255.566406"/>
      <use xlink:href="#DejaVuSans-69" x="352.978516"/>
      <use xlink:href="#DejaVuSans-6e" x="380.761719"/>
      <use xlink:href="#DejaVuSans-65" x="444.140625"/>
     </g>
    </g>
    <g id="PathCollection_5">
     <g>
      <use xlink:href="#m462a7e79e1" x="147.370312" y="71.851562" style="fill: #0000ff; stroke: #0000ff"/>
     </g>
    </g>
    <g id="text_14">
     <!-- trans-3-Hydroxycinnamic acid -->
     <g transform="translate(165.370312 74.476562) scale(0.1 -0.1)">
      <defs>
       <path id="DejaVuSans-33" d="M 2597 2516 
Q 3050 2419 3304 2112 
Q 3559 1806 3559 1356 
Q 3559 666 3084 287 
Q 2609 -91 1734 -91 
Q 1441 -91 1130 -33 
Q 819 25 488 141 
L 488 750 
Q 750 597 1062 519 
Q 1375 441 1716 441 
Q 2309 441 2620 675 
Q 2931 909 2931 1356 
Q 2931 1769 2642 2001 
Q 2353 2234 1838 2234 
L 1294 2234 
L 1294 2753 
L 1863 2753 
Q 2328 2753 2575 2939 
Q 2822 3125 2822 3475 
Q 2822 3834 2567 4026 
Q 2313 4219 1838 4219 
Q 1578 4219 1281 4162 
Q 984 4106 628 3988 
L 628 4550 
Q 988 4650 1302 4700 
Q 1616 4750 1894 4750 
Q 2613 4750 3031 4423 
Q 3450 4097 3450 3541 
Q 3450 3153 3228 2886 
Q 3006 2619 2597 2516 
z
" transform="scale(0.015625)"/>
       <path id="DejaVuSans-78" d="M 3513 3500 
L 2247 1797 
L 3578 0 
L 2900 0 
L 1881 1375 
L 863 0 
L 184 0 
L 1544 1831 
L 300 3500 
L 978 3500 
L 1906 2253 
L 2834 3500 
L 3513 3500 
z
" transform="scale(0.015625)"/>
      </defs>
      <use xlink:href="#DejaVuSans-74"/>
      <use xlink:href="#DejaVuSans-72" x="39.208984"/>
      <use xlink:href="#DejaVuSans-61" x="80.322266"/>
      <use xlink:href="#DejaVuSans-6e" x="141.601562"/>
      <use xlink:href="#DejaVuSans-73" x="204.980469"/>
      <use xlink:href="#DejaVuSans-2d" x="257.080078"/>
      <use xlink:href="#DejaVuSans-33" x="293.164062"/>
      <use xlink:href="#DejaVuSans-2d" x="356.787109"/>
      <use xlink:href="#DejaVuSans-48" x="392.871094"/>
      <use xlink:href="#DejaVuSans-79" x="468.066406"/>
      <use xlink:href="#DejaVuSans-64" x="527.246094"/>
      <use xlink:href="#DejaVuSans-72" x="590.722656"/>
      <use xlink:href="#DejaVuSans-6f" x="629.585938"/>
      <use xlink:href="#DejaVuSans-78" x="687.642578"/>
      <use xlink:href="#DejaVuSans-79" x="746.822266"/>
      <use xlink:href="#DejaVuSans-63" x="806.001953"/>
      <use xlink:href="#DejaVuSans-69" x="860.982422"/>
      <use xlink:href="#DejaVuSans-6e" x="888.765625"/>
      <use xlink:href="#DejaVuSans-6e" x="952.144531"/>
      <use xlink:href="#DejaVuSans-61" x="1015.523438"/>
      <use xlink:href="#DejaVuSans-6d" x="1076.802734"/>
      <use xlink:href="#DejaVuSans-69" x="1174.214844"/>
      <use xlink:href="#DejaVuSans-63" x="1201.998047"/>
      <use xlink:href="#DejaVuSans-20" x="1256.978516"/>
      <use xlink:href="#DejaVuSans-61" x="1288.765625"/>
      <use xlink:href="#DejaVuSans-63" x="1350.044922"/>
      <use xlink:href="#DejaVuSans-69" x="1405.025391"/>
      <use xlink:href="#DejaVuSans-64" x="1432.808594"/>
     </g>
    </g>
   </g>
  </g>
 </g>
 <defs>
  <clipPath id="pb657a72c64">
   <rect x="45" y="43.2" width="279" height="277.2"/>
  </clipPath>
 </defs>
</svg>
