<?xml version="1.0" encoding="utf-8" standalone="no"?>
<!DOCTYPE svg PUBLIC "-//W3C//DTD SVG 1.1//EN"
  "http://www.w3.org/Graphics/SVG/1.1/DTD/svg11.dtd">
<svg xmlns:xlink="http://www.w3.org/1999/xlink" width="360pt" height="360pt" viewBox="0 0 360 360" xmlns="http://www.w3.org/2000/svg" version="1.1">
 <metadata>
  <rdf:RDF xmlns:dc="http://purl.org/dc/elements/1.1/" xmlns:cc="http://creativecommons.org/ns#" xmlns:rdf="http://www.w3.org/1999/02/22-rdf-syntax-ns#">
   <cc:Work>
    <dc:type rdf:resource="http://purl.org/dc/dcmitype/StillImage"/>
    <dc:date>2025-11-21T09:15:07.381600</dc:date>
    <dc:format>image/svg+xml</dc:format>
    <dc:creator>
     <cc:Agent>
      <dc:title>Matplotlib v3.9.1, https://matplotlib.org/</dc:title>
     </cc:Agent>
    </dc:creator>
   </cc:Work>
  </rdf:RDF>
 </metadata>
 <defs>
  <style type="text/css">*{stroke-linejoin: round; stroke-linecap: butt}</style>
 </defs>
 <g id="figure_1">
  <g id="patch_1">
   <path d="M 0 360 
L 360 360 
L 360 0 
L 0 0 
z
" style="fill: #ffffff"/>
  </g>
  <g id="axes_1">
   <g id="patch_2">
    <path d="M 45 320.4 
L 324 320.4 
L 324 43.2 
L 45 43.2 
z
" style="fill: #ffffff"/>
   </g>
   <g id="PathCollection_1">
    <defs>
     <path id="m82e941baf0" d="M 0 3 
C 0.795609 3 1.55874 2.683901 2.12132 2.12132 
C 2.683901 1.55874 3 0.795609 3 0 
C 3 -0.795609 2.683901 -1.55874 2.12132 -2.12132 
C 1.55874 -2.683901 0.795609 -3 0 -3 
C -0.795609 -3 -1.55874 -2.683901 -2.12132 -2.12132 
C -2.683901 -1.55874 -3 -0.795609 -3 0 
C -3 0.795609 -2.683901 1.55874 -2.12132 2.12132 
C -1.55874 2.683901 -0.795609 3 0 3 
z
" style="stroke: #808080"/>
    </defs>
    <g clip-path="url(#p53abc8ddf7)">
     <use xlink:href="#m82e941baf0" x="170.452382" y="177.722322" style="fill: #808080; stroke: #808080"/>
     <use xlink:href="#m82e941baf0" x="186.406653" y="192.280471" style="fill: #808080; stroke: #808080"/>
     <use xlink:href="#m82e941baf0" x="150.442537" y="162.22978" style="fill: #808080; stroke: #808080"/>
     <use xlink:href="#m82e941baf0" x="169.259668" y="227.298222" style="fill: #808080; stroke: #808080"/>
     <use xlink:href="#m82e941baf0" x="223.113437" y="237.57407" style="fill: #808080; stroke: #808080"/>
     <use xlink:href="#m82e941baf0" x="209.616255" y="155.351231" style="fill: #808080; stroke: #808080"/>
     <use xlink:href="#m82e941baf0" x="160.941993" y="181.469552" style="fill: #808080; stroke: #808080"/>
     <use xlink:href="#m82e941baf0" x="204.417102" y="180.944087" style="fill: #808080; stroke: #808080"/>
     <use xlink:href="#m82e941baf0" x="178.89062" y="108.632494" style="fill: #808080; stroke: #808080"/>
     <use xlink:href="#m82e941baf0" x="265.1098" y="242.546244" style="fill: #808080; stroke: #808080"/>
     <use xlink:href="#m82e941baf0" x="187.377878" y="197.90245" style="fill: #808080; stroke: #808080"/>
     <use xlink:href="#m82e941baf0" x="282.803661" y="230.662905" style="fill: #808080; stroke: #808080"/>
     <use xlink:href="#m82e941baf0" x="291.272455" y="276.256561" style="fill: #808080; stroke: #808080"/>
     <use xlink:href="#m82e941baf0" x="165.118455" y="177.332041" style="fill: #808080; stroke: #808080"/>
     <use xlink:href="#m82e941baf0" x="259.141432" y="180.355641" style="fill: #808080; stroke: #808080"/>
     <use xlink:href="#m82e941baf0" x="117.896387" y="157.444636" style="fill: #808080; stroke: #808080"/>
     <use xlink:href="#m82e941baf0" x="234.323037" y="246.5655" style="fill: #808080; stroke: #808080"/>
     <use xlink:href="#m82e941baf0" x="259.663363" y="253.039225" style="fill: #808080; stroke: #808080"/>
     <use xlink:href="#m82e941baf0" x="147.728261" y="187.08732" style="fill: #808080; stroke: #808080"/>
     <use xlink:href="#m82e941baf0" x="252.711668" y="235.38806" style="fill: #808080; stroke: #808080"/>
     <use xlink:href="#m82e941baf0" x="220.1294" y="234.871295" style="fill: #808080; stroke: #808080"/>
     <use xlink:href="#m82e941baf0" x="106.921668" y="116.769515" style="fill: #808080; stroke: #808080"/>
     <use xlink:href="#m82e941baf0" x="132.783458" y="118.724107" style="fill: #808080; stroke: #808080"/>
     <use xlink:href="#m82e941baf0" x="255.798003" y="271.418072" style="fill: #808080; stroke: #808080"/>
     <use xlink:href="#m82e941baf0" x="252.164543" y="253.681132" style="fill: #808080; stroke: #808080"/>
     <use xlink:href="#m82e941baf0" x="208.404055" y="269.24125" style="fill: #808080; stroke: #808080"/>
     <use xlink:href="#m82e941baf0" x="262.274728" y="295.641524" style="fill: #808080; stroke: #808080"/>
     <use xlink:href="#m82e941baf0" x="226.310678" y="248.666945" style="fill: #808080; stroke: #808080"/>
     <use xlink:href="#m82e941baf0" x="234.871483" y="248.715409" style="fill: #808080; stroke: #808080"/>
     <use xlink:href="#m82e941baf0" x="242.78004" y="230.025537" style="fill: #808080; stroke: #808080"/>
     <use xlink:href="#m82e941baf0" x="230.213698" y="250.689961" style="fill: #808080; stroke: #808080"/>
     <use xlink:href="#m82e941baf0" x="260.146335" y="249.45752" style="fill: #808080; stroke: #808080"/>
     <use xlink:href="#m82e941baf0" x="269.300761" y="258.379813" style="fill: #808080; stroke: #808080"/>
     <use xlink:href="#m82e941baf0" x="234.621741" y="262.806049" style="fill: #808080; stroke: #808080"/>
     <use xlink:href="#m82e941baf0" x="133.708623" y="147.815179" style="fill: #808080; stroke: #808080"/>
     <use xlink:href="#m82e941baf0" x="257.606138" y="234.533058" style="fill: #808080; stroke: #808080"/>
     <use xlink:href="#m82e941baf0" x="265.931704" y="224.639552" style="fill: #808080; stroke: #808080"/>
     <use xlink:href="#m82e941baf0" x="100.994679" y="110.583185" style="fill: #808080; stroke: #808080"/>
     <use xlink:href="#m82e941baf0" x="184.626502" y="123.118796" style="fill: #808080; stroke: #808080"/>
     <use xlink:href="#m82e941baf0" x="272.556035" y="270.582263" style="fill: #808080; stroke: #808080"/>
     <use xlink:href="#m82e941baf0" x="253.419072" y="264.187622" style="fill: #808080; stroke: #808080"/>
     <use xlink:href="#m82e941baf0" x="231.09952" y="256.383378" style="fill: #808080; stroke: #808080"/>
     <use xlink:href="#m82e941baf0" x="234.97615" y="239.864043" style="fill: #808080; stroke: #808080"/>
     <use xlink:href="#m82e941baf0" x="243.76117" y="228.568541" style="fill: #808080; stroke: #808080"/>
     <use xlink:href="#m82e941baf0" x="143.283628" y="156.349968" style="fill: #808080; stroke: #808080"/>
     <use xlink:href="#m82e941baf0" x="173.492505" y="146.33487" style="fill: #808080; stroke: #808080"/>
     <use xlink:href="#m82e941baf0" x="269.478607" y="290.31403" style="fill: #808080; stroke: #808080"/>
     <use xlink:href="#m82e941baf0" x="231.710296" y="249.591747" style="fill: #808080; stroke: #808080"/>
     <use xlink:href="#m82e941baf0" x="244.573695" y="249.580213" style="fill: #808080; stroke: #808080"/>
     <use xlink:href="#m82e941baf0" x="207.087962" y="210.759064" style="fill: #808080; stroke: #808080"/>
     <use xlink:href="#m82e941baf0" x="108.914432" y="160.755081" style="fill: #808080; stroke: #808080"/>
     <use xlink:href="#m82e941baf0" x="269.530512" y="225.520419" style="fill: #808080; stroke: #808080"/>
     <use xlink:href="#m82e941baf0" x="180.405741" y="198.909977" style="fill: #808080; stroke: #808080"/>
     <use xlink:href="#m82e941baf0" x="228.056038" y="264.088824" style="fill: #808080; stroke: #808080"/>
     <use xlink:href="#m82e941baf0" x="268.865624" y="230.305693" style="fill: #808080; stroke: #808080"/>
     <use xlink:href="#m82e941baf0" x="195.32037" y="220.161281" style="fill: #808080; stroke: #808080"/>
     <use xlink:href="#m82e941baf0" x="242.697985" y="228.681789" style="fill: #808080; stroke: #808080"/>
     <use xlink:href="#m82e941baf0" x="254.155149" y="251.311135" style="fill: #808080; stroke: #808080"/>
     <use xlink:href="#m82e941baf0" x="270.620048" y="203.050677" style="fill: #808080; stroke: #808080"/>
     <use xlink:href="#m82e941baf0" x="268.866212" y="242.988856" style="fill: #808080; stroke: #808080"/>
     <use xlink:href="#m82e941baf0" x="238.574039" y="273.261158" style="fill: #808080; stroke: #808080"/>
     <use xlink:href="#m82e941baf0" x="272.421941" y="237.90412" style="fill: #808080; stroke: #808080"/>
     <use xlink:href="#m82e941baf0" x="237.354107" y="227.333569" style="fill: #808080; stroke: #808080"/>
     <use xlink:href="#m82e941baf0" x="240.360458" y="234.8856" style="fill: #808080; stroke: #808080"/>
     <use xlink:href="#m82e941baf0" x="252.362242" y="223.863365" style="fill: #808080; stroke: #808080"/>
     <use xlink:href="#m82e941baf0" x="159.054497" y="156.80551" style="fill: #808080; stroke: #808080"/>
     <use xlink:href="#m82e941baf0" x="275.443037" y="308.602129" style="fill: #808080; stroke: #808080"/>
     <use xlink:href="#m82e941baf0" x="251.494949" y="246.687721" style="fill: #808080; stroke: #808080"/>
     <use xlink:href="#m82e941baf0" x="229.820878" y="247.68997" style="fill: #808080; stroke: #808080"/>
     <use xlink:href="#m82e941baf0" x="274.145283" y="278.838577" style="fill: #808080; stroke: #808080"/>
     <use xlink:href="#m82e941baf0" x="234.998289" y="222.051291" style="fill: #808080; stroke: #808080"/>
     <use xlink:href="#m82e941baf0" x="248.393716" y="225.223" style="fill: #808080; stroke: #808080"/>
     <use xlink:href="#m82e941baf0" x="123.346059" y="158.382439" style="fill: #808080; stroke: #808080"/>
     <use xlink:href="#m82e941baf0" x="145.1512" y="207.654363" style="fill: #808080; stroke: #808080"/>
     <use xlink:href="#m82e941baf0" x="263.094559" y="264.601119" style="fill: #808080; stroke: #808080"/>
     <use xlink:href="#m82e941baf0" x="138.55509" y="137.954125" style="fill: #808080; stroke: #808080"/>
     <use xlink:href="#m82e941baf0" x="195.512649" y="181.803611" style="fill: #808080; stroke: #808080"/>
     <use xlink:href="#m82e941baf0" x="242.530885" y="243.015191" style="fill: #808080; stroke: #808080"/>
     <use xlink:href="#m82e941baf0" x="215.499926" y="236.385111" style="fill: #808080; stroke: #808080"/>
     <use xlink:href="#m82e941baf0" x="104.693439" y="154.616925" style="fill: #808080; stroke: #808080"/>
     <use xlink:href="#m82e941baf0" x="260.780013" y="266.351664" style="fill: #808080; stroke: #808080"/>
     <use xlink:href="#m82e941baf0" x="225.798555" y="280.000727" style="fill: #808080; stroke: #808080"/>
     <use xlink:href="#m82e941baf0" x="227.626056" y="141.893852" style="fill: #808080; stroke: #808080"/>
     <use xlink:href="#m82e941baf0" x="300.6062" y="240.362181" style="fill: #808080; stroke: #808080"/>
     <use xlink:href="#m82e941baf0" x="150.019234" y="141.907974" style="fill: #808080; stroke: #808080"/>
     <use xlink:href="#m82e941baf0" x="239.021602" y="213.32475" style="fill: #808080; stroke: #808080"/>
     <use xlink:href="#m82e941baf0" x="229.578698" y="207.112972" style="fill: #808080; stroke: #808080"/>
     <use xlink:href="#m82e941baf0" x="266.782158" y="260.171424" style="fill: #808080; stroke: #808080"/>
     <use xlink:href="#m82e941baf0" x="178.110394" y="189.138605" style="fill: #808080; stroke: #808080"/>
     <use xlink:href="#m82e941baf0" x="179.408582" y="175.69726" style="fill: #808080; stroke: #808080"/>
     <use xlink:href="#m82e941baf0" x="240.188151" y="270.360104" style="fill: #808080; stroke: #808080"/>
     <use xlink:href="#m82e941baf0" x="253.68488" y="233.723447" style="fill: #808080; stroke: #808080"/>
     <use xlink:href="#m82e941baf0" x="216.130948" y="228.669616" style="fill: #808080; stroke: #808080"/>
     <use xlink:href="#m82e941baf0" x="234.975199" y="263.531104" style="fill: #808080; stroke: #808080"/>
     <use xlink:href="#m82e941baf0" x="250.651437" y="145.405246" style="fill: #808080; stroke: #808080"/>
     <use xlink:href="#m82e941baf0" x="270.889134" y="203.916429" style="fill: #808080; stroke: #808080"/>
     <use xlink:href="#m82e941baf0" x="271.597974" y="215.2653" style="fill: #808080; stroke: #808080"/>
     <use xlink:href="#m82e941baf0" x="170.68573" y="262.872322" style="fill: #808080; stroke: #808080"/>
     <use xlink:href="#m82e941baf0" x="256.661557" y="171.765809" style="fill: #808080; stroke: #808080"/>
     <use xlink:href="#m82e941baf0" x="269.187971" y="251.076384" style="fill: #808080; stroke: #808080"/>
     <use xlink:href="#m82e941baf0" x="271.591713" y="248.344828" style="fill: #808080; stroke: #808080"/>
     <use xlink:href="#m82e941baf0" x="205.155474" y="159.034211" style="fill: #808080; stroke: #808080"/>
     <use xlink:href="#m82e941baf0" x="274.262527" y="278.185558" style="fill: #808080; stroke: #808080"/>
     <use xlink:href="#m82e941baf0" x="308.4561" y="259.680651" style="fill: #808080; stroke: #808080"/>
     <use xlink:href="#m82e941baf0" x="273.167558" y="259.585065" style="fill: #808080; stroke: #808080"/>
     <use xlink:href="#m82e941baf0" x="208.892288" y="211.757301" style="fill: #808080; stroke: #808080"/>
     <use xlink:href="#m82e941baf0" x="302.87493" y="238.110608" style="fill: #808080; stroke: #808080"/>
     <use xlink:href="#m82e941baf0" x="279.59554" y="277.0618" style="fill: #808080; stroke: #808080"/>
     <use xlink:href="#m82e941baf0" x="236.563337" y="250.811001" style="fill: #808080; stroke: #808080"/>
     <use xlink:href="#m82e941baf0" x="222.632947" y="183.728968" style="fill: #808080; stroke: #808080"/>
     <use xlink:href="#m82e941baf0" x="246.510013" y="252.725595" style="fill: #808080; stroke: #808080"/>
     <use xlink:href="#m82e941baf0" x="301.75058" y="246.372219" style="fill: #808080; stroke: #808080"/>
     <use xlink:href="#m82e941baf0" x="239.573289" y="250.229214" style="fill: #808080; stroke: #808080"/>
     <use xlink:href="#m82e941baf0" x="262.525126" y="294.04485" style="fill: #808080; stroke: #808080"/>
     <use xlink:href="#m82e941baf0" x="237.094382" y="211.478389" style="fill: #808080; stroke: #808080"/>
     <use xlink:href="#m82e941baf0" x="158.90494" y="179.807732" style="fill: #808080; stroke: #808080"/>
     <use xlink:href="#m82e941baf0" x="269.572361" y="238.398345" style="fill: #808080; stroke: #808080"/>
     <use xlink:href="#m82e941baf0" x="164.282179" y="147.728148" style="fill: #808080; stroke: #808080"/>
     <use xlink:href="#m82e941baf0" x="237.60626" y="256.390926" style="fill: #808080; stroke: #808080"/>
     <use xlink:href="#m82e941baf0" x="218.224789" y="217.490561" style="fill: #808080; stroke: #808080"/>
     <use xlink:href="#m82e941baf0" x="223.581017" y="211.74921" style="fill: #808080; stroke: #808080"/>
     <use xlink:href="#m82e941baf0" x="257.289566" y="200.608179" style="fill: #808080; stroke: #808080"/>
     <use xlink:href="#m82e941baf0" x="104.68126" y="102.520109" style="fill: #808080; stroke: #808080"/>
    </g>
   </g>
   <g id="PathCollection_2">
    <defs>
     <path id="m61c7c53c10" d="M 0 3 
C 0.795609 3 1.55874 2.683901 2.12132 2.12132 
C 2.683901 1.55874 3 0.795609 3 0 
C 3 -0.795609 2.683901 -1.55874 2.12132 -2.12132 
C 1.55874 -2.683901 0.795609 -3 0 -3 
C -0.795609 -3 -1.55874 -2.683901 -2.12132 -2.12132 
C -2.683901 -1.55874 -3 -0.795609 -3 0 
C -3 0.795609 -2.683901 1.55874 -2.12132 2.12132 
C -1.55874 2.683901 -0.795609 3 0 3 
z
" style="stroke: #ff0000"/>
    </defs>
    <g clip-path="url(#p53abc8ddf7)">
     <use xlink:href="#m61c7c53c10" x="269.187971" y="251.076384" style="fill: #ff0000; stroke: #ff0000"/>
     <use xlink:href="#m61c7c53c10" x="266.782158" y="260.171424" style="fill: #ff0000; stroke: #ff0000"/>
     <use xlink:href="#m61c7c53c10" x="260.780013" y="266.351664" style="fill: #ff0000; stroke: #ff0000"/>
     <use xlink:href="#m61c7c53c10" x="255.798003" y="271.418072" style="fill: #ff0000; stroke: #ff0000"/>
     <use xlink:href="#m61c7c53c10" x="269.300761" y="258.379813" style="fill: #ff0000; stroke: #ff0000"/>
     <use xlink:href="#m61c7c53c10" x="263.094559" y="264.601119" style="fill: #ff0000; stroke: #ff0000"/>
     <use xlink:href="#m61c7c53c10" x="273.167558" y="259.585065" style="fill: #ff0000; stroke: #ff0000"/>
     <use xlink:href="#m61c7c53c10" x="300.6062" y="240.362181" style="fill: #ff0000; stroke: #ff0000"/>
     <use xlink:href="#m61c7c53c10" x="302.87493" y="238.110608" style="fill: #ff0000; stroke: #ff0000"/>
     <use xlink:href="#m61c7c53c10" x="272.556035" y="270.582263" style="fill: #ff0000; stroke: #ff0000"/>
     <use xlink:href="#m61c7c53c10" x="301.75058" y="246.372219" style="fill: #ff0000; stroke: #ff0000"/>
     <use xlink:href="#m61c7c53c10" x="274.262527" y="278.185558" style="fill: #ff0000; stroke: #ff0000"/>
     <use xlink:href="#m61c7c53c10" x="274.145283" y="278.838577" style="fill: #ff0000; stroke: #ff0000"/>
     <use xlink:href="#m61c7c53c10" x="279.59554" y="277.0618" style="fill: #ff0000; stroke: #ff0000"/>
     <use xlink:href="#m61c7c53c10" x="262.525126" y="294.04485" style="fill: #ff0000; stroke: #ff0000"/>
     <use xlink:href="#m61c7c53c10" x="262.274728" y="295.641524" style="fill: #ff0000; stroke: #ff0000"/>
     <use xlink:href="#m61c7c53c10" x="269.478607" y="290.31403" style="fill: #ff0000; stroke: #ff0000"/>
     <use xlink:href="#m61c7c53c10" x="291.272455" y="276.256561" style="fill: #ff0000; stroke: #ff0000"/>
     <use xlink:href="#m61c7c53c10" x="308.4561" y="259.680651" style="fill: #ff0000; stroke: #ff0000"/>
     <use xlink:href="#m61c7c53c10" x="275.443037" y="308.602129" style="fill: #ff0000; stroke: #ff0000"/>
    </g>
   </g>
   <g id="PathCollection_3">
    <defs>
     <path id="m7eff59ff40" d="M 0 3 
C 0.795609 3 1.55874 2.683901 2.12132 2.12132 
C 2.683901 1.55874 3 0.795609 3 0 
C 3 -0.795609 2.683901 -1.55874 2.12132 -2.12132 
C 1.55874 -2.683901 0.795609 -3 0 -3 
C -0.795609 -3 -1.55874 -2.683901 -2.12132 -2.12132 
C -2.683901 -1.55874 -3 -0.795609 -3 0 
C -3 0.795609 -2.683901 1.55874 -2.12132 2.12132 
C -1.55874 2.683901 -0.795609 3 0 3 
z
" style="stroke: #00bfbf"/>
    </defs>
    <g clip-path="url(#p53abc8ddf7)">
     <use xlink:href="#m7eff59ff40" x="104.68126" y="102.520109" style="fill: #00bfbf; stroke: #00bfbf"/>
     <use xlink:href="#m7eff59ff40" x="100.994679" y="110.583185" style="fill: #00bfbf; stroke: #00bfbf"/>
     <use xlink:href="#m7eff59ff40" x="106.921668" y="116.769515" style="fill: #00bfbf; stroke: #00bfbf"/>
     <use xlink:href="#m7eff59ff40" x="132.783458" y="118.724107" style="fill: #00bfbf; stroke: #00bfbf"/>
     <use xlink:href="#m7eff59ff40" x="104.693439" y="154.616925" style="fill: #00bfbf; stroke: #00bfbf"/>
     <use xlink:href="#m7eff59ff40" x="108.914432" y="160.755081" style="fill: #00bfbf; stroke: #00bfbf"/>
     <use xlink:href="#m7eff59ff40" x="117.896387" y="157.444636" style="fill: #00bfbf; stroke: #00bfbf"/>
     <use xlink:href="#m7eff59ff40" x="138.55509" y="137.954125" style="fill: #00bfbf; stroke: #00bfbf"/>
     <use xlink:href="#m7eff59ff40" x="133.708623" y="147.815179" style="fill: #00bfbf; stroke: #00bfbf"/>
     <use xlink:href="#m7eff59ff40" x="123.346059" y="158.382439" style="fill: #00bfbf; stroke: #00bfbf"/>
     <use xlink:href="#m7eff59ff40" x="178.89062" y="108.632494" style="fill: #00bfbf; stroke: #00bfbf"/>
     <use xlink:href="#m7eff59ff40" x="150.019234" y="141.907974" style="fill: #00bfbf; stroke: #00bfbf"/>
     <use xlink:href="#m7eff59ff40" x="143.283628" y="156.349968" style="fill: #00bfbf; stroke: #00bfbf"/>
     <use xlink:href="#m7eff59ff40" x="184.626502" y="123.118796" style="fill: #00bfbf; stroke: #00bfbf"/>
     <use xlink:href="#m7eff59ff40" x="164.282179" y="147.728148" style="fill: #00bfbf; stroke: #00bfbf"/>
     <use xlink:href="#m7eff59ff40" x="150.442537" y="162.22978" style="fill: #00bfbf; stroke: #00bfbf"/>
     <use xlink:href="#m7eff59ff40" x="159.054497" y="156.80551" style="fill: #00bfbf; stroke: #00bfbf"/>
     <use xlink:href="#m7eff59ff40" x="173.492505" y="146.33487" style="fill: #00bfbf; stroke: #00bfbf"/>
     <use xlink:href="#m7eff59ff40" x="147.728261" y="187.08732" style="fill: #00bfbf; stroke: #00bfbf"/>
     <use xlink:href="#m7eff59ff40" x="158.90494" y="179.807732" style="fill: #00bfbf; stroke: #00bfbf"/>
    </g>
   </g>
   <g id="matplotlib.axis_1">
    <g id="xtick_1">
     <g id="line2d_1">
      <defs>
       <path id="mc74ea6ec3e" d="M 0 0 
L 0 3.5 
" style="stroke: #000000; stroke-width: 0.8"/>
      </defs>
      <g>
       <use xlink:href="#mc74ea6ec3e" x="68.25" y="320.4" style="stroke: #000000; stroke-width: 0.8"/>
      </g>
     </g>
     <g id="text_1">
      <!-- −1.0 -->
      <g transform="translate(56.108594 334.998438) scale(0.1 -0.1)">
       <defs>
        <path id="DejaVuSans-2212" d="M 678 2272 
L 4684 2272 
L 4684 1741 
L 678 1741 
L 678 2272 
z
" transform="scale(0.015625)"/>
        <path id="DejaVuSans-31" d="M 794 531 
L 1825 531 
L 1825 4091 
L 703 3866 
L 703 4441 
L 1819 4666 
L 2450 4666 
L 2450 531 
L 3481 531 
L 3481 0 
L 794 0 
L 794 531 
z
" transform="scale(0.015625)"/>
        <path id="DejaVuSans-2e" d="M 684 794 
L 1344 794 
L 1344 0 
L 684 0 
L 684 794 
z
" transform="scale(0.015625)"/>
        <path id="DejaVuSans-30" d="M 2034 4250 
Q 1547 4250 1301 3770 
Q 1056 3291 1056 2328 
Q 1056 1369 1301 889 
Q 1547 409 2034 409 
Q 2525 409 2770 889 
Q 3016 1369 3016 2328 
Q 3016 3291 2770 3770 
Q 2525 4250 2034 4250 
z
M 2034 4750 
Q 2819 4750 3233 4129 
Q 3647 3509 3647 2328 
Q 3647 1150 3233 529 
Q 2819 -91 2034 -91 
Q 1250 -91 836 529 
Q 422 1150 422 2328 
Q 422 3509 836 4129 
Q 1250 4750 2034 4750 
z
" transform="scale(0.015625)"/>
       </defs>
       <use xlink:href="#DejaVuSans-2212"/>
       <use xlink:href="#DejaVuSans-31" x="83.789062"/>
       <use xlink:href="#DejaVuSans-2e" x="147.412109"/>
       <use xlink:href="#DejaVuSans-30" x="179.199219"/>
      </g>
     </g>
    </g>
    <g id="xtick_2">
     <g id="line2d_2">
      <g>
       <use xlink:href="#mc74ea6ec3e" x="126.375" y="320.4" style="stroke: #000000; stroke-width: 0.8"/>
      </g>
     </g>
     <g id="text_2">
      <!-- −0.5 -->
      <g transform="translate(114.233594 334.998438) scale(0.1 -0.1)">
       <defs>
        <path id="DejaVuSans-35" d="M 691 4666 
L 3169 4666 
L 3169 4134 
L 1269 4134 
L 1269 2991 
Q 1406 3038 1543 3061 
Q 1681 3084 1819 3084 
Q 2600 3084 3056 2656 
Q 3513 2228 3513 1497 
Q 3513 744 3044 326 
Q 2575 -91 1722 -91 
Q 1428 -91 1123 -41 
Q 819 9 494 109 
L 494 744 
Q 775 591 1075 516 
Q 1375 441 1709 441 
Q 2250 441 2565 725 
Q 2881 1009 2881 1497 
Q 2881 1984 2565 2268 
Q 2250 2553 1709 2553 
Q 1456 2553 1204 2497 
Q 953 2441 691 2322 
L 691 4666 
z
" transform="scale(0.015625)"/>
       </defs>
       <use xlink:href="#DejaVuSans-2212"/>
       <use xlink:href="#DejaVuSans-30" x="83.789062"/>
       <use xlink:href="#DejaVuSans-2e" x="147.412109"/>
       <use xlink:href="#DejaVuSans-35" x="179.199219"/>
      </g>
     </g>
    </g>
    <g id="xtick_3">
     <g id="line2d_3">
      <g>
       <use xlink:href="#mc74ea6ec3e" x="184.5" y="320.4" style="stroke: #000000; stroke-width: 0.8"/>
      </g>
     </g>
     <g id="text_3">
      <!-- 0.0 -->
      <g transform="translate(176.548438 334.998438) scale(0.1 -0.1)">
       <use xlink:href="#DejaVuSans-30"/>
       <use xlink:href="#DejaVuSans-2e" x="63.623047"/>
       <use xlink:href="#DejaVuSans-30" x="95.410156"/>
      </g>
     </g>
    </g>
    <g id="xtick_4">
     <g id="line2d_4">
      <g>
       <use xlink:href="#mc74ea6ec3e" x="242.625" y="320.4" style="stroke: #000000; stroke-width: 0.8"/>
      </g>
     </g>
     <g id="text_4">
      <!-- 0.5 -->
      <g transform="translate(234.673438 334.998438) scale(0.1 -0.1)">
       <use xlink:href="#DejaVuSans-30"/>
       <use xlink:href="#DejaVuSans-2e" x="63.623047"/>
       <use xlink:href="#DejaVuSans-35" x="95.410156"/>
      </g>
     </g>
    </g>
    <g id="xtick_5">
     <g id="line2d_5">
      <g>
       <use xlink:href="#mc74ea6ec3e" x="300.75" y="320.4" style="stroke: #000000; stroke-width: 0.8"/>
      </g>
     </g>
     <g id="text_5">
      <!-- 1.0 -->
      <g transform="translate(292.798437 334.998438) scale(0.1 -0.1)">
       <use xlink:href="#DejaVuSans-31"/>
       <use xlink:href="#DejaVuSans-2e" x="63.623047"/>
       <use xlink:href="#DejaVuSans-30" x="95.410156"/>
      </g>
     </g>
    </g>
    <g id="text_6">
     <!-- Locomotion (mean z-score compound) -->
     <g transform="translate(88.292969 348.676562) scale(0.1 -0.1)">
      <defs>
       <path id="DejaVuSans-4c" d="M 628 4666 
L 1259 4666 
L 1259 531 
L 3531 531 
L 3531 0 
L 628 0 
L 628 4666 
z
" transform="scale(0.015625)"/>
       <path id="DejaVuSans-6f" d="M 1959 3097 
Q 1497 3097 1228 2736 
Q 959 2375 959 1747 
Q 959 1119 1226 758 
Q 1494 397 1959 397 
Q 2419 397 2687 759 
Q 2956 1122 2956 1747 
Q 2956 2369 2687 2733 
Q 2419 3097 1959 3097 
z
M 1959 3584 
Q 2709 3584 3137 3096 
Q 3566 2609 3566 1747 
Q 3566 888 3137 398 
Q 2709 -91 1959 -91 
Q 1206 -91 779 398 
Q 353 888 353 1747 
Q 353 2609 779 3096 
Q 1206 3584 1959 3584 
z
" transform="scale(0.015625)"/>
       <path id="DejaVuSans-63" d="M 3122 3366 
L 3122 2828 
Q 2878 2963 2633 3030 
Q 2388 3097 2138 3097 
Q 1578 3097 1268 2742 
Q 959 2388 959 1747 
Q 959 1106 1268 751 
Q 1578 397 2138 397 
Q 2388 397 2633 464 
Q 2878 531 3122 666 
L 3122 134 
Q 2881 22 2623 -34 
Q 2366 -91 2075 -91 
Q 1284 -91 818 406 
Q 353 903 353 1747 
Q 353 2603 823 3093 
Q 1294 3584 2113 3584 
Q 2378 3584 2631 3529 
Q 2884 3475 3122 3366 
z
" transform="scale(0.015625)"/>
       <path id="DejaVuSans-6d" d="M 3328 2828 
Q 3544 3216 3844 3400 
Q 4144 3584 4550 3584 
Q 5097 3584 5394 3201 
Q 5691 2819 5691 2113 
L 5691 0 
L 5113 0 
L 5113 2094 
Q 5113 2597 4934 2840 
Q 4756 3084 4391 3084 
Q 3944 3084 3684 2787 
Q 3425 2491 3425 1978 
L 3425 0 
L 2847 0 
L 2847 2094 
Q 2847 2600 2669 2842 
Q 2491 3084 2119 3084 
Q 1678 3084 1418 2786 
Q 1159 2488 1159 1978 
L 1159 0 
L 581 0 
L 581 3500 
L 1159 3500 
L 1159 2956 
Q 1356 3278 1631 3431 
Q 1906 3584 2284 3584 
Q 2666 3584 2933 3390 
Q 3200 3197 3328 2828 
z
" transform="scale(0.015625)"/>
       <path id="DejaVuSans-74" d="M 1172 4494 
L 1172 3500 
L 2356 3500 
L 2356 3053 
L 1172 3053 
L 1172 1153 
Q 1172 725 1289 603 
Q 1406 481 1766 481 
L 2356 481 
L 2356 0 
L 1766 0 
Q 1100 0 847 248 
Q 594 497 594 1153 
L 594 3053 
L 172 3053 
L 172 3500 
L 594 3500 
L 594 4494 
L 1172 4494 
z
" transform="scale(0.015625)"/>
       <path id="DejaVuSans-69" d="M 603 3500 
L 1178 3500 
L 1178 0 
L 603 0 
L 603 3500 
z
M 603 4863 
L 1178 4863 
L 1178 4134 
L 603 4134 
L 603 4863 
z
" transform="scale(0.015625)"/>
       <path id="DejaVuSans-6e" d="M 3513 2113 
L 3513 0 
L 2938 0 
L 2938 2094 
Q 2938 2591 2744 2837 
Q 2550 3084 2163 3084 
Q 1697 3084 1428 2787 
Q 1159 2491 1159 1978 
L 1159 0 
L 581 0 
L 581 3500 
L 1159 3500 
L 1159 2956 
Q 1366 3272 1645 3428 
Q 1925 3584 2291 3584 
Q 2894 3584 3203 3211 
Q 3513 2838 3513 2113 
z
" transform="scale(0.015625)"/>
       <path id="DejaVuSans-20" transform="scale(0.015625)"/>
       <path id="DejaVuSans-28" d="M 1984 4856 
Q 1566 4138 1362 3434 
Q 1159 2731 1159 2009 
Q 1159 1288 1364 580 
Q 1569 -128 1984 -844 
L 1484 -844 
Q 1016 -109 783 600 
Q 550 1309 550 2009 
Q 550 2706 781 3412 
Q 1013 4119 1484 4856 
L 1984 4856 
z
" transform="scale(0.015625)"/>
       <path id="DejaVuSans-65" d="M 3597 1894 
L 3597 1613 
L 953 1613 
Q 991 1019 1311 708 
Q 1631 397 2203 397 
Q 2534 397 2845 478 
Q 3156 559 3463 722 
L 3463 178 
Q 3153 47 2828 -22 
Q 2503 -91 2169 -91 
Q 1331 -91 842 396 
Q 353 884 353 1716 
Q 353 2575 817 3079 
Q 1281 3584 2069 3584 
Q 2775 3584 3186 3129 
Q 3597 2675 3597 1894 
z
M 3022 2063 
Q 3016 2534 2758 2815 
Q 2500 3097 2075 3097 
Q 1594 3097 1305 2825 
Q 1016 2553 972 2059 
L 3022 2063 
z
" transform="scale(0.015625)"/>
       <path id="DejaVuSans-61" d="M 2194 1759 
Q 1497 1759 1228 1600 
Q 959 1441 959 1056 
Q 959 750 1161 570 
Q 1363 391 1709 391 
Q 2188 391 2477 730 
Q 2766 1069 2766 1631 
L 2766 1759 
L 2194 1759 
z
M 3341 1997 
L 3341 0 
L 2766 0 
L 2766 531 
Q 2569 213 2275 61 
Q 1981 -91 1556 -91 
Q 1019 -91 701 211 
Q 384 513 384 1019 
Q 384 1609 779 1909 
Q 1175 2209 1959 2209 
L 2766 2209 
L 2766 2266 
Q 2766 2663 2505 2880 
Q 2244 3097 1772 3097 
Q 1472 3097 1187 3025 
Q 903 2953 641 2809 
L 641 3341 
Q 956 3463 1253 3523 
Q 1550 3584 1831 3584 
Q 2591 3584 2966 3190 
Q 3341 2797 3341 1997 
z
" transform="scale(0.015625)"/>
       <path id="DejaVuSans-7a" d="M 353 3500 
L 3084 3500 
L 3084 2975 
L 922 459 
L 3084 459 
L 3084 0 
L 275 0 
L 275 525 
L 2438 3041 
L 353 3041 
L 353 3500 
z
" transform="scale(0.015625)"/>
       <path id="DejaVuSans-2d" d="M 313 2009 
L 1997 2009 
L 1997 1497 
L 313 1497 
L 313 2009 
z
" transform="scale(0.015625)"/>
       <path id="DejaVuSans-73" d="M 2834 3397 
L 2834 2853 
Q 2591 2978 2328 3040 
Q 2066 3103 1784 3103 
Q 1356 3103 1142 2972 
Q 928 2841 928 2578 
Q 928 2378 1081 2264 
Q 1234 2150 1697 2047 
L 1894 2003 
Q 2506 1872 2764 1633 
Q 3022 1394 3022 966 
Q 3022 478 2636 193 
Q 2250 -91 1575 -91 
Q 1294 -91 989 -36 
Q 684 19 347 128 
L 347 722 
Q 666 556 975 473 
Q 1284 391 1588 391 
Q 1994 391 2212 530 
Q 2431 669 2431 922 
Q 2431 1156 2273 1281 
Q 2116 1406 1581 1522 
L 1381 1569 
Q 847 1681 609 1914 
Q 372 2147 372 2553 
Q 372 3047 722 3315 
Q 1072 3584 1716 3584 
Q 2034 3584 2315 3537 
Q 2597 3491 2834 3397 
z
" transform="scale(0.015625)"/>
       <path id="DejaVuSans-72" d="M 2631 2963 
Q 2534 3019 2420 3045 
Q 2306 3072 2169 3072 
Q 1681 3072 1420 2755 
Q 1159 2438 1159 1844 
L 1159 0 
L 581 0 
L 581 3500 
L 1159 3500 
L 1159 2956 
Q 1341 3275 1631 3429 
Q 1922 3584 2338 3584 
Q 2397 3584 2469 3576 
Q 2541 3569 2628 3553 
L 2631 2963 
z
" transform="scale(0.015625)"/>
       <path id="DejaVuSans-70" d="M 1159 525 
L 1159 -1331 
L 581 -1331 
L 581 3500 
L 1159 3500 
L 1159 2969 
Q 1341 3281 1617 3432 
Q 1894 3584 2278 3584 
Q 2916 3584 3314 3078 
Q 3713 2572 3713 1747 
Q 3713 922 3314 415 
Q 2916 -91 2278 -91 
Q 1894 -91 1617 61 
Q 1341 213 1159 525 
z
M 3116 1747 
Q 3116 2381 2855 2742 
Q 2594 3103 2138 3103 
Q 1681 3103 1420 2742 
Q 1159 2381 1159 1747 
Q 1159 1113 1420 752 
Q 1681 391 2138 391 
Q 2594 391 2855 752 
Q 3116 1113 3116 1747 
z
" transform="scale(0.015625)"/>
       <path id="DejaVuSans-75" d="M 544 1381 
L 544 3500 
L 1119 3500 
L 1119 1403 
Q 1119 906 1312 657 
Q 1506 409 1894 409 
Q 2359 409 2629 706 
Q 2900 1003 2900 1516 
L 2900 3500 
L 3475 3500 
L 3475 0 
L 2900 0 
L 2900 538 
Q 2691 219 2414 64 
Q 2138 -91 1772 -91 
Q 1169 -91 856 284 
Q 544 659 544 1381 
z
M 1991 3584 
L 1991 3584 
z
" transform="scale(0.015625)"/>
       <path id="DejaVuSans-64" d="M 2906 2969 
L 2906 4863 
L 3481 4863 
L 3481 0 
L 2906 0 
L 2906 525 
Q 2725 213 2448 61 
Q 2172 -91 1784 -91 
Q 1150 -91 751 415 
Q 353 922 353 1747 
Q 353 2572 751 3078 
Q 1150 3584 1784 3584 
Q 2172 3584 2448 3432 
Q 2725 3281 2906 2969 
z
M 947 1747 
Q 947 1113 1208 752 
Q 1469 391 1925 391 
Q 2381 391 2643 752 
Q 2906 1113 2906 1747 
Q 2906 2381 2643 2742 
Q 2381 3103 1925 3103 
Q 1469 3103 1208 2742 
Q 947 2381 947 1747 
z
" transform="scale(0.015625)"/>
       <path id="DejaVuSans-29" d="M 513 4856 
L 1013 4856 
Q 1481 4119 1714 3412 
Q 1947 2706 1947 2009 
Q 1947 1309 1714 600 
Q 1481 -109 1013 -844 
L 513 -844 
Q 928 -128 1133 580 
Q 1338 1288 1338 2009 
Q 1338 2731 1133 3434 
Q 928 4138 513 4856 
z
" transform="scale(0.015625)"/>
      </defs>
      <use xlink:href="#DejaVuSans-4c"/>
      <use xlink:href="#DejaVuSans-6f" x="53.962891"/>
      <use xlink:href="#DejaVuSans-63" x="115.144531"/>
      <use xlink:href="#DejaVuSans-6f" x="170.125"/>
      <use xlink:href="#DejaVuSans-6d" x="231.306641"/>
      <use xlink:href="#DejaVuSans-6f" x="328.71875"/>
      <use xlink:href="#DejaVuSans-74" x="389.900391"/>
      <use xlink:href="#DejaVuSans-69" x="429.109375"/>
      <use xlink:href="#DejaVuSans-6f" x="456.892578"/>
      <use xlink:href="#DejaVuSans-6e" x="518.074219"/>
      <use xlink:href="#DejaVuSans-20" x="581.453125"/>
      <use xlink:href="#DejaVuSans-28" x="613.240234"/>
      <use xlink:href="#DejaVuSans-6d" x="652.253906"/>
      <use xlink:href="#DejaVuSans-65" x="749.666016"/>
      <use xlink:href="#DejaVuSans-61" x="811.189453"/>
      <use xlink:href="#DejaVuSans-6e" x="872.46875"/>
      <use xlink:href="#DejaVuSans-20" x="935.847656"/>
      <use xlink:href="#DejaVuSans-7a" x="967.634766"/>
      <use xlink:href="#DejaVuSans-2d" x="1020.125"/>
      <use xlink:href="#DejaVuSans-73" x="1056.208984"/>
      <use xlink:href="#DejaVuSans-63" x="1108.308594"/>
      <use xlink:href="#DejaVuSans-6f" x="1163.289062"/>
      <use xlink:href="#DejaVuSans-72" x="1224.470703"/>
      <use xlink:href="#DejaVuSans-65" x="1263.333984"/>
      <use xlink:href="#DejaVuSans-20" x="1324.857422"/>
      <use xlink:href="#DejaVuSans-63" x="1356.644531"/>
      <use xlink:href="#DejaVuSans-6f" x="1411.625"/>
      <use xlink:href="#DejaVuSans-6d" x="1472.806641"/>
      <use xlink:href="#DejaVuSans-70" x="1570.21875"/>
      <use xlink:href="#DejaVuSans-6f" x="1633.695312"/>
      <use xlink:href="#DejaVuSans-75" x="1694.876953"/>
      <use xlink:href="#DejaVuSans-6e" x="1758.255859"/>
      <use xlink:href="#DejaVuSans-64" x="1821.634766"/>
      <use xlink:href="#DejaVuSans-29" x="1885.111328"/>
     </g>
    </g>
   </g>
   <g id="matplotlib.axis_2">
    <g id="ytick_1">
     <g id="line2d_6">
      <defs>
       <path id="mf382b427ad" d="M 0 0 
L -3.5 0 
" style="stroke: #000000; stroke-width: 0.8"/>
      </defs>
      <g>
       <use xlink:href="#mf382b427ad" x="45" y="297.3" style="stroke: #000000; stroke-width: 0.8"/>
      </g>
     </g>
     <g id="text_7">
      <!-- −1.0 -->
      <g transform="translate(13.717187 301.099219) scale(0.1 -0.1)">
       <use xlink:href="#DejaVuSans-2212"/>
       <use xlink:href="#DejaVuSans-31" x="83.789062"/>
       <use xlink:href="#DejaVuSans-2e" x="147.412109"/>
       <use xlink:href="#DejaVuSans-30" x="179.199219"/>
      </g>
     </g>
    </g>
    <g id="ytick_2">
     <g id="line2d_7">
      <g>
       <use xlink:href="#mf382b427ad" x="45" y="239.55" style="stroke: #000000; stroke-width: 0.8"/>
      </g>
     </g>
     <g id="text_8">
      <!-- −0.5 -->
      <g transform="translate(13.717187 243.349219) scale(0.1 -0.1)">
       <use xlink:href="#DejaVuSans-2212"/>
       <use xlink:href="#DejaVuSans-30" x="83.789062"/>
       <use xlink:href="#DejaVuSans-2e" x="147.412109"/>
       <use xlink:href="#DejaVuSans-35" x="179.199219"/>
      </g>
     </g>
    </g>
    <g id="ytick_3">
     <g id="line2d_8">
      <g>
       <use xlink:href="#mf382b427ad" x="45" y="181.8" style="stroke: #000000; stroke-width: 0.8"/>
      </g>
     </g>
     <g id="text_9">
      <!-- 0.0 -->
      <g transform="translate(22.096875 185.599219) scale(0.1 -0.1)">
       <use xlink:href="#DejaVuSans-30"/>
       <use xlink:href="#DejaVuSans-2e" x="63.623047"/>
       <use xlink:href="#DejaVuSans-30" x="95.410156"/>
      </g>
     </g>
    </g>
    <g id="ytick_4">
     <g id="line2d_9">
      <g>
       <use xlink:href="#mf382b427ad" x="45" y="124.05" style="stroke: #000000; stroke-width: 0.8"/>
      </g>
     </g>
     <g id="text_10">
      <!-- 0.5 -->
      <g transform="translate(22.096875 127.849219) scale(0.1 -0.1)">
       <use xlink:href="#DejaVuSans-30"/>
       <use xlink:href="#DejaVuSans-2e" x="63.623047"/>
       <use xlink:href="#DejaVuSans-35" x="95.410156"/>
      </g>
     </g>
    </g>
    <g id="ytick_5">
     <g id="line2d_10">
      <g>
       <use xlink:href="#mf382b427ad" x="45" y="66.3" style="stroke: #000000; stroke-width: 0.8"/>
      </g>
     </g>
     <g id="text_11">
      <!-- 1.0 -->
      <g transform="translate(22.096875 70.099219) scale(0.1 -0.1)">
       <use xlink:href="#DejaVuSans-31"/>
       <use xlink:href="#DejaVuSans-2e" x="63.623047"/>
       <use xlink:href="#DejaVuSans-30" x="95.410156"/>
      </g>
     </g>
    </g>
    <g id="text_12">
     <!-- Immobility (mean z-score compound) -->
     <g transform="translate(7.6375 275.469531) rotate(-90) scale(0.1 -0.1)">
      <defs>
       <path id="DejaVuSans-49" d="M 628 4666 
L 1259 4666 
L 1259 0 
L 628 0 
L 628 4666 
z
" transform="scale(0.015625)"/>
       <path id="DejaVuSans-62" d="M 3116 1747 
Q 3116 2381 2855 2742 
Q 2594 3103 2138 3103 
Q 1681 3103 1420 2742 
Q 1159 2381 1159 1747 
Q 1159 1113 1420 752 
Q 1681 391 2138 391 
Q 2594 391 2855 752 
Q 3116 1113 3116 1747 
z
M 1159 2969 
Q 1341 3281 1617 3432 
Q 1894 3584 2278 3584 
Q 2916 3584 3314 3078 
Q 3713 2572 3713 1747 
Q 3713 922 3314 415 
Q 2916 -91 2278 -91 
Q 1894 -91 1617 61 
Q 1341 213 1159 525 
L 1159 0 
L 581 0 
L 581 4863 
L 1159 4863 
L 1159 2969 
z
" transform="scale(0.015625)"/>
       <path id="DejaVuSans-6c" d="M 603 4863 
L 1178 4863 
L 1178 0 
L 603 0 
L 603 4863 
z
" transform="scale(0.015625)"/>
       <path id="DejaVuSans-79" d="M 2059 -325 
Q 1816 -950 1584 -1140 
Q 1353 -1331 966 -1331 
L 506 -1331 
L 506 -850 
L 844 -850 
Q 1081 -850 1212 -737 
Q 1344 -625 1503 -206 
L 1606 56 
L 191 3500 
L 800 3500 
L 1894 763 
L 2988 3500 
L 3597 3500 
L 2059 -325 
z
" transform="scale(0.015625)"/>
      </defs>
      <use xlink:href="#DejaVuSans-49"/>
      <use xlink:href="#DejaVuSans-6d" x="29.492188"/>
      <use xlink:href="#DejaVuSans-6d" x="126.904297"/>
      <use xlink:href="#DejaVuSans-6f" x="224.316406"/>
      <use xlink:href="#DejaVuSans-62" x="285.498047"/>
      <use xlink:href="#DejaVuSans-69" x="348.974609"/>
      <use xlink:href="#DejaVuSans-6c" x="376.757812"/>
      <use xlink:href="#DejaVuSans-69" x="404.541016"/>
      <use xlink:href="#DejaVuSans-74" x="432.324219"/>
      <use xlink:href="#DejaVuSans-79" x="471.533203"/>
      <use xlink:href="#DejaVuSans-20" x="530.712891"/>
      <use xlink:href="#DejaVuSans-28" x="562.5"/>
      <use xlink:href="#DejaVuSans-6d" x="601.513672"/>
      <use xlink:href="#DejaVuSans-65" x="698.925781"/>
      <use xlink:href="#DejaVuSans-61" x="760.449219"/>
      <use xlink:href="#DejaVuSans-6e" x="821.728516"/>
      <use xlink:href="#DejaVuSans-20" x="885.107422"/>
      <use xlink:href="#DejaVuSans-7a" x="916.894531"/>
      <use xlink:href="#DejaVuSans-2d" x="969.384766"/>
      <use xlink:href="#DejaVuSans-73" x="1005.46875"/>
      <use xlink:href="#DejaVuSans-63" x="1057.568359"/>
      <use xlink:href="#DejaVuSans-6f" x="1112.548828"/>
      <use xlink:href="#DejaVuSans-72" x="1173.730469"/>
      <use xlink:href="#DejaVuSans-65" x="1212.59375"/>
      <use xlink:href="#DejaVuSans-20" x="1274.117188"/>
      <use xlink:href="#DejaVuSans-63" x="1305.904297"/>
      <use xlink:href="#DejaVuSans-6f" x="1360.884766"/>
      <use xlink:href="#DejaVuSans-6d" x="1422.066406"/>
      <use xlink:href="#DejaVuSans-70" x="1519.478516"/>
      <use xlink:href="#DejaVuSans-6f" x="1582.955078"/>
      <use xlink:href="#DejaVuSans-75" x="1644.136719"/>
      <use xlink:href="#DejaVuSans-6e" x="1707.515625"/>
      <use xlink:href="#DejaVuSans-64" x="1770.894531"/>
      <use xlink:href="#DejaVuSans-29" x="1834.371094"/>
     </g>
    </g>
   </g>
   <g id="patch_3">
    <path d="M 45 320.4 
L 45 43.2 
" style="fill: none; stroke: #000000; stroke-width: 0.8; stroke-linejoin: miter; stroke-linecap: square"/>
   </g>
   <g id="patch_4">
    <path d="M 324 320.4 
L 324 43.2 
" style="fill: none; stroke: #000000; stroke-width: 0.8; stroke-linejoin: miter; stroke-linecap: square"/>
   </g>
   <g id="patch_5">
    <path d="M 45 320.4 
L 324 320.4 
" style="fill: none; stroke: #000000; stroke-width: 0.8; stroke-linejoin: miter; stroke-linecap: square"/>
   </g>
   <g id="patch_6">
    <path d="M 45 43.2 
L 324 43.2 
" style="fill: none; stroke: #000000; stroke-width: 0.8; stroke-linejoin: miter; stroke-linecap: square"/>
   </g>
  </g>
 </g>
 <defs>
  <clipPath id="p53abc8ddf7">
   <rect x="45" y="43.2" width="279" height="277.2"/>
  </clipPath>
 </defs>
</svg>
