<?xml version="1.0" encoding="utf-8" standalone="no"?>
<!DOCTYPE svg PUBLIC "-//W3C//DTD SVG 1.1//EN"
  "http://www.w3.org/Graphics/SVG/1.1/DTD/svg11.dtd">
<svg xmlns:xlink="http://www.w3.org/1999/xlink" width="360pt" height="360pt" viewBox="0 0 360 360" xmlns="http://www.w3.org/2000/svg" version="1.1">
 <metadata>
  <rdf:RDF xmlns:dc="http://purl.org/dc/elements/1.1/" xmlns:cc="http://creativecommons.org/ns#" xmlns:rdf="http://www.w3.org/1999/02/22-rdf-syntax-ns#">
   <cc:Work>
    <dc:type rdf:resource="http://purl.org/dc/dcmitype/StillImage"/>
    <dc:date>2025-11-17T10:38:00.540981</dc:date>
    <dc:format>image/svg+xml</dc:format>
    <dc:creator>
     <cc:Agent>
      <dc:title>Matplotlib v3.9.1, https://matplotlib.org/</dc:title>
     </cc:Agent>
    </dc:creator>
   </cc:Work>
  </rdf:RDF>
 </metadata>
 <defs>
  <style type="text/css">*{stroke-linejoin: round; stroke-linecap: butt}</style>
 </defs>
 <g id="figure_1">
  <g id="patch_1">
   <path d="M 0 360 
L 360 360 
L 360 0 
L 0 0 
z
" style="fill: #ffffff"/>
  </g>
  <g id="axes_1">
   <g id="patch_2">
    <path d="M 45 320.4 
L 324 320.4 
L 324 43.2 
L 45 43.2 
z
" style="fill: #ffffff"/>
   </g>
   <g id="PathCollection_1">
    <defs>
     <path id="ma59e3dec68" d="M 0 3 
C 0.795609 3 1.55874 2.683901 2.12132 2.12132 
C 2.683901 1.55874 3 0.795609 3 0 
C 3 -0.795609 2.683901 -1.55874 2.12132 -2.12132 
C 1.55874 -2.683901 0.795609 -3 0 -3 
C -0.795609 -3 -1.55874 -2.683901 -2.12132 -2.12132 
C -2.683901 -1.55874 -3 -0.795609 -3 0 
C -3 0.795609 -2.683901 1.55874 -2.12132 2.12132 
C -1.55874 2.683901 -0.795609 3 0 3 
z
" style="stroke: #1f77b4"/>
    </defs>
    <g clip-path="url(#p61d7b9278f)">
     <use xlink:href="#ma59e3dec68" x="138.743988" y="158.29648" style="fill: #1f77b4; stroke: #1f77b4"/>
     <use xlink:href="#ma59e3dec68" x="166.043977" y="178.593805" style="fill: #1f77b4; stroke: #1f77b4"/>
     <use xlink:href="#ma59e3dec68" x="129.091014" y="126.803509" style="fill: #1f77b4; stroke: #1f77b4"/>
     <use xlink:href="#ma59e3dec68" x="148.598804" y="209.831173" style="fill: #1f77b4; stroke: #1f77b4"/>
     <use xlink:href="#ma59e3dec68" x="210.433373" y="203.831315" style="fill: #1f77b4; stroke: #1f77b4"/>
     <use xlink:href="#ma59e3dec68" x="180.972804" y="123.588772" style="fill: #1f77b4; stroke: #1f77b4"/>
     <use xlink:href="#ma59e3dec68" x="126.488807" y="169.562764" style="fill: #1f77b4; stroke: #1f77b4"/>
     <use xlink:href="#ma59e3dec68" x="187.459247" y="155.113585" style="fill: #1f77b4; stroke: #1f77b4"/>
     <use xlink:href="#ma59e3dec68" x="152.600067" y="55.8" style="fill: #1f77b4; stroke: #1f77b4"/>
     <use xlink:href="#ma59e3dec68" x="259.644015" y="235.167871" style="fill: #1f77b4; stroke: #1f77b4"/>
     <use xlink:href="#ma59e3dec68" x="167.430509" y="170.110186" style="fill: #1f77b4; stroke: #1f77b4"/>
     <use xlink:href="#ma59e3dec68" x="276.470054" y="213.238382" style="fill: #1f77b4; stroke: #1f77b4"/>
     <use xlink:href="#ma59e3dec68" x="253.389063" y="149.399123" style="fill: #1f77b4; stroke: #1f77b4"/>
     <use xlink:href="#ma59e3dec68" x="293.651565" y="268.558529" style="fill: #1f77b4; stroke: #1f77b4"/>
     <use xlink:href="#ma59e3dec68" x="135.103814" y="149.45809" style="fill: #1f77b4; stroke: #1f77b4"/>
     <use xlink:href="#ma59e3dec68" x="252.270867" y="160.237789" style="fill: #1f77b4; stroke: #1f77b4"/>
     <use xlink:href="#ma59e3dec68" x="69.472756" y="120.089418" style="fill: #1f77b4; stroke: #1f77b4"/>
     <use xlink:href="#ma59e3dec68" x="226.103161" y="226.501779" style="fill: #1f77b4; stroke: #1f77b4"/>
     <use xlink:href="#ma59e3dec68" x="249.455971" y="226.571518" style="fill: #1f77b4; stroke: #1f77b4"/>
     <use xlink:href="#ma59e3dec68" x="114.295495" y="162.960708" style="fill: #1f77b4; stroke: #1f77b4"/>
     <use xlink:href="#ma59e3dec68" x="245.88615" y="215.604721" style="fill: #1f77b4; stroke: #1f77b4"/>
     <use xlink:href="#ma59e3dec68" x="204.611214" y="217.506962" style="fill: #1f77b4; stroke: #1f77b4"/>
     <use xlink:href="#ma59e3dec68" x="65.903421" y="85.529483" style="fill: #1f77b4; stroke: #1f77b4"/>
     <use xlink:href="#ma59e3dec68" x="89.062389" y="89.086655" style="fill: #1f77b4; stroke: #1f77b4"/>
     <use xlink:href="#ma59e3dec68" x="244.119497" y="240.470598" style="fill: #1f77b4; stroke: #1f77b4"/>
     <use xlink:href="#ma59e3dec68" x="247.641028" y="249.271038" style="fill: #1f77b4; stroke: #1f77b4"/>
     <use xlink:href="#ma59e3dec68" x="187.933513" y="247.636108" style="fill: #1f77b4; stroke: #1f77b4"/>
     <use xlink:href="#ma59e3dec68" x="257.719318" y="291.293583" style="fill: #1f77b4; stroke: #1f77b4"/>
     <use xlink:href="#ma59e3dec68" x="207.484394" y="240.290055" style="fill: #1f77b4; stroke: #1f77b4"/>
     <use xlink:href="#ma59e3dec68" x="230.006673" y="230.201329" style="fill: #1f77b4; stroke: #1f77b4"/>
     <use xlink:href="#ma59e3dec68" x="259.529537" y="208.157864" style="fill: #1f77b4; stroke: #1f77b4"/>
     <use xlink:href="#ma59e3dec68" x="271.230302" y="207.743323" style="fill: #1f77b4; stroke: #1f77b4"/>
     <use xlink:href="#ma59e3dec68" x="210.243634" y="226.238528" style="fill: #1f77b4; stroke: #1f77b4"/>
     <use xlink:href="#ma59e3dec68" x="264.021015" y="236.837192" style="fill: #1f77b4; stroke: #1f77b4"/>
     <use xlink:href="#ma59e3dec68" x="273.202376" y="238.273977" style="fill: #1f77b4; stroke: #1f77b4"/>
     <use xlink:href="#ma59e3dec68" x="214.400577" y="250.026054" style="fill: #1f77b4; stroke: #1f77b4"/>
     <use xlink:href="#ma59e3dec68" x="65.259843" y="161.29651" style="fill: #1f77b4; stroke: #1f77b4"/>
     <use xlink:href="#ma59e3dec68" x="248.238112" y="223.360508" style="fill: #1f77b4; stroke: #1f77b4"/>
     <use xlink:href="#ma59e3dec68" x="261.266689" y="203.932954" style="fill: #1f77b4; stroke: #1f77b4"/>
     <use xlink:href="#ma59e3dec68" x="58.159362" y="79.991711" style="fill: #1f77b4; stroke: #1f77b4"/>
     <use xlink:href="#ma59e3dec68" x="168.918042" y="83.064475" style="fill: #1f77b4; stroke: #1f77b4"/>
     <use xlink:href="#ma59e3dec68" x="255.350722" y="248.428355" style="fill: #1f77b4; stroke: #1f77b4"/>
     <use xlink:href="#ma59e3dec68" x="251.625984" y="245.649003" style="fill: #1f77b4; stroke: #1f77b4"/>
     <use xlink:href="#ma59e3dec68" x="198.685309" y="228.595602" style="fill: #1f77b4; stroke: #1f77b4"/>
     <use xlink:href="#ma59e3dec68" x="218.93615" y="222.993008" style="fill: #1f77b4; stroke: #1f77b4"/>
     <use xlink:href="#ma59e3dec68" x="230.291271" y="215.753378" style="fill: #1f77b4; stroke: #1f77b4"/>
     <use xlink:href="#ma59e3dec68" x="105.275191" y="127.794758" style="fill: #1f77b4; stroke: #1f77b4"/>
     <use xlink:href="#ma59e3dec68" x="159.127958" y="124.920734" style="fill: #1f77b4; stroke: #1f77b4"/>
     <use xlink:href="#ma59e3dec68" x="269.638924" y="278.776753" style="fill: #1f77b4; stroke: #1f77b4"/>
     <use xlink:href="#ma59e3dec68" x="223.434202" y="231.562744" style="fill: #1f77b4; stroke: #1f77b4"/>
     <use xlink:href="#ma59e3dec68" x="269.460609" y="204.409667" style="fill: #1f77b4; stroke: #1f77b4"/>
     <use xlink:href="#ma59e3dec68" x="236.242615" y="235.484431" style="fill: #1f77b4; stroke: #1f77b4"/>
     <use xlink:href="#ma59e3dec68" x="220.312111" y="154.135779" style="fill: #1f77b4; stroke: #1f77b4"/>
     <use xlink:href="#ma59e3dec68" x="67.039685" y="128.452063" style="fill: #1f77b4; stroke: #1f77b4"/>
     <use xlink:href="#ma59e3dec68" x="291.259376" y="210.049759" style="fill: #1f77b4; stroke: #1f77b4"/>
     <use xlink:href="#ma59e3dec68" x="155.402994" y="180.260458" style="fill: #1f77b4; stroke: #1f77b4"/>
     <use xlink:href="#ma59e3dec68" x="216.041732" y="254.384871" style="fill: #1f77b4; stroke: #1f77b4"/>
     <use xlink:href="#ma59e3dec68" x="262.717628" y="209.415738" style="fill: #1f77b4; stroke: #1f77b4"/>
     <use xlink:href="#ma59e3dec68" x="171.99407" y="202.454626" style="fill: #1f77b4; stroke: #1f77b4"/>
     <use xlink:href="#ma59e3dec68" x="218.042857" y="209.207221" style="fill: #1f77b4; stroke: #1f77b4"/>
     <use xlink:href="#ma59e3dec68" x="244.861952" y="238.013697" style="fill: #1f77b4; stroke: #1f77b4"/>
     <use xlink:href="#ma59e3dec68" x="245.581989" y="184.829479" style="fill: #1f77b4; stroke: #1f77b4"/>
     <use xlink:href="#ma59e3dec68" x="272.664462" y="229.157088" style="fill: #1f77b4; stroke: #1f77b4"/>
     <use xlink:href="#ma59e3dec68" x="231.259402" y="255.228621" style="fill: #1f77b4; stroke: #1f77b4"/>
     <use xlink:href="#ma59e3dec68" x="232.84038" y="207.461033" style="fill: #1f77b4; stroke: #1f77b4"/>
     <use xlink:href="#ma59e3dec68" x="239.319955" y="160.740139" style="fill: #1f77b4; stroke: #1f77b4"/>
     <use xlink:href="#ma59e3dec68" x="223.258941" y="200.504183" style="fill: #1f77b4; stroke: #1f77b4"/>
     <use xlink:href="#ma59e3dec68" x="199.258314" y="176.51771" style="fill: #1f77b4; stroke: #1f77b4"/>
     <use xlink:href="#ma59e3dec68" x="236.974938" y="201.081185" style="fill: #1f77b4; stroke: #1f77b4"/>
     <use xlink:href="#ma59e3dec68" x="143.560399" y="129.770515" style="fill: #1f77b4; stroke: #1f77b4"/>
     <use xlink:href="#ma59e3dec68" x="271.406582" y="307.8" style="fill: #1f77b4; stroke: #1f77b4"/>
     <use xlink:href="#ma59e3dec68" x="246.275097" y="230.193956" style="fill: #1f77b4; stroke: #1f77b4"/>
     <use xlink:href="#ma59e3dec68" x="202.447547" y="203.688931" style="fill: #1f77b4; stroke: #1f77b4"/>
     <use xlink:href="#ma59e3dec68" x="272.377258" y="257.637804" style="fill: #1f77b4; stroke: #1f77b4"/>
     <use xlink:href="#ma59e3dec68" x="214.442629" y="197.501771" style="fill: #1f77b4; stroke: #1f77b4"/>
     <use xlink:href="#ma59e3dec68" x="246.225977" y="198.033771" style="fill: #1f77b4; stroke: #1f77b4"/>
     <use xlink:href="#ma59e3dec68" x="86.60862" y="130.245783" style="fill: #1f77b4; stroke: #1f77b4"/>
     <use xlink:href="#ma59e3dec68" x="118.496641" y="180.783341" style="fill: #1f77b4; stroke: #1f77b4"/>
     <use xlink:href="#ma59e3dec68" x="257.445892" y="240.979214" style="fill: #1f77b4; stroke: #1f77b4"/>
     <use xlink:href="#ma59e3dec68" x="97.147055" y="103.014905" style="fill: #1f77b4; stroke: #1f77b4"/>
     <use xlink:href="#ma59e3dec68" x="169.378646" y="154.041031" style="fill: #1f77b4; stroke: #1f77b4"/>
     <use xlink:href="#ma59e3dec68" x="230.470656" y="218.007471" style="fill: #1f77b4; stroke: #1f77b4"/>
     <use xlink:href="#ma59e3dec68" x="195.314882" y="217.754801" style="fill: #1f77b4; stroke: #1f77b4"/>
     <use xlink:href="#ma59e3dec68" x="61.090984" y="126.045598" style="fill: #1f77b4; stroke: #1f77b4"/>
     <use xlink:href="#ma59e3dec68" x="251.020433" y="257.177748" style="fill: #1f77b4; stroke: #1f77b4"/>
     <use xlink:href="#ma59e3dec68" x="217.631101" y="273.169858" style="fill: #1f77b4; stroke: #1f77b4"/>
     <use xlink:href="#ma59e3dec68" x="221.930994" y="131.373429" style="fill: #1f77b4; stroke: #1f77b4"/>
     <use xlink:href="#ma59e3dec68" x="308.146414" y="223.834986" style="fill: #1f77b4; stroke: #1f77b4"/>
     <use xlink:href="#ma59e3dec68" x="115.112536" y="110.17609" style="fill: #1f77b4; stroke: #1f77b4"/>
     <use xlink:href="#ma59e3dec68" x="229.724865" y="204.905422" style="fill: #1f77b4; stroke: #1f77b4"/>
     <use xlink:href="#ma59e3dec68" x="207.637512" y="186.816485" style="fill: #1f77b4; stroke: #1f77b4"/>
     <use xlink:href="#ma59e3dec68" x="268.026869" y="234.933095" style="fill: #1f77b4; stroke: #1f77b4"/>
     <use xlink:href="#ma59e3dec68" x="155.560058" y="164.086152" style="fill: #1f77b4; stroke: #1f77b4"/>
     <use xlink:href="#ma59e3dec68" x="157.550541" y="142.526579" style="fill: #1f77b4; stroke: #1f77b4"/>
     <use xlink:href="#ma59e3dec68" x="226.724822" y="253.020598" style="fill: #1f77b4; stroke: #1f77b4"/>
     <use xlink:href="#ma59e3dec68" x="248.985503" y="216.306591" style="fill: #1f77b4; stroke: #1f77b4"/>
     <use xlink:href="#ma59e3dec68" x="205.129871" y="201.001183" style="fill: #1f77b4; stroke: #1f77b4"/>
     <use xlink:href="#ma59e3dec68" x="221.635518" y="236.21769" style="fill: #1f77b4; stroke: #1f77b4"/>
     <use xlink:href="#ma59e3dec68" x="235.123846" y="124.832097" style="fill: #1f77b4; stroke: #1f77b4"/>
     <use xlink:href="#ma59e3dec68" x="255.215976" y="187.470567" style="fill: #1f77b4; stroke: #1f77b4"/>
     <use xlink:href="#ma59e3dec68" x="259.527999" y="191.902993" style="fill: #1f77b4; stroke: #1f77b4"/>
     <use xlink:href="#ma59e3dec68" x="151.097009" y="251.653525" style="fill: #1f77b4; stroke: #1f77b4"/>
     <use xlink:href="#ma59e3dec68" x="246.650382" y="154.007057" style="fill: #1f77b4; stroke: #1f77b4"/>
     <use xlink:href="#ma59e3dec68" x="272.435342" y="236.105128" style="fill: #1f77b4; stroke: #1f77b4"/>
     <use xlink:href="#ma59e3dec68" x="256.45227" y="233.19825" style="fill: #1f77b4; stroke: #1f77b4"/>
     <use xlink:href="#ma59e3dec68" x="187.122065" y="132.215339" style="fill: #1f77b4; stroke: #1f77b4"/>
     <use xlink:href="#ma59e3dec68" x="276.295043" y="272.199682" style="fill: #1f77b4; stroke: #1f77b4"/>
     <use xlink:href="#ma59e3dec68" x="287.400227" y="246.447058" style="fill: #1f77b4; stroke: #1f77b4"/>
     <use xlink:href="#ma59e3dec68" x="271.894292" y="243.962002" style="fill: #1f77b4; stroke: #1f77b4"/>
     <use xlink:href="#ma59e3dec68" x="200.498148" y="178.121975" style="fill: #1f77b4; stroke: #1f77b4"/>
     <use xlink:href="#ma59e3dec68" x="311.318182" y="232.986629" style="fill: #1f77b4; stroke: #1f77b4"/>
     <use xlink:href="#ma59e3dec68" x="279.077384" y="267.504746" style="fill: #1f77b4; stroke: #1f77b4"/>
     <use xlink:href="#ma59e3dec68" x="155.389246" y="132.512005" style="fill: #1f77b4; stroke: #1f77b4"/>
     <use xlink:href="#ma59e3dec68" x="214.250888" y="231.718844" style="fill: #1f77b4; stroke: #1f77b4"/>
     <use xlink:href="#ma59e3dec68" x="202.925248" y="152.386047" style="fill: #1f77b4; stroke: #1f77b4"/>
     <use xlink:href="#ma59e3dec68" x="235.725271" y="243.242264" style="fill: #1f77b4; stroke: #1f77b4"/>
     <use xlink:href="#ma59e3dec68" x="294.367665" y="222.129586" style="fill: #1f77b4; stroke: #1f77b4"/>
     <use xlink:href="#ma59e3dec68" x="226.813981" y="237.864362" style="fill: #1f77b4; stroke: #1f77b4"/>
     <use xlink:href="#ma59e3dec68" x="268.300243" y="261.165177" style="fill: #1f77b4; stroke: #1f77b4"/>
     <use xlink:href="#ma59e3dec68" x="228.425474" y="192.480798" style="fill: #1f77b4; stroke: #1f77b4"/>
     <use xlink:href="#ma59e3dec68" x="129.81606" y="160.3384" style="fill: #1f77b4; stroke: #1f77b4"/>
     <use xlink:href="#ma59e3dec68" x="273.66855" y="218.009771" style="fill: #1f77b4; stroke: #1f77b4"/>
     <use xlink:href="#ma59e3dec68" x="133.532556" y="121.881539" style="fill: #1f77b4; stroke: #1f77b4"/>
     <use xlink:href="#ma59e3dec68" x="216.815968" y="235.658592" style="fill: #1f77b4; stroke: #1f77b4"/>
     <use xlink:href="#ma59e3dec68" x="207.194984" y="199.851846" style="fill: #1f77b4; stroke: #1f77b4"/>
     <use xlink:href="#ma59e3dec68" x="207.337783" y="151.651368" style="fill: #1f77b4; stroke: #1f77b4"/>
     <use xlink:href="#ma59e3dec68" x="209.319249" y="197.543692" style="fill: #1f77b4; stroke: #1f77b4"/>
     <use xlink:href="#ma59e3dec68" x="219.083226" y="176.922015" style="fill: #1f77b4; stroke: #1f77b4"/>
     <use xlink:href="#ma59e3dec68" x="57.681818" y="65.785301" style="fill: #1f77b4; stroke: #1f77b4"/>
    </g>
   </g>
   <g id="matplotlib.axis_1">
    <g id="xtick_1">
     <g id="line2d_1">
      <defs>
       <path id="m86ff9d049f" d="M 0 0 
L 0 3.5 
" style="stroke: #000000; stroke-width: 0.8"/>
      </defs>
      <g>
       <use xlink:href="#m86ff9d049f" x="52.951928" y="320.4" style="stroke: #000000; stroke-width: 0.8"/>
      </g>
     </g>
     <g id="text_1">
      <!-- −0.75 -->
      <g transform="translate(37.629271 334.998438) scale(0.1 -0.1)">
       <defs>
        <path id="DejaVuSans-2212" d="M 678 2272 
L 4684 2272 
L 4684 1741 
L 678 1741 
L 678 2272 
z
" transform="scale(0.015625)"/>
        <path id="DejaVuSans-30" d="M 2034 4250 
Q 1547 4250 1301 3770 
Q 1056 3291 1056 2328 
Q 1056 1369 1301 889 
Q 1547 409 2034 409 
Q 2525 409 2770 889 
Q 3016 1369 3016 2328 
Q 3016 3291 2770 3770 
Q 2525 4250 2034 4250 
z
M 2034 4750 
Q 2819 4750 3233 4129 
Q 3647 3509 3647 2328 
Q 3647 1150 3233 529 
Q 2819 -91 2034 -91 
Q 1250 -91 836 529 
Q 422 1150 422 2328 
Q 422 3509 836 4129 
Q 1250 4750 2034 4750 
z
" transform="scale(0.015625)"/>
        <path id="DejaVuSans-2e" d="M 684 794 
L 1344 794 
L 1344 0 
L 684 0 
L 684 794 
z
" transform="scale(0.015625)"/>
        <path id="DejaVuSans-37" d="M 525 4666 
L 3525 4666 
L 3525 4397 
L 1831 0 
L 1172 0 
L 2766 4134 
L 525 4134 
L 525 4666 
z
" transform="scale(0.015625)"/>
        <path id="DejaVuSans-35" d="M 691 4666 
L 3169 4666 
L 3169 4134 
L 1269 4134 
L 1269 2991 
Q 1406 3038 1543 3061 
Q 1681 3084 1819 3084 
Q 2600 3084 3056 2656 
Q 3513 2228 3513 1497 
Q 3513 744 3044 326 
Q 2575 -91 1722 -91 
Q 1428 -91 1123 -41 
Q 819 9 494 109 
L 494 744 
Q 775 591 1075 516 
Q 1375 441 1709 441 
Q 2250 441 2565 725 
Q 2881 1009 2881 1497 
Q 2881 1984 2565 2268 
Q 2250 2553 1709 2553 
Q 1456 2553 1204 2497 
Q 953 2441 691 2322 
L 691 4666 
z
" transform="scale(0.015625)"/>
       </defs>
       <use xlink:href="#DejaVuSans-2212"/>
       <use xlink:href="#DejaVuSans-30" x="83.789062"/>
       <use xlink:href="#DejaVuSans-2e" x="147.412109"/>
       <use xlink:href="#DejaVuSans-37" x="179.199219"/>
       <use xlink:href="#DejaVuSans-35" x="242.822266"/>
      </g>
     </g>
    </g>
    <g id="xtick_2">
     <g id="line2d_2">
      <g>
       <use xlink:href="#m86ff9d049f" x="88.942058" y="320.4" style="stroke: #000000; stroke-width: 0.8"/>
      </g>
     </g>
     <g id="text_2">
      <!-- −0.50 -->
      <g transform="translate(73.619401 334.998438) scale(0.1 -0.1)">
       <use xlink:href="#DejaVuSans-2212"/>
       <use xlink:href="#DejaVuSans-30" x="83.789062"/>
       <use xlink:href="#DejaVuSans-2e" x="147.412109"/>
       <use xlink:href="#DejaVuSans-35" x="179.199219"/>
       <use xlink:href="#DejaVuSans-30" x="242.822266"/>
      </g>
     </g>
    </g>
    <g id="xtick_3">
     <g id="line2d_3">
      <g>
       <use xlink:href="#m86ff9d049f" x="124.932188" y="320.4" style="stroke: #000000; stroke-width: 0.8"/>
      </g>
     </g>
     <g id="text_3">
      <!-- −0.25 -->
      <g transform="translate(109.609532 334.998438) scale(0.1 -0.1)">
       <defs>
        <path id="DejaVuSans-32" d="M 1228 531 
L 3431 531 
L 3431 0 
L 469 0 
L 469 531 
Q 828 903 1448 1529 
Q 2069 2156 2228 2338 
Q 2531 2678 2651 2914 
Q 2772 3150 2772 3378 
Q 2772 3750 2511 3984 
Q 2250 4219 1831 4219 
Q 1534 4219 1204 4116 
Q 875 4013 500 3803 
L 500 4441 
Q 881 4594 1212 4672 
Q 1544 4750 1819 4750 
Q 2544 4750 2975 4387 
Q 3406 4025 3406 3419 
Q 3406 3131 3298 2873 
Q 3191 2616 2906 2266 
Q 2828 2175 2409 1742 
Q 1991 1309 1228 531 
z
" transform="scale(0.015625)"/>
       </defs>
       <use xlink:href="#DejaVuSans-2212"/>
       <use xlink:href="#DejaVuSans-30" x="83.789062"/>
       <use xlink:href="#DejaVuSans-2e" x="147.412109"/>
       <use xlink:href="#DejaVuSans-32" x="179.199219"/>
       <use xlink:href="#DejaVuSans-35" x="242.822266"/>
      </g>
     </g>
    </g>
    <g id="xtick_4">
     <g id="line2d_4">
      <g>
       <use xlink:href="#m86ff9d049f" x="160.922318" y="320.4" style="stroke: #000000; stroke-width: 0.8"/>
      </g>
     </g>
     <g id="text_4">
      <!-- 0.00 -->
      <g transform="translate(149.789505 334.998438) scale(0.1 -0.1)">
       <use xlink:href="#DejaVuSans-30"/>
       <use xlink:href="#DejaVuSans-2e" x="63.623047"/>
       <use xlink:href="#DejaVuSans-30" x="95.410156"/>
       <use xlink:href="#DejaVuSans-30" x="159.033203"/>
      </g>
     </g>
    </g>
    <g id="xtick_5">
     <g id="line2d_5">
      <g>
       <use xlink:href="#m86ff9d049f" x="196.912448" y="320.4" style="stroke: #000000; stroke-width: 0.8"/>
      </g>
     </g>
     <g id="text_5">
      <!-- 0.25 -->
      <g transform="translate(185.779636 334.998438) scale(0.1 -0.1)">
       <use xlink:href="#DejaVuSans-30"/>
       <use xlink:href="#DejaVuSans-2e" x="63.623047"/>
       <use xlink:href="#DejaVuSans-32" x="95.410156"/>
       <use xlink:href="#DejaVuSans-35" x="159.033203"/>
      </g>
     </g>
    </g>
    <g id="xtick_6">
     <g id="line2d_6">
      <g>
       <use xlink:href="#m86ff9d049f" x="232.902578" y="320.4" style="stroke: #000000; stroke-width: 0.8"/>
      </g>
     </g>
     <g id="text_6">
      <!-- 0.50 -->
      <g transform="translate(221.769766 334.998438) scale(0.1 -0.1)">
       <use xlink:href="#DejaVuSans-30"/>
       <use xlink:href="#DejaVuSans-2e" x="63.623047"/>
       <use xlink:href="#DejaVuSans-35" x="95.410156"/>
       <use xlink:href="#DejaVuSans-30" x="159.033203"/>
      </g>
     </g>
    </g>
    <g id="xtick_7">
     <g id="line2d_7">
      <g>
       <use xlink:href="#m86ff9d049f" x="268.892708" y="320.4" style="stroke: #000000; stroke-width: 0.8"/>
      </g>
     </g>
     <g id="text_7">
      <!-- 0.75 -->
      <g transform="translate(257.759896 334.998438) scale(0.1 -0.1)">
       <use xlink:href="#DejaVuSans-30"/>
       <use xlink:href="#DejaVuSans-2e" x="63.623047"/>
       <use xlink:href="#DejaVuSans-37" x="95.410156"/>
       <use xlink:href="#DejaVuSans-35" x="159.033203"/>
      </g>
     </g>
    </g>
    <g id="xtick_8">
     <g id="line2d_8">
      <g>
       <use xlink:href="#m86ff9d049f" x="304.882839" y="320.4" style="stroke: #000000; stroke-width: 0.8"/>
      </g>
     </g>
     <g id="text_8">
      <!-- 1.00 -->
      <g transform="translate(293.750026 334.998438) scale(0.1 -0.1)">
       <defs>
        <path id="DejaVuSans-31" d="M 794 531 
L 1825 531 
L 1825 4091 
L 703 3866 
L 703 4441 
L 1819 4666 
L 2450 4666 
L 2450 531 
L 3481 531 
L 3481 0 
L 794 0 
L 794 531 
z
" transform="scale(0.015625)"/>
       </defs>
       <use xlink:href="#DejaVuSans-31"/>
       <use xlink:href="#DejaVuSans-2e" x="63.623047"/>
       <use xlink:href="#DejaVuSans-30" x="95.410156"/>
       <use xlink:href="#DejaVuSans-30" x="159.033203"/>
      </g>
     </g>
    </g>
    <g id="text_9">
     <!-- Locomotion (mean z-score compound) -->
     <g transform="translate(88.292969 348.676562) scale(0.1 -0.1)">
      <defs>
       <path id="DejaVuSans-4c" d="M 628 4666 
L 1259 4666 
L 1259 531 
L 3531 531 
L 3531 0 
L 628 0 
L 628 4666 
z
" transform="scale(0.015625)"/>
       <path id="DejaVuSans-6f" d="M 1959 3097 
Q 1497 3097 1228 2736 
Q 959 2375 959 1747 
Q 959 1119 1226 758 
Q 1494 397 1959 397 
Q 2419 397 2687 759 
Q 2956 1122 2956 1747 
Q 2956 2369 2687 2733 
Q 2419 3097 1959 3097 
z
M 1959 3584 
Q 2709 3584 3137 3096 
Q 3566 2609 3566 1747 
Q 3566 888 3137 398 
Q 2709 -91 1959 -91 
Q 1206 -91 779 398 
Q 353 888 353 1747 
Q 353 2609 779 3096 
Q 1206 3584 1959 3584 
z
" transform="scale(0.015625)"/>
       <path id="DejaVuSans-63" d="M 3122 3366 
L 3122 2828 
Q 2878 2963 2633 3030 
Q 2388 3097 2138 3097 
Q 1578 3097 1268 2742 
Q 959 2388 959 1747 
Q 959 1106 1268 751 
Q 1578 397 2138 397 
Q 2388 397 2633 464 
Q 2878 531 3122 666 
L 3122 134 
Q 2881 22 2623 -34 
Q 2366 -91 2075 -91 
Q 1284 -91 818 406 
Q 353 903 353 1747 
Q 353 2603 823 3093 
Q 1294 3584 2113 3584 
Q 2378 3584 2631 3529 
Q 2884 3475 3122 3366 
z
" transform="scale(0.015625)"/>
       <path id="DejaVuSans-6d" d="M 3328 2828 
Q 3544 3216 3844 3400 
Q 4144 3584 4550 3584 
Q 5097 3584 5394 3201 
Q 5691 2819 5691 2113 
L 5691 0 
L 5113 0 
L 5113 2094 
Q 5113 2597 4934 2840 
Q 4756 3084 4391 3084 
Q 3944 3084 3684 2787 
Q 3425 2491 3425 1978 
L 3425 0 
L 2847 0 
L 2847 2094 
Q 2847 2600 2669 2842 
Q 2491 3084 2119 3084 
Q 1678 3084 1418 2786 
Q 1159 2488 1159 1978 
L 1159 0 
L 581 0 
L 581 3500 
L 1159 3500 
L 1159 2956 
Q 1356 3278 1631 3431 
Q 1906 3584 2284 3584 
Q 2666 3584 2933 3390 
Q 3200 3197 3328 2828 
z
" transform="scale(0.015625)"/>
       <path id="DejaVuSans-74" d="M 1172 4494 
L 1172 3500 
L 2356 3500 
L 2356 3053 
L 1172 3053 
L 1172 1153 
Q 1172 725 1289 603 
Q 1406 481 1766 481 
L 2356 481 
L 2356 0 
L 1766 0 
Q 1100 0 847 248 
Q 594 497 594 1153 
L 594 3053 
L 172 3053 
L 172 3500 
L 594 3500 
L 594 4494 
L 1172 4494 
z
" transform="scale(0.015625)"/>
       <path id="DejaVuSans-69" d="M 603 3500 
L 1178 3500 
L 1178 0 
L 603 0 
L 603 3500 
z
M 603 4863 
L 1178 4863 
L 1178 4134 
L 603 4134 
L 603 4863 
z
" transform="scale(0.015625)"/>
       <path id="DejaVuSans-6e" d="M 3513 2113 
L 3513 0 
L 2938 0 
L 2938 2094 
Q 2938 2591 2744 2837 
Q 2550 3084 2163 3084 
Q 1697 3084 1428 2787 
Q 1159 2491 1159 1978 
L 1159 0 
L 581 0 
L 581 3500 
L 1159 3500 
L 1159 2956 
Q 1366 3272 1645 3428 
Q 1925 3584 2291 3584 
Q 2894 3584 3203 3211 
Q 3513 2838 3513 2113 
z
" transform="scale(0.015625)"/>
       <path id="DejaVuSans-20" transform="scale(0.015625)"/>
       <path id="DejaVuSans-28" d="M 1984 4856 
Q 1566 4138 1362 3434 
Q 1159 2731 1159 2009 
Q 1159 1288 1364 580 
Q 1569 -128 1984 -844 
L 1484 -844 
Q 1016 -109 783 600 
Q 550 1309 550 2009 
Q 550 2706 781 3412 
Q 1013 4119 1484 4856 
L 1984 4856 
z
" transform="scale(0.015625)"/>
       <path id="DejaVuSans-65" d="M 3597 1894 
L 3597 1613 
L 953 1613 
Q 991 1019 1311 708 
Q 1631 397 2203 397 
Q 2534 397 2845 478 
Q 3156 559 3463 722 
L 3463 178 
Q 3153 47 2828 -22 
Q 2503 -91 2169 -91 
Q 1331 -91 842 396 
Q 353 884 353 1716 
Q 353 2575 817 3079 
Q 1281 3584 2069 3584 
Q 2775 3584 3186 3129 
Q 3597 2675 3597 1894 
z
M 3022 2063 
Q 3016 2534 2758 2815 
Q 2500 3097 2075 3097 
Q 1594 3097 1305 2825 
Q 1016 2553 972 2059 
L 3022 2063 
z
" transform="scale(0.015625)"/>
       <path id="DejaVuSans-61" d="M 2194 1759 
Q 1497 1759 1228 1600 
Q 959 1441 959 1056 
Q 959 750 1161 570 
Q 1363 391 1709 391 
Q 2188 391 2477 730 
Q 2766 1069 2766 1631 
L 2766 1759 
L 2194 1759 
z
M 3341 1997 
L 3341 0 
L 2766 0 
L 2766 531 
Q 2569 213 2275 61 
Q 1981 -91 1556 -91 
Q 1019 -91 701 211 
Q 384 513 384 1019 
Q 384 1609 779 1909 
Q 1175 2209 1959 2209 
L 2766 2209 
L 2766 2266 
Q 2766 2663 2505 2880 
Q 2244 3097 1772 3097 
Q 1472 3097 1187 3025 
Q 903 2953 641 2809 
L 641 3341 
Q 956 3463 1253 3523 
Q 1550 3584 1831 3584 
Q 2591 3584 2966 3190 
Q 3341 2797 3341 1997 
z
" transform="scale(0.015625)"/>
       <path id="DejaVuSans-7a" d="M 353 3500 
L 3084 3500 
L 3084 2975 
L 922 459 
L 3084 459 
L 3084 0 
L 275 0 
L 275 525 
L 2438 3041 
L 353 3041 
L 353 3500 
z
" transform="scale(0.015625)"/>
       <path id="DejaVuSans-2d" d="M 313 2009 
L 1997 2009 
L 1997 1497 
L 313 1497 
L 313 2009 
z
" transform="scale(0.015625)"/>
       <path id="DejaVuSans-73" d="M 2834 3397 
L 2834 2853 
Q 2591 2978 2328 3040 
Q 2066 3103 1784 3103 
Q 1356 3103 1142 2972 
Q 928 2841 928 2578 
Q 928 2378 1081 2264 
Q 1234 2150 1697 2047 
L 1894 2003 
Q 2506 1872 2764 1633 
Q 3022 1394 3022 966 
Q 3022 478 2636 193 
Q 2250 -91 1575 -91 
Q 1294 -91 989 -36 
Q 684 19 347 128 
L 347 722 
Q 666 556 975 473 
Q 1284 391 1588 391 
Q 1994 391 2212 530 
Q 2431 669 2431 922 
Q 2431 1156 2273 1281 
Q 2116 1406 1581 1522 
L 1381 1569 
Q 847 1681 609 1914 
Q 372 2147 372 2553 
Q 372 3047 722 3315 
Q 1072 3584 1716 3584 
Q 2034 3584 2315 3537 
Q 2597 3491 2834 3397 
z
" transform="scale(0.015625)"/>
       <path id="DejaVuSans-72" d="M 2631 2963 
Q 2534 3019 2420 3045 
Q 2306 3072 2169 3072 
Q 1681 3072 1420 2755 
Q 1159 2438 1159 1844 
L 1159 0 
L 581 0 
L 581 3500 
L 1159 3500 
L 1159 2956 
Q 1341 3275 1631 3429 
Q 1922 3584 2338 3584 
Q 2397 3584 2469 3576 
Q 2541 3569 2628 3553 
L 2631 2963 
z
" transform="scale(0.015625)"/>
       <path id="DejaVuSans-70" d="M 1159 525 
L 1159 -1331 
L 581 -1331 
L 581 3500 
L 1159 3500 
L 1159 2969 
Q 1341 3281 1617 3432 
Q 1894 3584 2278 3584 
Q 2916 3584 3314 3078 
Q 3713 2572 3713 1747 
Q 3713 922 3314 415 
Q 2916 -91 2278 -91 
Q 1894 -91 1617 61 
Q 1341 213 1159 525 
z
M 3116 1747 
Q 3116 2381 2855 2742 
Q 2594 3103 2138 3103 
Q 1681 3103 1420 2742 
Q 1159 2381 1159 1747 
Q 1159 1113 1420 752 
Q 1681 391 2138 391 
Q 2594 391 2855 752 
Q 3116 1113 3116 1747 
z
" transform="scale(0.015625)"/>
       <path id="DejaVuSans-75" d="M 544 1381 
L 544 3500 
L 1119 3500 
L 1119 1403 
Q 1119 906 1312 657 
Q 1506 409 1894 409 
Q 2359 409 2629 706 
Q 2900 1003 2900 1516 
L 2900 3500 
L 3475 3500 
L 3475 0 
L 2900 0 
L 2900 538 
Q 2691 219 2414 64 
Q 2138 -91 1772 -91 
Q 1169 -91 856 284 
Q 544 659 544 1381 
z
M 1991 3584 
L 1991 3584 
z
" transform="scale(0.015625)"/>
       <path id="DejaVuSans-64" d="M 2906 2969 
L 2906 4863 
L 3481 4863 
L 3481 0 
L 2906 0 
L 2906 525 
Q 2725 213 2448 61 
Q 2172 -91 1784 -91 
Q 1150 -91 751 415 
Q 353 922 353 1747 
Q 353 2572 751 3078 
Q 1150 3584 1784 3584 
Q 2172 3584 2448 3432 
Q 2725 3281 2906 2969 
z
M 947 1747 
Q 947 1113 1208 752 
Q 1469 391 1925 391 
Q 2381 391 2643 752 
Q 2906 1113 2906 1747 
Q 2906 2381 2643 2742 
Q 2381 3103 1925 3103 
Q 1469 3103 1208 2742 
Q 947 2381 947 1747 
z
" transform="scale(0.015625)"/>
       <path id="DejaVuSans-29" d="M 513 4856 
L 1013 4856 
Q 1481 4119 1714 3412 
Q 1947 2706 1947 2009 
Q 1947 1309 1714 600 
Q 1481 -109 1013 -844 
L 513 -844 
Q 928 -128 1133 580 
Q 1338 1288 1338 2009 
Q 1338 2731 1133 3434 
Q 928 4138 513 4856 
z
" transform="scale(0.015625)"/>
      </defs>
      <use xlink:href="#DejaVuSans-4c"/>
      <use xlink:href="#DejaVuSans-6f" x="53.962891"/>
      <use xlink:href="#DejaVuSans-63" x="115.144531"/>
      <use xlink:href="#DejaVuSans-6f" x="170.125"/>
      <use xlink:href="#DejaVuSans-6d" x="231.306641"/>
      <use xlink:href="#DejaVuSans-6f" x="328.71875"/>
      <use xlink:href="#DejaVuSans-74" x="389.900391"/>
      <use xlink:href="#DejaVuSans-69" x="429.109375"/>
      <use xlink:href="#DejaVuSans-6f" x="456.892578"/>
      <use xlink:href="#DejaVuSans-6e" x="518.074219"/>
      <use xlink:href="#DejaVuSans-20" x="581.453125"/>
      <use xlink:href="#DejaVuSans-28" x="613.240234"/>
      <use xlink:href="#DejaVuSans-6d" x="652.253906"/>
      <use xlink:href="#DejaVuSans-65" x="749.666016"/>
      <use xlink:href="#DejaVuSans-61" x="811.189453"/>
      <use xlink:href="#DejaVuSans-6e" x="872.46875"/>
      <use xlink:href="#DejaVuSans-20" x="935.847656"/>
      <use xlink:href="#DejaVuSans-7a" x="967.634766"/>
      <use xlink:href="#DejaVuSans-2d" x="1020.125"/>
      <use xlink:href="#DejaVuSans-73" x="1056.208984"/>
      <use xlink:href="#DejaVuSans-63" x="1108.308594"/>
      <use xlink:href="#DejaVuSans-6f" x="1163.289062"/>
      <use xlink:href="#DejaVuSans-72" x="1224.470703"/>
      <use xlink:href="#DejaVuSans-65" x="1263.333984"/>
      <use xlink:href="#DejaVuSans-20" x="1324.857422"/>
      <use xlink:href="#DejaVuSans-63" x="1356.644531"/>
      <use xlink:href="#DejaVuSans-6f" x="1411.625"/>
      <use xlink:href="#DejaVuSans-6d" x="1472.806641"/>
      <use xlink:href="#DejaVuSans-70" x="1570.21875"/>
      <use xlink:href="#DejaVuSans-6f" x="1633.695312"/>
      <use xlink:href="#DejaVuSans-75" x="1694.876953"/>
      <use xlink:href="#DejaVuSans-6e" x="1758.255859"/>
      <use xlink:href="#DejaVuSans-64" x="1821.634766"/>
      <use xlink:href="#DejaVuSans-29" x="1885.111328"/>
     </g>
    </g>
   </g>
   <g id="matplotlib.axis_2">
    <g id="ytick_1">
     <g id="line2d_9">
      <defs>
       <path id="m5bdd1da690" d="M 0 0 
L -3.5 0 
" style="stroke: #000000; stroke-width: 0.8"/>
      </defs>
      <g>
       <use xlink:href="#m5bdd1da690" x="45" y="295.805372" style="stroke: #000000; stroke-width: 0.8"/>
      </g>
     </g>
     <g id="text_10">
      <!-- −1.00 -->
      <g transform="translate(7.354687 299.604591) scale(0.1 -0.1)">
       <use xlink:href="#DejaVuSans-2212"/>
       <use xlink:href="#DejaVuSans-31" x="83.789062"/>
       <use xlink:href="#DejaVuSans-2e" x="147.412109"/>
       <use xlink:href="#DejaVuSans-30" x="179.199219"/>
       <use xlink:href="#DejaVuSans-30" x="242.822266"/>
      </g>
     </g>
    </g>
    <g id="ytick_2">
     <g id="line2d_10">
      <g>
       <use xlink:href="#m5bdd1da690" x="45" y="261.295662" style="stroke: #000000; stroke-width: 0.8"/>
      </g>
     </g>
     <g id="text_11">
      <!-- −0.75 -->
      <g transform="translate(7.354687 265.094881) scale(0.1 -0.1)">
       <use xlink:href="#DejaVuSans-2212"/>
       <use xlink:href="#DejaVuSans-30" x="83.789062"/>
       <use xlink:href="#DejaVuSans-2e" x="147.412109"/>
       <use xlink:href="#DejaVuSans-37" x="179.199219"/>
       <use xlink:href="#DejaVuSans-35" x="242.822266"/>
      </g>
     </g>
    </g>
    <g id="ytick_3">
     <g id="line2d_11">
      <g>
       <use xlink:href="#m5bdd1da690" x="45" y="226.785952" style="stroke: #000000; stroke-width: 0.8"/>
      </g>
     </g>
     <g id="text_12">
      <!-- −0.50 -->
      <g transform="translate(7.354687 230.585171) scale(0.1 -0.1)">
       <use xlink:href="#DejaVuSans-2212"/>
       <use xlink:href="#DejaVuSans-30" x="83.789062"/>
       <use xlink:href="#DejaVuSans-2e" x="147.412109"/>
       <use xlink:href="#DejaVuSans-35" x="179.199219"/>
       <use xlink:href="#DejaVuSans-30" x="242.822266"/>
      </g>
     </g>
    </g>
    <g id="ytick_4">
     <g id="line2d_12">
      <g>
       <use xlink:href="#m5bdd1da690" x="45" y="192.276242" style="stroke: #000000; stroke-width: 0.8"/>
      </g>
     </g>
     <g id="text_13">
      <!-- −0.25 -->
      <g transform="translate(7.354687 196.075461) scale(0.1 -0.1)">
       <use xlink:href="#DejaVuSans-2212"/>
       <use xlink:href="#DejaVuSans-30" x="83.789062"/>
       <use xlink:href="#DejaVuSans-2e" x="147.412109"/>
       <use xlink:href="#DejaVuSans-32" x="179.199219"/>
       <use xlink:href="#DejaVuSans-35" x="242.822266"/>
      </g>
     </g>
    </g>
    <g id="ytick_5">
     <g id="line2d_13">
      <g>
       <use xlink:href="#m5bdd1da690" x="45" y="157.766532" style="stroke: #000000; stroke-width: 0.8"/>
      </g>
     </g>
     <g id="text_14">
      <!-- 0.00 -->
      <g transform="translate(15.734375 161.565751) scale(0.1 -0.1)">
       <use xlink:href="#DejaVuSans-30"/>
       <use xlink:href="#DejaVuSans-2e" x="63.623047"/>
       <use xlink:href="#DejaVuSans-30" x="95.410156"/>
       <use xlink:href="#DejaVuSans-30" x="159.033203"/>
      </g>
     </g>
    </g>
    <g id="ytick_6">
     <g id="line2d_14">
      <g>
       <use xlink:href="#m5bdd1da690" x="45" y="123.256822" style="stroke: #000000; stroke-width: 0.8"/>
      </g>
     </g>
     <g id="text_15">
      <!-- 0.25 -->
      <g transform="translate(15.734375 127.056041) scale(0.1 -0.1)">
       <use xlink:href="#DejaVuSans-30"/>
       <use xlink:href="#DejaVuSans-2e" x="63.623047"/>
       <use xlink:href="#DejaVuSans-32" x="95.410156"/>
       <use xlink:href="#DejaVuSans-35" x="159.033203"/>
      </g>
     </g>
    </g>
    <g id="ytick_7">
     <g id="line2d_15">
      <g>
       <use xlink:href="#m5bdd1da690" x="45" y="88.747112" style="stroke: #000000; stroke-width: 0.8"/>
      </g>
     </g>
     <g id="text_16">
      <!-- 0.50 -->
      <g transform="translate(15.734375 92.546331) scale(0.1 -0.1)">
       <use xlink:href="#DejaVuSans-30"/>
       <use xlink:href="#DejaVuSans-2e" x="63.623047"/>
       <use xlink:href="#DejaVuSans-35" x="95.410156"/>
       <use xlink:href="#DejaVuSans-30" x="159.033203"/>
      </g>
     </g>
    </g>
    <g id="ytick_8">
     <g id="line2d_16">
      <g>
       <use xlink:href="#m5bdd1da690" x="45" y="54.237403" style="stroke: #000000; stroke-width: 0.8"/>
      </g>
     </g>
     <g id="text_17">
      <!-- 0.75 -->
      <g transform="translate(15.734375 58.036621) scale(0.1 -0.1)">
       <use xlink:href="#DejaVuSans-30"/>
       <use xlink:href="#DejaVuSans-2e" x="63.623047"/>
       <use xlink:href="#DejaVuSans-37" x="95.410156"/>
       <use xlink:href="#DejaVuSans-35" x="159.033203"/>
      </g>
     </g>
    </g>
    <g id="text_18">
     <!-- Immobility (mean z-score compound) -->
     <g transform="translate(1.275 275.469531) rotate(-90) scale(0.1 -0.1)">
      <defs>
       <path id="DejaVuSans-49" d="M 628 4666 
L 1259 4666 
L 1259 0 
L 628 0 
L 628 4666 
z
" transform="scale(0.015625)"/>
       <path id="DejaVuSans-62" d="M 3116 1747 
Q 3116 2381 2855 2742 
Q 2594 3103 2138 3103 
Q 1681 3103 1420 2742 
Q 1159 2381 1159 1747 
Q 1159 1113 1420 752 
Q 1681 391 2138 391 
Q 2594 391 2855 752 
Q 3116 1113 3116 1747 
z
M 1159 2969 
Q 1341 3281 1617 3432 
Q 1894 3584 2278 3584 
Q 2916 3584 3314 3078 
Q 3713 2572 3713 1747 
Q 3713 922 3314 415 
Q 2916 -91 2278 -91 
Q 1894 -91 1617 61 
Q 1341 213 1159 525 
L 1159 0 
L 581 0 
L 581 4863 
L 1159 4863 
L 1159 2969 
z
" transform="scale(0.015625)"/>
       <path id="DejaVuSans-6c" d="M 603 4863 
L 1178 4863 
L 1178 0 
L 603 0 
L 603 4863 
z
" transform="scale(0.015625)"/>
       <path id="DejaVuSans-79" d="M 2059 -325 
Q 1816 -950 1584 -1140 
Q 1353 -1331 966 -1331 
L 506 -1331 
L 506 -850 
L 844 -850 
Q 1081 -850 1212 -737 
Q 1344 -625 1503 -206 
L 1606 56 
L 191 3500 
L 800 3500 
L 1894 763 
L 2988 3500 
L 3597 3500 
L 2059 -325 
z
" transform="scale(0.015625)"/>
      </defs>
      <use xlink:href="#DejaVuSans-49"/>
      <use xlink:href="#DejaVuSans-6d" x="29.492188"/>
      <use xlink:href="#DejaVuSans-6d" x="126.904297"/>
      <use xlink:href="#DejaVuSans-6f" x="224.316406"/>
      <use xlink:href="#DejaVuSans-62" x="285.498047"/>
      <use xlink:href="#DejaVuSans-69" x="348.974609"/>
      <use xlink:href="#DejaVuSans-6c" x="376.757812"/>
      <use xlink:href="#DejaVuSans-69" x="404.541016"/>
      <use xlink:href="#DejaVuSans-74" x="432.324219"/>
      <use xlink:href="#DejaVuSans-79" x="471.533203"/>
      <use xlink:href="#DejaVuSans-20" x="530.712891"/>
      <use xlink:href="#DejaVuSans-28" x="562.5"/>
      <use xlink:href="#DejaVuSans-6d" x="601.513672"/>
      <use xlink:href="#DejaVuSans-65" x="698.925781"/>
      <use xlink:href="#DejaVuSans-61" x="760.449219"/>
      <use xlink:href="#DejaVuSans-6e" x="821.728516"/>
      <use xlink:href="#DejaVuSans-20" x="885.107422"/>
      <use xlink:href="#DejaVuSans-7a" x="916.894531"/>
      <use xlink:href="#DejaVuSans-2d" x="969.384766"/>
      <use xlink:href="#DejaVuSans-73" x="1005.46875"/>
      <use xlink:href="#DejaVuSans-63" x="1057.568359"/>
      <use xlink:href="#DejaVuSans-6f" x="1112.548828"/>
      <use xlink:href="#DejaVuSans-72" x="1173.730469"/>
      <use xlink:href="#DejaVuSans-65" x="1212.59375"/>
      <use xlink:href="#DejaVuSans-20" x="1274.117188"/>
      <use xlink:href="#DejaVuSans-63" x="1305.904297"/>
      <use xlink:href="#DejaVuSans-6f" x="1360.884766"/>
      <use xlink:href="#DejaVuSans-6d" x="1422.066406"/>
      <use xlink:href="#DejaVuSans-70" x="1519.478516"/>
      <use xlink:href="#DejaVuSans-6f" x="1582.955078"/>
      <use xlink:href="#DejaVuSans-75" x="1644.136719"/>
      <use xlink:href="#DejaVuSans-6e" x="1707.515625"/>
      <use xlink:href="#DejaVuSans-64" x="1770.894531"/>
      <use xlink:href="#DejaVuSans-29" x="1834.371094"/>
     </g>
    </g>
   </g>
   <g id="patch_3">
    <path d="M 45 320.4 
L 45 43.2 
" style="fill: none; stroke: #000000; stroke-width: 0.8; stroke-linejoin: miter; stroke-linecap: square"/>
   </g>
   <g id="patch_4">
    <path d="M 324 320.4 
L 324 43.2 
" style="fill: none; stroke: #000000; stroke-width: 0.8; stroke-linejoin: miter; stroke-linecap: square"/>
   </g>
   <g id="patch_5">
    <path d="M 45 320.4 
L 324 320.4 
" style="fill: none; stroke: #000000; stroke-width: 0.8; stroke-linejoin: miter; stroke-linecap: square"/>
   </g>
   <g id="patch_6">
    <path d="M 45 43.2 
L 324 43.2 
" style="fill: none; stroke: #000000; stroke-width: 0.8; stroke-linejoin: miter; stroke-linecap: square"/>
   </g>
  </g>
 </g>
 <defs>
  <clipPath id="p61d7b9278f">
   <rect x="45" y="43.2" width="279" height="277.2"/>
  </clipPath>
 </defs>
</svg>
