<?xml version="1.0" encoding="utf-8" standalone="no"?>
<!DOCTYPE svg PUBLIC "-//W3C//DTD SVG 1.1//EN"
  "http://www.w3.org/Graphics/SVG/1.1/DTD/svg11.dtd">
<svg xmlns:xlink="http://www.w3.org/1999/xlink" width="360pt" height="360pt" viewBox="0 0 360 360" xmlns="http://www.w3.org/2000/svg" version="1.1">
 <metadata>
  <rdf:RDF xmlns:dc="http://purl.org/dc/elements/1.1/" xmlns:cc="http://creativecommons.org/ns#" xmlns:rdf="http://www.w3.org/1999/02/22-rdf-syntax-ns#">
   <cc:Work>
    <dc:type rdf:resource="http://purl.org/dc/dcmitype/StillImage"/>
    <dc:date>2025-11-06T10:57:11.311837</dc:date>
    <dc:format>image/svg+xml</dc:format>
    <dc:creator>
     <cc:Agent>
      <dc:title>Matplotlib v3.9.1, https://matplotlib.org/</dc:title>
     </cc:Agent>
    </dc:creator>
   </cc:Work>
  </rdf:RDF>
 </metadata>
 <defs>
  <style type="text/css">*{stroke-linejoin: round; stroke-linecap: butt}</style>
 </defs>
 <g id="figure_1">
  <g id="patch_1">
   <path d="M 0 360 
L 360 360 
L 360 0 
L 0 0 
z
" style="fill: #ffffff"/>
  </g>
  <g id="axes_1">
   <g id="patch_2">
    <path d="M 45 320.4 
L 324 320.4 
L 324 43.2 
L 45 43.2 
z
" style="fill: #ffffff"/>
   </g>
   <g id="PathCollection_1">
    <defs>
     <path id="m7edd83360f" d="M 0 3 
C 0.795609 3 1.55874 2.683901 2.12132 2.12132 
C 2.683901 1.55874 3 0.795609 3 0 
C 3 -0.795609 2.683901 -1.55874 2.12132 -2.12132 
C 1.55874 -2.683901 0.795609 -3 0 -3 
C -0.795609 -3 -1.55874 -2.683901 -2.12132 -2.12132 
C -2.683901 -1.55874 -3 -0.795609 -3 0 
C -3 0.795609 -2.683901 1.55874 -2.12132 2.12132 
C -1.55874 2.683901 -0.795609 3 0 3 
z
" style="stroke: #1f77b4"/>
    </defs>
    <g clip-path="url(#p814bcb7872)">
     <use xlink:href="#m7edd83360f" x="104.07122" y="198.98184" style="fill: #1f77b4; stroke: #1f77b4"/>
     <use xlink:href="#m7edd83360f" x="111.432004" y="156.207584" style="fill: #1f77b4; stroke: #1f77b4"/>
     <use xlink:href="#m7edd83360f" x="172.02911" y="177.61679" style="fill: #1f77b4; stroke: #1f77b4"/>
     <use xlink:href="#m7edd83360f" x="274.028339" y="138.440276" style="fill: #1f77b4; stroke: #1f77b4"/>
     <use xlink:href="#m7edd83360f" x="131.459987" y="123.891403" style="fill: #1f77b4; stroke: #1f77b4"/>
     <use xlink:href="#m7edd83360f" x="184.051325" y="209.258594" style="fill: #1f77b4; stroke: #1f77b4"/>
     <use xlink:href="#m7edd83360f" x="244.109377" y="196.771506" style="fill: #1f77b4; stroke: #1f77b4"/>
     <use xlink:href="#m7edd83360f" x="220.242839" y="146.189818" style="fill: #1f77b4; stroke: #1f77b4"/>
     <use xlink:href="#m7edd83360f" x="230.373997" y="155.209133" style="fill: #1f77b4; stroke: #1f77b4"/>
     <use xlink:href="#m7edd83360f" x="187.032697" y="120.724427" style="fill: #1f77b4; stroke: #1f77b4"/>
     <use xlink:href="#m7edd83360f" x="124.599633" y="169.300992" style="fill: #1f77b4; stroke: #1f77b4"/>
     <use xlink:href="#m7edd83360f" x="187.532627" y="152.914831" style="fill: #1f77b4; stroke: #1f77b4"/>
     <use xlink:href="#m7edd83360f" x="94.98627" y="55.8" style="fill: #1f77b4; stroke: #1f77b4"/>
     <use xlink:href="#m7edd83360f" x="191.286901" y="233.894283" style="fill: #1f77b4; stroke: #1f77b4"/>
     <use xlink:href="#m7edd83360f" x="176.381432" y="164.668442" style="fill: #1f77b4; stroke: #1f77b4"/>
     <use xlink:href="#m7edd83360f" x="253.022535" y="211.676224" style="fill: #1f77b4; stroke: #1f77b4"/>
     <use xlink:href="#m7edd83360f" x="266.472904" y="147.118078" style="fill: #1f77b4; stroke: #1f77b4"/>
     <use xlink:href="#m7edd83360f" x="268.173927" y="166.10812" style="fill: #1f77b4; stroke: #1f77b4"/>
     <use xlink:href="#m7edd83360f" x="306.81542" y="267.90897" style="fill: #1f77b4; stroke: #1f77b4"/>
     <use xlink:href="#m7edd83360f" x="139.499612" y="146.653006" style="fill: #1f77b4; stroke: #1f77b4"/>
     <use xlink:href="#m7edd83360f" x="205.770438" y="155.723028" style="fill: #1f77b4; stroke: #1f77b4"/>
     <use xlink:href="#m7edd83360f" x="82.918646" y="116.930309" style="fill: #1f77b4; stroke: #1f77b4"/>
     <use xlink:href="#m7edd83360f" x="230.437196" y="213.616775" style="fill: #1f77b4; stroke: #1f77b4"/>
     <use xlink:href="#m7edd83360f" x="263.510953" y="225.129912" style="fill: #1f77b4; stroke: #1f77b4"/>
     <use xlink:href="#m7edd83360f" x="112.434065" y="161.306467" style="fill: #1f77b4; stroke: #1f77b4"/>
     <use xlink:href="#m7edd83360f" x="193.175381" y="122.665306" style="fill: #1f77b4; stroke: #1f77b4"/>
     <use xlink:href="#m7edd83360f" x="253.199653" y="214.277067" style="fill: #1f77b4; stroke: #1f77b4"/>
     <use xlink:href="#m7edd83360f" x="217.895223" y="216.381351" style="fill: #1f77b4; stroke: #1f77b4"/>
     <use xlink:href="#m7edd83360f" x="69.921113" y="82.108206" style="fill: #1f77b4; stroke: #1f77b4"/>
     <use xlink:href="#m7edd83360f" x="80.322913" y="85.93742" style="fill: #1f77b4; stroke: #1f77b4"/>
     <use xlink:href="#m7edd83360f" x="277.36659" y="239.331856" style="fill: #1f77b4; stroke: #1f77b4"/>
     <use xlink:href="#m7edd83360f" x="249.063834" y="144.678689" style="fill: #1f77b4; stroke: #1f77b4"/>
     <use xlink:href="#m7edd83360f" x="248.620183" y="248.510707" style="fill: #1f77b4; stroke: #1f77b4"/>
     <use xlink:href="#m7edd83360f" x="249.490868" y="246.75256" style="fill: #1f77b4; stroke: #1f77b4"/>
     <use xlink:href="#m7edd83360f" x="264.928255" y="168.066193" style="fill: #1f77b4; stroke: #1f77b4"/>
     <use xlink:href="#m7edd83360f" x="253.55327" y="98.428314" style="fill: #1f77b4; stroke: #1f77b4"/>
     <use xlink:href="#m7edd83360f" x="233.29472" y="169.068077" style="fill: #1f77b4; stroke: #1f77b4"/>
     <use xlink:href="#m7edd83360f" x="285.944739" y="290.786763" style="fill: #1f77b4; stroke: #1f77b4"/>
     <use xlink:href="#m7edd83360f" x="172.988907" y="239.317881" style="fill: #1f77b4; stroke: #1f77b4"/>
     <use xlink:href="#m7edd83360f" x="243.179701" y="228.946779" style="fill: #1f77b4; stroke: #1f77b4"/>
     <use xlink:href="#m7edd83360f" x="234.639795" y="210.232941" style="fill: #1f77b4; stroke: #1f77b4"/>
     <use xlink:href="#m7edd83360f" x="260.770901" y="199.266702" style="fill: #1f77b4; stroke: #1f77b4"/>
     <use xlink:href="#m7edd83360f" x="186.094439" y="225.551543" style="fill: #1f77b4; stroke: #1f77b4"/>
     <use xlink:href="#m7edd83360f" x="257.163779" y="226.733951" style="fill: #1f77b4; stroke: #1f77b4"/>
     <use xlink:href="#m7edd83360f" x="269.896819" y="235.815295" style="fill: #1f77b4; stroke: #1f77b4"/>
     <use xlink:href="#m7edd83360f" x="237.704324" y="235.413829" style="fill: #1f77b4; stroke: #1f77b4"/>
     <use xlink:href="#m7edd83360f" x="234.617323" y="248.974411" style="fill: #1f77b4; stroke: #1f77b4"/>
     <use xlink:href="#m7edd83360f" x="102.041149" y="159.131034" style="fill: #1f77b4; stroke: #1f77b4"/>
     <use xlink:href="#m7edd83360f" x="259.500644" y="222.14454" style="fill: #1f77b4; stroke: #1f77b4"/>
     <use xlink:href="#m7edd83360f" x="270.32335" y="202.444041" style="fill: #1f77b4; stroke: #1f77b4"/>
     <use xlink:href="#m7edd83360f" x="57.681818" y="75.917931" style="fill: #1f77b4; stroke: #1f77b4"/>
     <use xlink:href="#m7edd83360f" x="108.129721" y="80.115976" style="fill: #1f77b4; stroke: #1f77b4"/>
     <use xlink:href="#m7edd83360f" x="256.178034" y="247.237104" style="fill: #1f77b4; stroke: #1f77b4"/>
     <use xlink:href="#m7edd83360f" x="259.759118" y="244.731164" style="fill: #1f77b4; stroke: #1f77b4"/>
     <use xlink:href="#m7edd83360f" x="219.27648" y="227.398684" style="fill: #1f77b4; stroke: #1f77b4"/>
     <use xlink:href="#m7edd83360f" x="241.911323" y="163.134516" style="fill: #1f77b4; stroke: #1f77b4"/>
     <use xlink:href="#m7edd83360f" x="225.353367" y="221.457631" style="fill: #1f77b4; stroke: #1f77b4"/>
     <use xlink:href="#m7edd83360f" x="225.526394" y="214.444954" style="fill: #1f77b4; stroke: #1f77b4"/>
     <use xlink:href="#m7edd83360f" x="99.509216" y="124.380763" style="fill: #1f77b4; stroke: #1f77b4"/>
     <use xlink:href="#m7edd83360f" x="157.784305" y="122.188257" style="fill: #1f77b4; stroke: #1f77b4"/>
     <use xlink:href="#m7edd83360f" x="300.610505" y="278.209384" style="fill: #1f77b4; stroke: #1f77b4"/>
     <use xlink:href="#m7edd83360f" x="209.296537" y="226.775312" style="fill: #1f77b4; stroke: #1f77b4"/>
     <use xlink:href="#m7edd83360f" x="300.444741" y="202.920799" style="fill: #1f77b4; stroke: #1f77b4"/>
     <use xlink:href="#m7edd83360f" x="276.296362" y="234.509223" style="fill: #1f77b4; stroke: #1f77b4"/>
     <use xlink:href="#m7edd83360f" x="135.177401" y="151.960605" style="fill: #1f77b4; stroke: #1f77b4"/>
     <use xlink:href="#m7edd83360f" x="66.260688" y="126.678498" style="fill: #1f77b4; stroke: #1f77b4"/>
     <use xlink:href="#m7edd83360f" x="259.133761" y="208.477144" style="fill: #1f77b4; stroke: #1f77b4"/>
     <use xlink:href="#m7edd83360f" x="225.399749" y="144.682694" style="fill: #1f77b4; stroke: #1f77b4"/>
     <use xlink:href="#m7edd83360f" x="177.279162" y="178.42383" style="fill: #1f77b4; stroke: #1f77b4"/>
     <use xlink:href="#m7edd83360f" x="243.617788" y="253.740693" style="fill: #1f77b4; stroke: #1f77b4"/>
     <use xlink:href="#m7edd83360f" x="219.12804" y="130.119821" style="fill: #1f77b4; stroke: #1f77b4"/>
     <use xlink:href="#m7edd83360f" x="289.87221" y="207.99896" style="fill: #1f77b4; stroke: #1f77b4"/>
     <use xlink:href="#m7edd83360f" x="232.7215" y="200.761845" style="fill: #1f77b4; stroke: #1f77b4"/>
     <use xlink:href="#m7edd83360f" x="243.088691" y="207.652031" style="fill: #1f77b4; stroke: #1f77b4"/>
     <use xlink:href="#m7edd83360f" x="256.970081" y="236.97209" style="fill: #1f77b4; stroke: #1f77b4"/>
     <use xlink:href="#m7edd83360f" x="229.675599" y="181.226095" style="fill: #1f77b4; stroke: #1f77b4"/>
     <use xlink:href="#m7edd83360f" x="272.40095" y="228.023147" style="fill: #1f77b4; stroke: #1f77b4"/>
     <use xlink:href="#m7edd83360f" x="251.139783" y="254.471569" style="fill: #1f77b4; stroke: #1f77b4"/>
     <use xlink:href="#m7edd83360f" x="220.895274" y="205.947917" style="fill: #1f77b4; stroke: #1f77b4"/>
     <use xlink:href="#m7edd83360f" x="232.087524" y="156.626163" style="fill: #1f77b4; stroke: #1f77b4"/>
     <use xlink:href="#m7edd83360f" x="235.57821" y="196.947871" style="fill: #1f77b4; stroke: #1f77b4"/>
     <use xlink:href="#m7edd83360f" x="217.28281" y="156.037385" style="fill: #1f77b4; stroke: #1f77b4"/>
     <use xlink:href="#m7edd83360f" x="232.819263" y="198.874185" style="fill: #1f77b4; stroke: #1f77b4"/>
     <use xlink:href="#m7edd83360f" x="144.675665" y="126.513034" style="fill: #1f77b4; stroke: #1f77b4"/>
     <use xlink:href="#m7edd83360f" x="281.77817" y="307.8" style="fill: #1f77b4; stroke: #1f77b4"/>
     <use xlink:href="#m7edd83360f" x="272.258268" y="228.842776" style="fill: #1f77b4; stroke: #1f77b4"/>
     <use xlink:href="#m7edd83360f" x="194.644948" y="199.277747" style="fill: #1f77b4; stroke: #1f77b4"/>
     <use xlink:href="#m7edd83360f" x="280.090235" y="256.915446" style="fill: #1f77b4; stroke: #1f77b4"/>
     <use xlink:href="#m7edd83360f" x="297.98389" y="179.918343" style="fill: #1f77b4; stroke: #1f77b4"/>
     <use xlink:href="#m7edd83360f" x="198.766862" y="195.792944" style="fill: #1f77b4; stroke: #1f77b4"/>
     <use xlink:href="#m7edd83360f" x="208.629466" y="196.453087" style="fill: #1f77b4; stroke: #1f77b4"/>
     <use xlink:href="#m7edd83360f" x="87.041901" y="127.419544" style="fill: #1f77b4; stroke: #1f77b4"/>
     <use xlink:href="#m7edd83360f" x="162.123222" y="180.605136" style="fill: #1f77b4; stroke: #1f77b4"/>
     <use xlink:href="#m7edd83360f" x="294.455594" y="241.0834" style="fill: #1f77b4; stroke: #1f77b4"/>
     <use xlink:href="#m7edd83360f" x="82.797254" y="99.747973" style="fill: #1f77b4; stroke: #1f77b4"/>
     <use xlink:href="#m7edd83360f" x="175.451431" y="151.821998" style="fill: #1f77b4; stroke: #1f77b4"/>
     <use xlink:href="#m7edd83360f" x="212.306632" y="215.465776" style="fill: #1f77b4; stroke: #1f77b4"/>
     <use xlink:href="#m7edd83360f" x="234.433945" y="216.543574" style="fill: #1f77b4; stroke: #1f77b4"/>
     <use xlink:href="#m7edd83360f" x="110.713078" y="128.095257" style="fill: #1f77b4; stroke: #1f77b4"/>
     <use xlink:href="#m7edd83360f" x="277.267119" y="256.161359" style="fill: #1f77b4; stroke: #1f77b4"/>
     <use xlink:href="#m7edd83360f" x="248.439442" y="272.573649" style="fill: #1f77b4; stroke: #1f77b4"/>
     <use xlink:href="#m7edd83360f" x="153.572497" y="128.832806" style="fill: #1f77b4; stroke: #1f77b4"/>
     <use xlink:href="#m7edd83360f" x="264.655945" y="222.399097" style="fill: #1f77b4; stroke: #1f77b4"/>
     <use xlink:href="#m7edd83360f" x="110.941059" y="106.045524" style="fill: #1f77b4; stroke: #1f77b4"/>
     <use xlink:href="#m7edd83360f" x="231.432947" y="203.246486" style="fill: #1f77b4; stroke: #1f77b4"/>
     <use xlink:href="#m7edd83360f" x="219.615102" y="184.713356" style="fill: #1f77b4; stroke: #1f77b4"/>
     <use xlink:href="#m7edd83360f" x="250.891182" y="233.319595" style="fill: #1f77b4; stroke: #1f77b4"/>
     <use xlink:href="#m7edd83360f" x="238.059173" y="242.832053" style="fill: #1f77b4; stroke: #1f77b4"/>
     <use xlink:href="#m7edd83360f" x="143.17119" y="162.016607" style="fill: #1f77b4; stroke: #1f77b4"/>
     <use xlink:href="#m7edd83360f" x="151.446264" y="144.619201" style="fill: #1f77b4; stroke: #1f77b4"/>
     <use xlink:href="#m7edd83360f" x="238.013363" y="250.946214" style="fill: #1f77b4; stroke: #1f77b4"/>
     <use xlink:href="#m7edd83360f" x="245.6562" y="214.989044" style="fill: #1f77b4; stroke: #1f77b4"/>
     <use xlink:href="#m7edd83360f" x="217.324283" y="199.451875" style="fill: #1f77b4; stroke: #1f77b4"/>
     <use xlink:href="#m7edd83360f" x="244.48365" y="235.186872" style="fill: #1f77b4; stroke: #1f77b4"/>
     <use xlink:href="#m7edd83360f" x="198.627164" y="121.526319" style="fill: #1f77b4; stroke: #1f77b4"/>
     <use xlink:href="#m7edd83360f" x="215.893519" y="185.561003" style="fill: #1f77b4; stroke: #1f77b4"/>
     <use xlink:href="#m7edd83360f" x="243.100379" y="155.395558" style="fill: #1f77b4; stroke: #1f77b4"/>
     <use xlink:href="#m7edd83360f" x="232.732564" y="190.234023" style="fill: #1f77b4; stroke: #1f77b4"/>
     <use xlink:href="#m7edd83360f" x="201.410815" y="251.01654" style="fill: #1f77b4; stroke: #1f77b4"/>
     <use xlink:href="#m7edd83360f" x="258.567361" y="151.792368" style="fill: #1f77b4; stroke: #1f77b4"/>
     <use xlink:href="#m7edd83360f" x="193.891373" y="143.258377" style="fill: #1f77b4; stroke: #1f77b4"/>
     <use xlink:href="#m7edd83360f" x="249.169612" y="235.072689" style="fill: #1f77b4; stroke: #1f77b4"/>
     <use xlink:href="#m7edd83360f" x="132.029155" y="59.956198" style="fill: #1f77b4; stroke: #1f77b4"/>
     <use xlink:href="#m7edd83360f" x="254.903498" y="231.969061" style="fill: #1f77b4; stroke: #1f77b4"/>
     <use xlink:href="#m7edd83360f" x="191.72011" y="129.739014" style="fill: #1f77b4; stroke: #1f77b4"/>
     <use xlink:href="#m7edd83360f" x="283.295527" y="271.687021" style="fill: #1f77b4; stroke: #1f77b4"/>
     <use xlink:href="#m7edd83360f" x="289.567957" y="257.580501" style="fill: #1f77b4; stroke: #1f77b4"/>
     <use xlink:href="#m7edd83360f" x="231.689852" y="244.990168" style="fill: #1f77b4; stroke: #1f77b4"/>
     <use xlink:href="#m7edd83360f" x="226.511278" y="243.042706" style="fill: #1f77b4; stroke: #1f77b4"/>
     <use xlink:href="#m7edd83360f" x="253.628824" y="257.606082" style="fill: #1f77b4; stroke: #1f77b4"/>
     <use xlink:href="#m7edd83360f" x="233.158362" y="176.60109" style="fill: #1f77b4; stroke: #1f77b4"/>
     <use xlink:href="#m7edd83360f" x="258.364983" y="231.980292" style="fill: #1f77b4; stroke: #1f77b4"/>
     <use xlink:href="#m7edd83360f" x="211.873416" y="108.551284" style="fill: #1f77b4; stroke: #1f77b4"/>
     <use xlink:href="#m7edd83360f" x="311.318182" y="266.535132" style="fill: #1f77b4; stroke: #1f77b4"/>
     <use xlink:href="#m7edd83360f" x="144.552234" y="129.987777" style="fill: #1f77b4; stroke: #1f77b4"/>
     <use xlink:href="#m7edd83360f" x="236.305625" y="231.240343" style="fill: #1f77b4; stroke: #1f77b4"/>
     <use xlink:href="#m7edd83360f" x="210.162172" y="151.096431" style="fill: #1f77b4; stroke: #1f77b4"/>
     <use xlink:href="#m7edd83360f" x="252.84481" y="208.108583" style="fill: #1f77b4; stroke: #1f77b4"/>
     <use xlink:href="#m7edd83360f" x="242.082538" y="242.312603" style="fill: #1f77b4; stroke: #1f77b4"/>
     <use xlink:href="#m7edd83360f" x="277.311037" y="239.823905" style="fill: #1f77b4; stroke: #1f77b4"/>
     <use xlink:href="#m7edd83360f" x="269.454465" y="220.815679" style="fill: #1f77b4; stroke: #1f77b4"/>
     <use xlink:href="#m7edd83360f" x="164.511361" y="204.700052" style="fill: #1f77b4; stroke: #1f77b4"/>
     <use xlink:href="#m7edd83360f" x="229.524848" y="236.7072" style="fill: #1f77b4; stroke: #1f77b4"/>
     <use xlink:href="#m7edd83360f" x="264.542161" y="260.432079" style="fill: #1f77b4; stroke: #1f77b4"/>
     <use xlink:href="#m7edd83360f" x="225.147757" y="191.583833" style="fill: #1f77b4; stroke: #1f77b4"/>
     <use xlink:href="#m7edd83360f" x="109.998147" y="156.073862" style="fill: #1f77b4; stroke: #1f77b4"/>
     <use xlink:href="#m7edd83360f" x="250.959089" y="216.716751" style="fill: #1f77b4; stroke: #1f77b4"/>
     <use xlink:href="#m7edd83360f" x="129.904488" y="118.956141" style="fill: #1f77b4; stroke: #1f77b4"/>
     <use xlink:href="#m7edd83360f" x="229.788895" y="234.619723" style="fill: #1f77b4; stroke: #1f77b4"/>
     <use xlink:href="#m7edd83360f" x="219.108238" y="114.702914" style="fill: #1f77b4; stroke: #1f77b4"/>
     <use xlink:href="#m7edd83360f" x="185.608057" y="198.297343" style="fill: #1f77b4; stroke: #1f77b4"/>
     <use xlink:href="#m7edd83360f" x="240.489493" y="141.809076" style="fill: #1f77b4; stroke: #1f77b4"/>
     <use xlink:href="#m7edd83360f" x="181.508182" y="195.785396" style="fill: #1f77b4; stroke: #1f77b4"/>
     <use xlink:href="#m7edd83360f" x="210.6584" y="175.389802" style="fill: #1f77b4; stroke: #1f77b4"/>
     <use xlink:href="#m7edd83360f" x="60.645933" y="61.905425" style="fill: #1f77b4; stroke: #1f77b4"/>
    </g>
   </g>
   <g id="matplotlib.axis_1">
    <g id="xtick_1">
     <g id="line2d_1">
      <defs>
       <path id="med01401215" d="M 0 0 
L 0 3.5 
" style="stroke: #000000; stroke-width: 0.8"/>
      </defs>
      <g>
       <use xlink:href="#med01401215" x="50.173631" y="320.4" style="stroke: #000000; stroke-width: 0.8"/>
      </g>
     </g>
     <g id="text_1">
      <!-- −0.6 -->
      <g transform="translate(38.032225 334.998438) scale(0.1 -0.1)">
       <defs>
        <path id="DejaVuSans-2212" d="M 678 2272 
L 4684 2272 
L 4684 1741 
L 678 1741 
L 678 2272 
z
" transform="scale(0.015625)"/>
        <path id="DejaVuSans-30" d="M 2034 4250 
Q 1547 4250 1301 3770 
Q 1056 3291 1056 2328 
Q 1056 1369 1301 889 
Q 1547 409 2034 409 
Q 2525 409 2770 889 
Q 3016 1369 3016 2328 
Q 3016 3291 2770 3770 
Q 2525 4250 2034 4250 
z
M 2034 4750 
Q 2819 4750 3233 4129 
Q 3647 3509 3647 2328 
Q 3647 1150 3233 529 
Q 2819 -91 2034 -91 
Q 1250 -91 836 529 
Q 422 1150 422 2328 
Q 422 3509 836 4129 
Q 1250 4750 2034 4750 
z
" transform="scale(0.015625)"/>
        <path id="DejaVuSans-2e" d="M 684 794 
L 1344 794 
L 1344 0 
L 684 0 
L 684 794 
z
" transform="scale(0.015625)"/>
        <path id="DejaVuSans-36" d="M 2113 2584 
Q 1688 2584 1439 2293 
Q 1191 2003 1191 1497 
Q 1191 994 1439 701 
Q 1688 409 2113 409 
Q 2538 409 2786 701 
Q 3034 994 3034 1497 
Q 3034 2003 2786 2293 
Q 2538 2584 2113 2584 
z
M 3366 4563 
L 3366 3988 
Q 3128 4100 2886 4159 
Q 2644 4219 2406 4219 
Q 1781 4219 1451 3797 
Q 1122 3375 1075 2522 
Q 1259 2794 1537 2939 
Q 1816 3084 2150 3084 
Q 2853 3084 3261 2657 
Q 3669 2231 3669 1497 
Q 3669 778 3244 343 
Q 2819 -91 2113 -91 
Q 1303 -91 875 529 
Q 447 1150 447 2328 
Q 447 3434 972 4092 
Q 1497 4750 2381 4750 
Q 2619 4750 2861 4703 
Q 3103 4656 3366 4563 
z
" transform="scale(0.015625)"/>
       </defs>
       <use xlink:href="#DejaVuSans-2212"/>
       <use xlink:href="#DejaVuSans-30" x="83.789062"/>
       <use xlink:href="#DejaVuSans-2e" x="147.412109"/>
       <use xlink:href="#DejaVuSans-36" x="179.199219"/>
      </g>
     </g>
    </g>
    <g id="xtick_2">
     <g id="line2d_2">
      <g>
       <use xlink:href="#med01401215" x="88.769255" y="320.4" style="stroke: #000000; stroke-width: 0.8"/>
      </g>
     </g>
     <g id="text_2">
      <!-- −0.4 -->
      <g transform="translate(76.627849 334.998438) scale(0.1 -0.1)">
       <defs>
        <path id="DejaVuSans-34" d="M 2419 4116 
L 825 1625 
L 2419 1625 
L 2419 4116 
z
M 2253 4666 
L 3047 4666 
L 3047 1625 
L 3713 1625 
L 3713 1100 
L 3047 1100 
L 3047 0 
L 2419 0 
L 2419 1100 
L 313 1100 
L 313 1709 
L 2253 4666 
z
" transform="scale(0.015625)"/>
       </defs>
       <use xlink:href="#DejaVuSans-2212"/>
       <use xlink:href="#DejaVuSans-30" x="83.789062"/>
       <use xlink:href="#DejaVuSans-2e" x="147.412109"/>
       <use xlink:href="#DejaVuSans-34" x="179.199219"/>
      </g>
     </g>
    </g>
    <g id="xtick_3">
     <g id="line2d_3">
      <g>
       <use xlink:href="#med01401215" x="127.364879" y="320.4" style="stroke: #000000; stroke-width: 0.8"/>
      </g>
     </g>
     <g id="text_3">
      <!-- −0.2 -->
      <g transform="translate(115.223472 334.998438) scale(0.1 -0.1)">
       <defs>
        <path id="DejaVuSans-32" d="M 1228 531 
L 3431 531 
L 3431 0 
L 469 0 
L 469 531 
Q 828 903 1448 1529 
Q 2069 2156 2228 2338 
Q 2531 2678 2651 2914 
Q 2772 3150 2772 3378 
Q 2772 3750 2511 3984 
Q 2250 4219 1831 4219 
Q 1534 4219 1204 4116 
Q 875 4013 500 3803 
L 500 4441 
Q 881 4594 1212 4672 
Q 1544 4750 1819 4750 
Q 2544 4750 2975 4387 
Q 3406 4025 3406 3419 
Q 3406 3131 3298 2873 
Q 3191 2616 2906 2266 
Q 2828 2175 2409 1742 
Q 1991 1309 1228 531 
z
" transform="scale(0.015625)"/>
       </defs>
       <use xlink:href="#DejaVuSans-2212"/>
       <use xlink:href="#DejaVuSans-30" x="83.789062"/>
       <use xlink:href="#DejaVuSans-2e" x="147.412109"/>
       <use xlink:href="#DejaVuSans-32" x="179.199219"/>
      </g>
     </g>
    </g>
    <g id="xtick_4">
     <g id="line2d_4">
      <g>
       <use xlink:href="#med01401215" x="165.960503" y="320.4" style="stroke: #000000; stroke-width: 0.8"/>
      </g>
     </g>
     <g id="text_4">
      <!-- 0.0 -->
      <g transform="translate(158.00894 334.998438) scale(0.1 -0.1)">
       <use xlink:href="#DejaVuSans-30"/>
       <use xlink:href="#DejaVuSans-2e" x="63.623047"/>
       <use xlink:href="#DejaVuSans-30" x="95.410156"/>
      </g>
     </g>
    </g>
    <g id="xtick_5">
     <g id="line2d_5">
      <g>
       <use xlink:href="#med01401215" x="204.556126" y="320.4" style="stroke: #000000; stroke-width: 0.8"/>
      </g>
     </g>
     <g id="text_5">
      <!-- 0.2 -->
      <g transform="translate(196.604564 334.998438) scale(0.1 -0.1)">
       <use xlink:href="#DejaVuSans-30"/>
       <use xlink:href="#DejaVuSans-2e" x="63.623047"/>
       <use xlink:href="#DejaVuSans-32" x="95.410156"/>
      </g>
     </g>
    </g>
    <g id="xtick_6">
     <g id="line2d_6">
      <g>
       <use xlink:href="#med01401215" x="243.15175" y="320.4" style="stroke: #000000; stroke-width: 0.8"/>
      </g>
     </g>
     <g id="text_6">
      <!-- 0.4 -->
      <g transform="translate(235.200188 334.998438) scale(0.1 -0.1)">
       <use xlink:href="#DejaVuSans-30"/>
       <use xlink:href="#DejaVuSans-2e" x="63.623047"/>
       <use xlink:href="#DejaVuSans-34" x="95.410156"/>
      </g>
     </g>
    </g>
    <g id="xtick_7">
     <g id="line2d_7">
      <g>
       <use xlink:href="#med01401215" x="281.747374" y="320.4" style="stroke: #000000; stroke-width: 0.8"/>
      </g>
     </g>
     <g id="text_7">
      <!-- 0.6 -->
      <g transform="translate(273.795812 334.998438) scale(0.1 -0.1)">
       <use xlink:href="#DejaVuSans-30"/>
       <use xlink:href="#DejaVuSans-2e" x="63.623047"/>
       <use xlink:href="#DejaVuSans-36" x="95.410156"/>
      </g>
     </g>
    </g>
    <g id="xtick_8">
     <g id="line2d_8">
      <g>
       <use xlink:href="#med01401215" x="320.342998" y="320.4" style="stroke: #000000; stroke-width: 0.8"/>
      </g>
     </g>
     <g id="text_8">
      <!-- 0.8 -->
      <g transform="translate(312.391436 334.998438) scale(0.1 -0.1)">
       <defs>
        <path id="DejaVuSans-38" d="M 2034 2216 
Q 1584 2216 1326 1975 
Q 1069 1734 1069 1313 
Q 1069 891 1326 650 
Q 1584 409 2034 409 
Q 2484 409 2743 651 
Q 3003 894 3003 1313 
Q 3003 1734 2745 1975 
Q 2488 2216 2034 2216 
z
M 1403 2484 
Q 997 2584 770 2862 
Q 544 3141 544 3541 
Q 544 4100 942 4425 
Q 1341 4750 2034 4750 
Q 2731 4750 3128 4425 
Q 3525 4100 3525 3541 
Q 3525 3141 3298 2862 
Q 3072 2584 2669 2484 
Q 3125 2378 3379 2068 
Q 3634 1759 3634 1313 
Q 3634 634 3220 271 
Q 2806 -91 2034 -91 
Q 1263 -91 848 271 
Q 434 634 434 1313 
Q 434 1759 690 2068 
Q 947 2378 1403 2484 
z
M 1172 3481 
Q 1172 3119 1398 2916 
Q 1625 2713 2034 2713 
Q 2441 2713 2670 2916 
Q 2900 3119 2900 3481 
Q 2900 3844 2670 4047 
Q 2441 4250 2034 4250 
Q 1625 4250 1398 4047 
Q 1172 3844 1172 3481 
z
" transform="scale(0.015625)"/>
       </defs>
       <use xlink:href="#DejaVuSans-30"/>
       <use xlink:href="#DejaVuSans-2e" x="63.623047"/>
       <use xlink:href="#DejaVuSans-38" x="95.410156"/>
      </g>
     </g>
    </g>
    <g id="text_9">
     <!-- Locomotion (mean z-score compound) -->
     <g transform="translate(88.292969 348.676562) scale(0.1 -0.1)">
      <defs>
       <path id="DejaVuSans-4c" d="M 628 4666 
L 1259 4666 
L 1259 531 
L 3531 531 
L 3531 0 
L 628 0 
L 628 4666 
z
" transform="scale(0.015625)"/>
       <path id="DejaVuSans-6f" d="M 1959 3097 
Q 1497 3097 1228 2736 
Q 959 2375 959 1747 
Q 959 1119 1226 758 
Q 1494 397 1959 397 
Q 2419 397 2687 759 
Q 2956 1122 2956 1747 
Q 2956 2369 2687 2733 
Q 2419 3097 1959 3097 
z
M 1959 3584 
Q 2709 3584 3137 3096 
Q 3566 2609 3566 1747 
Q 3566 888 3137 398 
Q 2709 -91 1959 -91 
Q 1206 -91 779 398 
Q 353 888 353 1747 
Q 353 2609 779 3096 
Q 1206 3584 1959 3584 
z
" transform="scale(0.015625)"/>
       <path id="DejaVuSans-63" d="M 3122 3366 
L 3122 2828 
Q 2878 2963 2633 3030 
Q 2388 3097 2138 3097 
Q 1578 3097 1268 2742 
Q 959 2388 959 1747 
Q 959 1106 1268 751 
Q 1578 397 2138 397 
Q 2388 397 2633 464 
Q 2878 531 3122 666 
L 3122 134 
Q 2881 22 2623 -34 
Q 2366 -91 2075 -91 
Q 1284 -91 818 406 
Q 353 903 353 1747 
Q 353 2603 823 3093 
Q 1294 3584 2113 3584 
Q 2378 3584 2631 3529 
Q 2884 3475 3122 3366 
z
" transform="scale(0.015625)"/>
       <path id="DejaVuSans-6d" d="M 3328 2828 
Q 3544 3216 3844 3400 
Q 4144 3584 4550 3584 
Q 5097 3584 5394 3201 
Q 5691 2819 5691 2113 
L 5691 0 
L 5113 0 
L 5113 2094 
Q 5113 2597 4934 2840 
Q 4756 3084 4391 3084 
Q 3944 3084 3684 2787 
Q 3425 2491 3425 1978 
L 3425 0 
L 2847 0 
L 2847 2094 
Q 2847 2600 2669 2842 
Q 2491 3084 2119 3084 
Q 1678 3084 1418 2786 
Q 1159 2488 1159 1978 
L 1159 0 
L 581 0 
L 581 3500 
L 1159 3500 
L 1159 2956 
Q 1356 3278 1631 3431 
Q 1906 3584 2284 3584 
Q 2666 3584 2933 3390 
Q 3200 3197 3328 2828 
z
" transform="scale(0.015625)"/>
       <path id="DejaVuSans-74" d="M 1172 4494 
L 1172 3500 
L 2356 3500 
L 2356 3053 
L 1172 3053 
L 1172 1153 
Q 1172 725 1289 603 
Q 1406 481 1766 481 
L 2356 481 
L 2356 0 
L 1766 0 
Q 1100 0 847 248 
Q 594 497 594 1153 
L 594 3053 
L 172 3053 
L 172 3500 
L 594 3500 
L 594 4494 
L 1172 4494 
z
" transform="scale(0.015625)"/>
       <path id="DejaVuSans-69" d="M 603 3500 
L 1178 3500 
L 1178 0 
L 603 0 
L 603 3500 
z
M 603 4863 
L 1178 4863 
L 1178 4134 
L 603 4134 
L 603 4863 
z
" transform="scale(0.015625)"/>
       <path id="DejaVuSans-6e" d="M 3513 2113 
L 3513 0 
L 2938 0 
L 2938 2094 
Q 2938 2591 2744 2837 
Q 2550 3084 2163 3084 
Q 1697 3084 1428 2787 
Q 1159 2491 1159 1978 
L 1159 0 
L 581 0 
L 581 3500 
L 1159 3500 
L 1159 2956 
Q 1366 3272 1645 3428 
Q 1925 3584 2291 3584 
Q 2894 3584 3203 3211 
Q 3513 2838 3513 2113 
z
" transform="scale(0.015625)"/>
       <path id="DejaVuSans-20" transform="scale(0.015625)"/>
       <path id="DejaVuSans-28" d="M 1984 4856 
Q 1566 4138 1362 3434 
Q 1159 2731 1159 2009 
Q 1159 1288 1364 580 
Q 1569 -128 1984 -844 
L 1484 -844 
Q 1016 -109 783 600 
Q 550 1309 550 2009 
Q 550 2706 781 3412 
Q 1013 4119 1484 4856 
L 1984 4856 
z
" transform="scale(0.015625)"/>
       <path id="DejaVuSans-65" d="M 3597 1894 
L 3597 1613 
L 953 1613 
Q 991 1019 1311 708 
Q 1631 397 2203 397 
Q 2534 397 2845 478 
Q 3156 559 3463 722 
L 3463 178 
Q 3153 47 2828 -22 
Q 2503 -91 2169 -91 
Q 1331 -91 842 396 
Q 353 884 353 1716 
Q 353 2575 817 3079 
Q 1281 3584 2069 3584 
Q 2775 3584 3186 3129 
Q 3597 2675 3597 1894 
z
M 3022 2063 
Q 3016 2534 2758 2815 
Q 2500 3097 2075 3097 
Q 1594 3097 1305 2825 
Q 1016 2553 972 2059 
L 3022 2063 
z
" transform="scale(0.015625)"/>
       <path id="DejaVuSans-61" d="M 2194 1759 
Q 1497 1759 1228 1600 
Q 959 1441 959 1056 
Q 959 750 1161 570 
Q 1363 391 1709 391 
Q 2188 391 2477 730 
Q 2766 1069 2766 1631 
L 2766 1759 
L 2194 1759 
z
M 3341 1997 
L 3341 0 
L 2766 0 
L 2766 531 
Q 2569 213 2275 61 
Q 1981 -91 1556 -91 
Q 1019 -91 701 211 
Q 384 513 384 1019 
Q 384 1609 779 1909 
Q 1175 2209 1959 2209 
L 2766 2209 
L 2766 2266 
Q 2766 2663 2505 2880 
Q 2244 3097 1772 3097 
Q 1472 3097 1187 3025 
Q 903 2953 641 2809 
L 641 3341 
Q 956 3463 1253 3523 
Q 1550 3584 1831 3584 
Q 2591 3584 2966 3190 
Q 3341 2797 3341 1997 
z
" transform="scale(0.015625)"/>
       <path id="DejaVuSans-7a" d="M 353 3500 
L 3084 3500 
L 3084 2975 
L 922 459 
L 3084 459 
L 3084 0 
L 275 0 
L 275 525 
L 2438 3041 
L 353 3041 
L 353 3500 
z
" transform="scale(0.015625)"/>
       <path id="DejaVuSans-2d" d="M 313 2009 
L 1997 2009 
L 1997 1497 
L 313 1497 
L 313 2009 
z
" transform="scale(0.015625)"/>
       <path id="DejaVuSans-73" d="M 2834 3397 
L 2834 2853 
Q 2591 2978 2328 3040 
Q 2066 3103 1784 3103 
Q 1356 3103 1142 2972 
Q 928 2841 928 2578 
Q 928 2378 1081 2264 
Q 1234 2150 1697 2047 
L 1894 2003 
Q 2506 1872 2764 1633 
Q 3022 1394 3022 966 
Q 3022 478 2636 193 
Q 2250 -91 1575 -91 
Q 1294 -91 989 -36 
Q 684 19 347 128 
L 347 722 
Q 666 556 975 473 
Q 1284 391 1588 391 
Q 1994 391 2212 530 
Q 2431 669 2431 922 
Q 2431 1156 2273 1281 
Q 2116 1406 1581 1522 
L 1381 1569 
Q 847 1681 609 1914 
Q 372 2147 372 2553 
Q 372 3047 722 3315 
Q 1072 3584 1716 3584 
Q 2034 3584 2315 3537 
Q 2597 3491 2834 3397 
z
" transform="scale(0.015625)"/>
       <path id="DejaVuSans-72" d="M 2631 2963 
Q 2534 3019 2420 3045 
Q 2306 3072 2169 3072 
Q 1681 3072 1420 2755 
Q 1159 2438 1159 1844 
L 1159 0 
L 581 0 
L 581 3500 
L 1159 3500 
L 1159 2956 
Q 1341 3275 1631 3429 
Q 1922 3584 2338 3584 
Q 2397 3584 2469 3576 
Q 2541 3569 2628 3553 
L 2631 2963 
z
" transform="scale(0.015625)"/>
       <path id="DejaVuSans-70" d="M 1159 525 
L 1159 -1331 
L 581 -1331 
L 581 3500 
L 1159 3500 
L 1159 2969 
Q 1341 3281 1617 3432 
Q 1894 3584 2278 3584 
Q 2916 3584 3314 3078 
Q 3713 2572 3713 1747 
Q 3713 922 3314 415 
Q 2916 -91 2278 -91 
Q 1894 -91 1617 61 
Q 1341 213 1159 525 
z
M 3116 1747 
Q 3116 2381 2855 2742 
Q 2594 3103 2138 3103 
Q 1681 3103 1420 2742 
Q 1159 2381 1159 1747 
Q 1159 1113 1420 752 
Q 1681 391 2138 391 
Q 2594 391 2855 752 
Q 3116 1113 3116 1747 
z
" transform="scale(0.015625)"/>
       <path id="DejaVuSans-75" d="M 544 1381 
L 544 3500 
L 1119 3500 
L 1119 1403 
Q 1119 906 1312 657 
Q 1506 409 1894 409 
Q 2359 409 2629 706 
Q 2900 1003 2900 1516 
L 2900 3500 
L 3475 3500 
L 3475 0 
L 2900 0 
L 2900 538 
Q 2691 219 2414 64 
Q 2138 -91 1772 -91 
Q 1169 -91 856 284 
Q 544 659 544 1381 
z
M 1991 3584 
L 1991 3584 
z
" transform="scale(0.015625)"/>
       <path id="DejaVuSans-64" d="M 2906 2969 
L 2906 4863 
L 3481 4863 
L 3481 0 
L 2906 0 
L 2906 525 
Q 2725 213 2448 61 
Q 2172 -91 1784 -91 
Q 1150 -91 751 415 
Q 353 922 353 1747 
Q 353 2572 751 3078 
Q 1150 3584 1784 3584 
Q 2172 3584 2448 3432 
Q 2725 3281 2906 2969 
z
M 947 1747 
Q 947 1113 1208 752 
Q 1469 391 1925 391 
Q 2381 391 2643 752 
Q 2906 1113 2906 1747 
Q 2906 2381 2643 2742 
Q 2381 3103 1925 3103 
Q 1469 3103 1208 2742 
Q 947 2381 947 1747 
z
" transform="scale(0.015625)"/>
       <path id="DejaVuSans-29" d="M 513 4856 
L 1013 4856 
Q 1481 4119 1714 3412 
Q 1947 2706 1947 2009 
Q 1947 1309 1714 600 
Q 1481 -109 1013 -844 
L 513 -844 
Q 928 -128 1133 580 
Q 1338 1288 1338 2009 
Q 1338 2731 1133 3434 
Q 928 4138 513 4856 
z
" transform="scale(0.015625)"/>
      </defs>
      <use xlink:href="#DejaVuSans-4c"/>
      <use xlink:href="#DejaVuSans-6f" x="53.962891"/>
      <use xlink:href="#DejaVuSans-63" x="115.144531"/>
      <use xlink:href="#DejaVuSans-6f" x="170.125"/>
      <use xlink:href="#DejaVuSans-6d" x="231.306641"/>
      <use xlink:href="#DejaVuSans-6f" x="328.71875"/>
      <use xlink:href="#DejaVuSans-74" x="389.900391"/>
      <use xlink:href="#DejaVuSans-69" x="429.109375"/>
      <use xlink:href="#DejaVuSans-6f" x="456.892578"/>
      <use xlink:href="#DejaVuSans-6e" x="518.074219"/>
      <use xlink:href="#DejaVuSans-20" x="581.453125"/>
      <use xlink:href="#DejaVuSans-28" x="613.240234"/>
      <use xlink:href="#DejaVuSans-6d" x="652.253906"/>
      <use xlink:href="#DejaVuSans-65" x="749.666016"/>
      <use xlink:href="#DejaVuSans-61" x="811.189453"/>
      <use xlink:href="#DejaVuSans-6e" x="872.46875"/>
      <use xlink:href="#DejaVuSans-20" x="935.847656"/>
      <use xlink:href="#DejaVuSans-7a" x="967.634766"/>
      <use xlink:href="#DejaVuSans-2d" x="1020.125"/>
      <use xlink:href="#DejaVuSans-73" x="1056.208984"/>
      <use xlink:href="#DejaVuSans-63" x="1108.308594"/>
      <use xlink:href="#DejaVuSans-6f" x="1163.289062"/>
      <use xlink:href="#DejaVuSans-72" x="1224.470703"/>
      <use xlink:href="#DejaVuSans-65" x="1263.333984"/>
      <use xlink:href="#DejaVuSans-20" x="1324.857422"/>
      <use xlink:href="#DejaVuSans-63" x="1356.644531"/>
      <use xlink:href="#DejaVuSans-6f" x="1411.625"/>
      <use xlink:href="#DejaVuSans-6d" x="1472.806641"/>
      <use xlink:href="#DejaVuSans-70" x="1570.21875"/>
      <use xlink:href="#DejaVuSans-6f" x="1633.695312"/>
      <use xlink:href="#DejaVuSans-75" x="1694.876953"/>
      <use xlink:href="#DejaVuSans-6e" x="1758.255859"/>
      <use xlink:href="#DejaVuSans-64" x="1821.634766"/>
      <use xlink:href="#DejaVuSans-29" x="1885.111328"/>
     </g>
    </g>
   </g>
   <g id="matplotlib.axis_2">
    <g id="ytick_1">
     <g id="line2d_9">
      <defs>
       <path id="m176df46240" d="M 0 0 
L -3.5 0 
" style="stroke: #000000; stroke-width: 0.8"/>
      </defs>
      <g>
       <use xlink:href="#m176df46240" x="45" y="295.632644" style="stroke: #000000; stroke-width: 0.8"/>
      </g>
     </g>
     <g id="text_10">
      <!-- −1.00 -->
      <g transform="translate(7.354687 299.431863) scale(0.1 -0.1)">
       <defs>
        <path id="DejaVuSans-31" d="M 794 531 
L 1825 531 
L 1825 4091 
L 703 3866 
L 703 4441 
L 1819 4666 
L 2450 4666 
L 2450 531 
L 3481 531 
L 3481 0 
L 794 0 
L 794 531 
z
" transform="scale(0.015625)"/>
       </defs>
       <use xlink:href="#DejaVuSans-2212"/>
       <use xlink:href="#DejaVuSans-31" x="83.789062"/>
       <use xlink:href="#DejaVuSans-2e" x="147.412109"/>
       <use xlink:href="#DejaVuSans-30" x="179.199219"/>
       <use xlink:href="#DejaVuSans-30" x="242.822266"/>
      </g>
     </g>
    </g>
    <g id="ytick_2">
     <g id="line2d_10">
      <g>
       <use xlink:href="#m176df46240" x="45" y="260.625978" style="stroke: #000000; stroke-width: 0.8"/>
      </g>
     </g>
     <g id="text_11">
      <!-- −0.75 -->
      <g transform="translate(7.354687 264.425197) scale(0.1 -0.1)">
       <defs>
        <path id="DejaVuSans-37" d="M 525 4666 
L 3525 4666 
L 3525 4397 
L 1831 0 
L 1172 0 
L 2766 4134 
L 525 4134 
L 525 4666 
z
" transform="scale(0.015625)"/>
        <path id="DejaVuSans-35" d="M 691 4666 
L 3169 4666 
L 3169 4134 
L 1269 4134 
L 1269 2991 
Q 1406 3038 1543 3061 
Q 1681 3084 1819 3084 
Q 2600 3084 3056 2656 
Q 3513 2228 3513 1497 
Q 3513 744 3044 326 
Q 2575 -91 1722 -91 
Q 1428 -91 1123 -41 
Q 819 9 494 109 
L 494 744 
Q 775 591 1075 516 
Q 1375 441 1709 441 
Q 2250 441 2565 725 
Q 2881 1009 2881 1497 
Q 2881 1984 2565 2268 
Q 2250 2553 1709 2553 
Q 1456 2553 1204 2497 
Q 953 2441 691 2322 
L 691 4666 
z
" transform="scale(0.015625)"/>
       </defs>
       <use xlink:href="#DejaVuSans-2212"/>
       <use xlink:href="#DejaVuSans-30" x="83.789062"/>
       <use xlink:href="#DejaVuSans-2e" x="147.412109"/>
       <use xlink:href="#DejaVuSans-37" x="179.199219"/>
       <use xlink:href="#DejaVuSans-35" x="242.822266"/>
      </g>
     </g>
    </g>
    <g id="ytick_3">
     <g id="line2d_11">
      <g>
       <use xlink:href="#m176df46240" x="45" y="225.619313" style="stroke: #000000; stroke-width: 0.8"/>
      </g>
     </g>
     <g id="text_12">
      <!-- −0.50 -->
      <g transform="translate(7.354687 229.418532) scale(0.1 -0.1)">
       <use xlink:href="#DejaVuSans-2212"/>
       <use xlink:href="#DejaVuSans-30" x="83.789062"/>
       <use xlink:href="#DejaVuSans-2e" x="147.412109"/>
       <use xlink:href="#DejaVuSans-35" x="179.199219"/>
       <use xlink:href="#DejaVuSans-30" x="242.822266"/>
      </g>
     </g>
    </g>
    <g id="ytick_4">
     <g id="line2d_12">
      <g>
       <use xlink:href="#m176df46240" x="45" y="190.612647" style="stroke: #000000; stroke-width: 0.8"/>
      </g>
     </g>
     <g id="text_13">
      <!-- −0.25 -->
      <g transform="translate(7.354687 194.411866) scale(0.1 -0.1)">
       <use xlink:href="#DejaVuSans-2212"/>
       <use xlink:href="#DejaVuSans-30" x="83.789062"/>
       <use xlink:href="#DejaVuSans-2e" x="147.412109"/>
       <use xlink:href="#DejaVuSans-32" x="179.199219"/>
       <use xlink:href="#DejaVuSans-35" x="242.822266"/>
      </g>
     </g>
    </g>
    <g id="ytick_5">
     <g id="line2d_13">
      <g>
       <use xlink:href="#m176df46240" x="45" y="155.605982" style="stroke: #000000; stroke-width: 0.8"/>
      </g>
     </g>
     <g id="text_14">
      <!-- 0.00 -->
      <g transform="translate(15.734375 159.4052) scale(0.1 -0.1)">
       <use xlink:href="#DejaVuSans-30"/>
       <use xlink:href="#DejaVuSans-2e" x="63.623047"/>
       <use xlink:href="#DejaVuSans-30" x="95.410156"/>
       <use xlink:href="#DejaVuSans-30" x="159.033203"/>
      </g>
     </g>
    </g>
    <g id="ytick_6">
     <g id="line2d_14">
      <g>
       <use xlink:href="#m176df46240" x="45" y="120.599316" style="stroke: #000000; stroke-width: 0.8"/>
      </g>
     </g>
     <g id="text_15">
      <!-- 0.25 -->
      <g transform="translate(15.734375 124.398535) scale(0.1 -0.1)">
       <use xlink:href="#DejaVuSans-30"/>
       <use xlink:href="#DejaVuSans-2e" x="63.623047"/>
       <use xlink:href="#DejaVuSans-32" x="95.410156"/>
       <use xlink:href="#DejaVuSans-35" x="159.033203"/>
      </g>
     </g>
    </g>
    <g id="ytick_7">
     <g id="line2d_15">
      <g>
       <use xlink:href="#m176df46240" x="45" y="85.592651" style="stroke: #000000; stroke-width: 0.8"/>
      </g>
     </g>
     <g id="text_16">
      <!-- 0.50 -->
      <g transform="translate(15.734375 89.391869) scale(0.1 -0.1)">
       <use xlink:href="#DejaVuSans-30"/>
       <use xlink:href="#DejaVuSans-2e" x="63.623047"/>
       <use xlink:href="#DejaVuSans-35" x="95.410156"/>
       <use xlink:href="#DejaVuSans-30" x="159.033203"/>
      </g>
     </g>
    </g>
    <g id="ytick_8">
     <g id="line2d_16">
      <g>
       <use xlink:href="#m176df46240" x="45" y="50.585985" style="stroke: #000000; stroke-width: 0.8"/>
      </g>
     </g>
     <g id="text_17">
      <!-- 0.75 -->
      <g transform="translate(15.734375 54.385204) scale(0.1 -0.1)">
       <use xlink:href="#DejaVuSans-30"/>
       <use xlink:href="#DejaVuSans-2e" x="63.623047"/>
       <use xlink:href="#DejaVuSans-37" x="95.410156"/>
       <use xlink:href="#DejaVuSans-35" x="159.033203"/>
      </g>
     </g>
    </g>
    <g id="text_18">
     <!-- Immobility (mean z-score compound) -->
     <g transform="translate(1.275 275.469531) rotate(-90) scale(0.1 -0.1)">
      <defs>
       <path id="DejaVuSans-49" d="M 628 4666 
L 1259 4666 
L 1259 0 
L 628 0 
L 628 4666 
z
" transform="scale(0.015625)"/>
       <path id="DejaVuSans-62" d="M 3116 1747 
Q 3116 2381 2855 2742 
Q 2594 3103 2138 3103 
Q 1681 3103 1420 2742 
Q 1159 2381 1159 1747 
Q 1159 1113 1420 752 
Q 1681 391 2138 391 
Q 2594 391 2855 752 
Q 3116 1113 3116 1747 
z
M 1159 2969 
Q 1341 3281 1617 3432 
Q 1894 3584 2278 3584 
Q 2916 3584 3314 3078 
Q 3713 2572 3713 1747 
Q 3713 922 3314 415 
Q 2916 -91 2278 -91 
Q 1894 -91 1617 61 
Q 1341 213 1159 525 
L 1159 0 
L 581 0 
L 581 4863 
L 1159 4863 
L 1159 2969 
z
" transform="scale(0.015625)"/>
       <path id="DejaVuSans-6c" d="M 603 4863 
L 1178 4863 
L 1178 0 
L 603 0 
L 603 4863 
z
" transform="scale(0.015625)"/>
       <path id="DejaVuSans-79" d="M 2059 -325 
Q 1816 -950 1584 -1140 
Q 1353 -1331 966 -1331 
L 506 -1331 
L 506 -850 
L 844 -850 
Q 1081 -850 1212 -737 
Q 1344 -625 1503 -206 
L 1606 56 
L 191 3500 
L 800 3500 
L 1894 763 
L 2988 3500 
L 3597 3500 
L 2059 -325 
z
" transform="scale(0.015625)"/>
      </defs>
      <use xlink:href="#DejaVuSans-49"/>
      <use xlink:href="#DejaVuSans-6d" x="29.492188"/>
      <use xlink:href="#DejaVuSans-6d" x="126.904297"/>
      <use xlink:href="#DejaVuSans-6f" x="224.316406"/>
      <use xlink:href="#DejaVuSans-62" x="285.498047"/>
      <use xlink:href="#DejaVuSans-69" x="348.974609"/>
      <use xlink:href="#DejaVuSans-6c" x="376.757812"/>
      <use xlink:href="#DejaVuSans-69" x="404.541016"/>
      <use xlink:href="#DejaVuSans-74" x="432.324219"/>
      <use xlink:href="#DejaVuSans-79" x="471.533203"/>
      <use xlink:href="#DejaVuSans-20" x="530.712891"/>
      <use xlink:href="#DejaVuSans-28" x="562.5"/>
      <use xlink:href="#DejaVuSans-6d" x="601.513672"/>
      <use xlink:href="#DejaVuSans-65" x="698.925781"/>
      <use xlink:href="#DejaVuSans-61" x="760.449219"/>
      <use xlink:href="#DejaVuSans-6e" x="821.728516"/>
      <use xlink:href="#DejaVuSans-20" x="885.107422"/>
      <use xlink:href="#DejaVuSans-7a" x="916.894531"/>
      <use xlink:href="#DejaVuSans-2d" x="969.384766"/>
      <use xlink:href="#DejaVuSans-73" x="1005.46875"/>
      <use xlink:href="#DejaVuSans-63" x="1057.568359"/>
      <use xlink:href="#DejaVuSans-6f" x="1112.548828"/>
      <use xlink:href="#DejaVuSans-72" x="1173.730469"/>
      <use xlink:href="#DejaVuSans-65" x="1212.59375"/>
      <use xlink:href="#DejaVuSans-20" x="1274.117188"/>
      <use xlink:href="#DejaVuSans-63" x="1305.904297"/>
      <use xlink:href="#DejaVuSans-6f" x="1360.884766"/>
      <use xlink:href="#DejaVuSans-6d" x="1422.066406"/>
      <use xlink:href="#DejaVuSans-70" x="1519.478516"/>
      <use xlink:href="#DejaVuSans-6f" x="1582.955078"/>
      <use xlink:href="#DejaVuSans-75" x="1644.136719"/>
      <use xlink:href="#DejaVuSans-6e" x="1707.515625"/>
      <use xlink:href="#DejaVuSans-64" x="1770.894531"/>
      <use xlink:href="#DejaVuSans-29" x="1834.371094"/>
     </g>
    </g>
   </g>
   <g id="patch_3">
    <path d="M 45 320.4 
L 45 43.2 
" style="fill: none; stroke: #000000; stroke-width: 0.8; stroke-linejoin: miter; stroke-linecap: square"/>
   </g>
   <g id="patch_4">
    <path d="M 324 320.4 
L 324 43.2 
" style="fill: none; stroke: #000000; stroke-width: 0.8; stroke-linejoin: miter; stroke-linecap: square"/>
   </g>
   <g id="patch_5">
    <path d="M 45 320.4 
L 324 320.4 
" style="fill: none; stroke: #000000; stroke-width: 0.8; stroke-linejoin: miter; stroke-linecap: square"/>
   </g>
   <g id="patch_6">
    <path d="M 45 43.2 
L 324 43.2 
" style="fill: none; stroke: #000000; stroke-width: 0.8; stroke-linejoin: miter; stroke-linecap: square"/>
   </g>
  </g>
 </g>
 <defs>
  <clipPath id="p814bcb7872">
   <rect x="45" y="43.2" width="279" height="277.2"/>
  </clipPath>
 </defs>
</svg>
